%TF.GenerationSoftware,KiCad,Pcbnew,8.0.2*%
%TF.CreationDate,2024-06-26T22:57:20+07:00*%
%TF.ProjectId,Capacitor_Electrolyte_1000uF_25V_Panel,43617061-6369-4746-9f72-5f456c656374,rev?*%
%TF.SameCoordinates,Original*%
%TF.FileFunction,Other,Comment*%
%FSLAX46Y46*%
G04 Gerber Fmt 4.6, Leading zero omitted, Abs format (unit mm)*
G04 Created by KiCad (PCBNEW 8.0.2) date 2024-06-26 22:57:20*
%MOMM*%
%LPD*%
G01*
G04 APERTURE LIST*
%ADD10C,0.150000*%
G04 APERTURE END LIST*
D10*
%TO.C,J1*%
X22500000Y-11500500D02*
G75*
G02*
X17500000Y-11500500I-2500000J0D01*
G01*
X17500000Y-11500500D02*
G75*
G02*
X22500000Y-11500500I2500000J0D01*
G01*
%TO.C,J2*%
X36500000Y-70500500D02*
G75*
G02*
X31500000Y-70500500I-2500000J0D01*
G01*
X31500000Y-70500500D02*
G75*
G02*
X36500000Y-70500500I2500000J0D01*
G01*
X22500000Y-36500500D02*
G75*
G02*
X17500000Y-36500500I-2500000J0D01*
G01*
X17500000Y-36500500D02*
G75*
G02*
X22500000Y-36500500I2500000J0D01*
G01*
%TO.C,J1*%
X78500000Y-45500500D02*
G75*
G02*
X73500000Y-45500500I-2500000J0D01*
G01*
X73500000Y-45500500D02*
G75*
G02*
X78500000Y-45500500I2500000J0D01*
G01*
X22500000Y-45500500D02*
G75*
G02*
X17500000Y-45500500I-2500000J0D01*
G01*
X17500000Y-45500500D02*
G75*
G02*
X22500000Y-45500500I2500000J0D01*
G01*
%TO.C,J2*%
X50500000Y-36500500D02*
G75*
G02*
X45500000Y-36500500I-2500000J0D01*
G01*
X45500000Y-36500500D02*
G75*
G02*
X50500000Y-36500500I2500000J0D01*
G01*
%TO.C,J1*%
X8500000Y-11500500D02*
G75*
G02*
X3500000Y-11500500I-2500000J0D01*
G01*
X3500000Y-11500500D02*
G75*
G02*
X8500000Y-11500500I2500000J0D01*
G01*
X50500000Y-11500500D02*
G75*
G02*
X45500000Y-11500500I-2500000J0D01*
G01*
X45500000Y-11500500D02*
G75*
G02*
X50500000Y-11500500I2500000J0D01*
G01*
X78500000Y-11500500D02*
G75*
G02*
X73500000Y-11500500I-2500000J0D01*
G01*
X73500000Y-11500500D02*
G75*
G02*
X78500000Y-11500500I2500000J0D01*
G01*
%TO.C,J2*%
X8500000Y-70500500D02*
G75*
G02*
X3500000Y-70500500I-2500000J0D01*
G01*
X3500000Y-70500500D02*
G75*
G02*
X8500000Y-70500500I2500000J0D01*
G01*
%TO.C,J1*%
X64500000Y-11500500D02*
G75*
G02*
X59500000Y-11500500I-2500000J0D01*
G01*
X59500000Y-11500500D02*
G75*
G02*
X64500000Y-11500500I2500000J0D01*
G01*
%TO.C,J2*%
X64500000Y-36500500D02*
G75*
G02*
X59500000Y-36500500I-2500000J0D01*
G01*
X59500000Y-36500500D02*
G75*
G02*
X64500000Y-36500500I2500000J0D01*
G01*
%TO.C,J1*%
X92500000Y-11500500D02*
G75*
G02*
X87500000Y-11500500I-2500000J0D01*
G01*
X87500000Y-11500500D02*
G75*
G02*
X92500000Y-11500500I2500000J0D01*
G01*
X50500000Y-45500500D02*
G75*
G02*
X45500000Y-45500500I-2500000J0D01*
G01*
X45500000Y-45500500D02*
G75*
G02*
X50500000Y-45500500I2500000J0D01*
G01*
%TO.C,J2*%
X92500000Y-70500500D02*
G75*
G02*
X87500000Y-70500500I-2500000J0D01*
G01*
X87500000Y-70500500D02*
G75*
G02*
X92500000Y-70500500I2500000J0D01*
G01*
%TO.C,J1*%
X36500000Y-11500500D02*
G75*
G02*
X31500000Y-11500500I-2500000J0D01*
G01*
X31500000Y-11500500D02*
G75*
G02*
X36500000Y-11500500I2500000J0D01*
G01*
X64500000Y-45500500D02*
G75*
G02*
X59500000Y-45500500I-2500000J0D01*
G01*
X59500000Y-45500500D02*
G75*
G02*
X64500000Y-45500500I2500000J0D01*
G01*
X92500000Y-45500500D02*
G75*
G02*
X87500000Y-45500500I-2500000J0D01*
G01*
X87500000Y-45500500D02*
G75*
G02*
X92500000Y-45500500I2500000J0D01*
G01*
%TO.C,J2*%
X64500000Y-70500500D02*
G75*
G02*
X59500000Y-70500500I-2500000J0D01*
G01*
X59500000Y-70500500D02*
G75*
G02*
X64500000Y-70500500I2500000J0D01*
G01*
X92500000Y-36500500D02*
G75*
G02*
X87500000Y-36500500I-2500000J0D01*
G01*
X87500000Y-36500500D02*
G75*
G02*
X92500000Y-36500500I2500000J0D01*
G01*
X50500000Y-70500500D02*
G75*
G02*
X45500000Y-70500500I-2500000J0D01*
G01*
X45500000Y-70500500D02*
G75*
G02*
X50500000Y-70500500I2500000J0D01*
G01*
X22500000Y-70500500D02*
G75*
G02*
X17500000Y-70500500I-2500000J0D01*
G01*
X17500000Y-70500500D02*
G75*
G02*
X22500000Y-70500500I2500000J0D01*
G01*
X8500000Y-36500500D02*
G75*
G02*
X3500000Y-36500500I-2500000J0D01*
G01*
X3500000Y-36500500D02*
G75*
G02*
X8500000Y-36500500I2500000J0D01*
G01*
X78500000Y-70500500D02*
G75*
G02*
X73500000Y-70500500I-2500000J0D01*
G01*
X73500000Y-70500500D02*
G75*
G02*
X78500000Y-70500500I2500000J0D01*
G01*
%TO.C,J1*%
X8500000Y-45500500D02*
G75*
G02*
X3500000Y-45500500I-2500000J0D01*
G01*
X3500000Y-45500500D02*
G75*
G02*
X8500000Y-45500500I2500000J0D01*
G01*
X36500000Y-45500500D02*
G75*
G02*
X31500000Y-45500500I-2500000J0D01*
G01*
X31500000Y-45500500D02*
G75*
G02*
X36500000Y-45500500I2500000J0D01*
G01*
%TO.C,J2*%
X78500000Y-36500500D02*
G75*
G02*
X73500000Y-36500500I-2500000J0D01*
G01*
X73500000Y-36500500D02*
G75*
G02*
X78500000Y-36500500I2500000J0D01*
G01*
X36500000Y-36500500D02*
G75*
G02*
X31500000Y-36500500I-2500000J0D01*
G01*
X31500000Y-36500500D02*
G75*
G02*
X36500000Y-36500500I2500000J0D01*
G01*
%TD*%
M02*
