%TF.GenerationSoftware,KiCad,Pcbnew,8.0.2*%
%TF.CreationDate,2024-06-26T22:57:20+07:00*%
%TF.ProjectId,Capacitor_Electrolyte_1000uF_25V_Panel,43617061-6369-4746-9f72-5f456c656374,rev?*%
%TF.SameCoordinates,Original*%
%TF.FileFunction,Legend,Top*%
%TF.FilePolarity,Positive*%
%FSLAX46Y46*%
G04 Gerber Fmt 4.6, Leading zero omitted, Abs format (unit mm)*
G04 Created by KiCad (PCBNEW 8.0.2) date 2024-06-26 22:57:20*
%MOMM*%
%LPD*%
G01*
G04 APERTURE LIST*
%ADD10C,0.250000*%
%ADD11C,0.700000*%
%ADD12C,1.000000*%
%ADD13C,0.120000*%
%ADD14C,4.000000*%
%ADD15R,2.000000X2.000000*%
%ADD16C,2.000000*%
G04 APERTURE END LIST*
D10*
X87140663Y-50555921D02*
X88664473Y-50555921D01*
X87902568Y-51317826D02*
X87902568Y-49794016D01*
X59140663Y-16555921D02*
X60664473Y-16555921D01*
X59902568Y-17317826D02*
X59902568Y-15794016D01*
X73140663Y-31188244D02*
X74664473Y-31188244D01*
X31140663Y-50555921D02*
X32664473Y-50555921D01*
X31902568Y-51317826D02*
X31902568Y-49794016D01*
X17140663Y-50555921D02*
X18664473Y-50555921D01*
X17902568Y-51317826D02*
X17902568Y-49794016D01*
X17140663Y-65188244D02*
X18664473Y-65188244D01*
X3140663Y-16555921D02*
X4664473Y-16555921D01*
X3902568Y-17317826D02*
X3902568Y-15794016D01*
X31140663Y-16555921D02*
X32664473Y-16555921D01*
X31902568Y-17317826D02*
X31902568Y-15794016D01*
X73140663Y-16555921D02*
X74664473Y-16555921D01*
X73902568Y-17317826D02*
X73902568Y-15794016D01*
X87140663Y-65188244D02*
X88664473Y-65188244D01*
X59140663Y-50555921D02*
X60664473Y-50555921D01*
X59902568Y-51317826D02*
X59902568Y-49794016D01*
X59140663Y-31188244D02*
X60664473Y-31188244D01*
X87140663Y-16555921D02*
X88664473Y-16555921D01*
X87902568Y-17317826D02*
X87902568Y-15794016D01*
X45140663Y-50555921D02*
X46664473Y-50555921D01*
X45902568Y-51317826D02*
X45902568Y-49794016D01*
X73140663Y-50555921D02*
X74664473Y-50555921D01*
X73902568Y-51317826D02*
X73902568Y-49794016D01*
X59140663Y-65188244D02*
X60664473Y-65188244D01*
X31140663Y-65188244D02*
X32664473Y-65188244D01*
X73140663Y-65188244D02*
X74664473Y-65188244D01*
X45140663Y-65188244D02*
X46664473Y-65188244D01*
X17140663Y-16555921D02*
X18664473Y-16555921D01*
X17902568Y-17317826D02*
X17902568Y-15794016D01*
X87140663Y-31188244D02*
X88664473Y-31188244D01*
X3140663Y-50555921D02*
X4664473Y-50555921D01*
X3902568Y-51317826D02*
X3902568Y-49794016D01*
X31140663Y-31188244D02*
X32664473Y-31188244D01*
X45140663Y-16555921D02*
X46664473Y-16555921D01*
X45902568Y-17317826D02*
X45902568Y-15794016D01*
X3140663Y-65188244D02*
X4664473Y-65188244D01*
X3140663Y-31188244D02*
X4664473Y-31188244D01*
X45140663Y-31188244D02*
X46664473Y-31188244D01*
X17140663Y-31188244D02*
X18664473Y-31188244D01*
D11*
X78350000Y-70500500D02*
G75*
G02*
X73650000Y-70500500I-2350000J0D01*
G01*
X73650000Y-70500500D02*
G75*
G02*
X78350000Y-70500500I2350000J0D01*
G01*
D12*
X48000000Y-61700500D02*
X48000000Y-68000500D01*
X6000000Y-20600500D02*
X6000000Y-14000500D01*
X34000000Y-27700500D02*
X34000000Y-34000500D01*
D11*
X92350000Y-11500500D02*
G75*
G02*
X87650000Y-11500500I-2350000J0D01*
G01*
X87650000Y-11500500D02*
G75*
G02*
X92350000Y-11500500I2350000J0D01*
G01*
X78350000Y-11500500D02*
G75*
G02*
X73650000Y-11500500I-2350000J0D01*
G01*
X73650000Y-11500500D02*
G75*
G02*
X78350000Y-11500500I2350000J0D01*
G01*
X92350000Y-70500500D02*
G75*
G02*
X87650000Y-70500500I-2350000J0D01*
G01*
X87650000Y-70500500D02*
G75*
G02*
X92350000Y-70500500I2350000J0D01*
G01*
X64350000Y-70500500D02*
G75*
G02*
X59650000Y-70500500I-2350000J0D01*
G01*
X59650000Y-70500500D02*
G75*
G02*
X64350000Y-70500500I2350000J0D01*
G01*
X92350000Y-45500500D02*
G75*
G02*
X87650000Y-45500500I-2350000J0D01*
G01*
X87650000Y-45500500D02*
G75*
G02*
X92350000Y-45500500I2350000J0D01*
G01*
D12*
X34000000Y-20600500D02*
X34000000Y-14000500D01*
X34000000Y-61700500D02*
X34000000Y-68000500D01*
D11*
X22350000Y-45500500D02*
G75*
G02*
X17650000Y-45500500I-2350000J0D01*
G01*
X17650000Y-45500500D02*
G75*
G02*
X22350000Y-45500500I2350000J0D01*
G01*
X92350000Y-36500500D02*
G75*
G02*
X87650000Y-36500500I-2350000J0D01*
G01*
X87650000Y-36500500D02*
G75*
G02*
X92350000Y-36500500I2350000J0D01*
G01*
X22350000Y-11500500D02*
G75*
G02*
X17650000Y-11500500I-2350000J0D01*
G01*
X17650000Y-11500500D02*
G75*
G02*
X22350000Y-11500500I2350000J0D01*
G01*
D12*
X90000000Y-20600500D02*
X90000000Y-14000500D01*
X20000000Y-54600500D02*
X20000000Y-48000500D01*
D11*
X64350000Y-11500500D02*
G75*
G02*
X59650000Y-11500500I-2350000J0D01*
G01*
X59650000Y-11500500D02*
G75*
G02*
X64350000Y-11500500I2350000J0D01*
G01*
X50350000Y-70500500D02*
G75*
G02*
X45650000Y-70500500I-2350000J0D01*
G01*
X45650000Y-70500500D02*
G75*
G02*
X50350000Y-70500500I2350000J0D01*
G01*
D12*
X76000000Y-27700500D02*
X76000000Y-34000500D01*
X20000000Y-27700500D02*
X20000000Y-34000500D01*
X20000000Y-20600500D02*
X20000000Y-14000500D01*
D11*
X50350000Y-11500500D02*
G75*
G02*
X45650000Y-11500500I-2350000J0D01*
G01*
X45650000Y-11500500D02*
G75*
G02*
X50350000Y-11500500I2350000J0D01*
G01*
D12*
X48000000Y-27700500D02*
X48000000Y-34000500D01*
D11*
X22350000Y-36500500D02*
G75*
G02*
X17650000Y-36500500I-2350000J0D01*
G01*
X17650000Y-36500500D02*
G75*
G02*
X22350000Y-36500500I2350000J0D01*
G01*
D12*
X90000000Y-27700500D02*
X90000000Y-34000500D01*
X62000000Y-54600500D02*
X62000000Y-48000500D01*
D11*
X64350000Y-36500500D02*
G75*
G02*
X59650000Y-36500500I-2350000J0D01*
G01*
X59650000Y-36500500D02*
G75*
G02*
X64350000Y-36500500I2350000J0D01*
G01*
D12*
X48000000Y-20600500D02*
X48000000Y-14000500D01*
X20000000Y-61700500D02*
X20000000Y-68000500D01*
X90000000Y-61700500D02*
X90000000Y-68000500D01*
D11*
X64350000Y-45500500D02*
G75*
G02*
X59650000Y-45500500I-2350000J0D01*
G01*
X59650000Y-45500500D02*
G75*
G02*
X64350000Y-45500500I2350000J0D01*
G01*
D12*
X6000000Y-61700500D02*
X6000000Y-68000500D01*
X6000000Y-54600500D02*
X6000000Y-48000500D01*
X76000000Y-20600500D02*
X76000000Y-14000500D01*
D11*
X50350000Y-45500500D02*
G75*
G02*
X45650000Y-45500500I-2350000J0D01*
G01*
X45650000Y-45500500D02*
G75*
G02*
X50350000Y-45500500I2350000J0D01*
G01*
X22350000Y-70500500D02*
G75*
G02*
X17650000Y-70500500I-2350000J0D01*
G01*
X17650000Y-70500500D02*
G75*
G02*
X22350000Y-70500500I2350000J0D01*
G01*
X50350000Y-36500500D02*
G75*
G02*
X45650000Y-36500500I-2350000J0D01*
G01*
X45650000Y-36500500D02*
G75*
G02*
X50350000Y-36500500I2350000J0D01*
G01*
X78350000Y-36500500D02*
G75*
G02*
X73650000Y-36500500I-2350000J0D01*
G01*
X73650000Y-36500500D02*
G75*
G02*
X78350000Y-36500500I2350000J0D01*
G01*
D12*
X34000000Y-54600500D02*
X34000000Y-48000500D01*
D11*
X8350000Y-11500500D02*
G75*
G02*
X3650000Y-11500500I-2350000J0D01*
G01*
X3650000Y-11500500D02*
G75*
G02*
X8350000Y-11500500I2350000J0D01*
G01*
X36350000Y-11500500D02*
G75*
G02*
X31650000Y-11500500I-2350000J0D01*
G01*
X31650000Y-11500500D02*
G75*
G02*
X36350000Y-11500500I2350000J0D01*
G01*
X36350000Y-45500500D02*
G75*
G02*
X31650000Y-45500500I-2350000J0D01*
G01*
X31650000Y-45500500D02*
G75*
G02*
X36350000Y-45500500I2350000J0D01*
G01*
X8350000Y-45500500D02*
G75*
G02*
X3650000Y-45500500I-2350000J0D01*
G01*
X3650000Y-45500500D02*
G75*
G02*
X8350000Y-45500500I2350000J0D01*
G01*
X8350000Y-70500500D02*
G75*
G02*
X3650000Y-70500500I-2350000J0D01*
G01*
X3650000Y-70500500D02*
G75*
G02*
X8350000Y-70500500I2350000J0D01*
G01*
X36350000Y-70500500D02*
G75*
G02*
X31650000Y-70500500I-2350000J0D01*
G01*
X31650000Y-70500500D02*
G75*
G02*
X36350000Y-70500500I2350000J0D01*
G01*
X8350000Y-36500500D02*
G75*
G02*
X3650000Y-36500500I-2350000J0D01*
G01*
X3650000Y-36500500D02*
G75*
G02*
X8350000Y-36500500I2350000J0D01*
G01*
X36350000Y-36500500D02*
G75*
G02*
X31650000Y-36500500I-2350000J0D01*
G01*
X31650000Y-36500500D02*
G75*
G02*
X36350000Y-36500500I2350000J0D01*
G01*
D12*
X62000000Y-61700500D02*
X62000000Y-68000500D01*
X76000000Y-54600500D02*
X76000000Y-48000500D01*
X62000000Y-27700500D02*
X62000000Y-34000500D01*
X76000000Y-61700500D02*
X76000000Y-68000500D01*
X6000000Y-27700500D02*
X6000000Y-34000500D01*
X90000000Y-54600500D02*
X90000000Y-48000500D01*
X48000000Y-54600500D02*
X48000000Y-48000500D01*
X62000000Y-20600500D02*
X62000000Y-14000500D01*
D11*
X78350000Y-45500500D02*
G75*
G02*
X73650000Y-45500500I-2350000J0D01*
G01*
X73650000Y-45500500D02*
G75*
G02*
X78350000Y-45500500I2350000J0D01*
G01*
D13*
%TO.C,C1*%
X18759000Y-59413823D02*
X15082000Y-59413823D01*
X18759000Y-59453823D02*
X15093000Y-59453823D01*
X18759000Y-59493823D02*
X15103000Y-59493823D01*
X18759000Y-59533823D02*
X15115000Y-59533823D01*
X18759000Y-59573823D02*
X15126000Y-59573823D01*
X18759000Y-59613823D02*
X15138000Y-59613823D01*
X18759000Y-59653823D02*
X15150000Y-59653823D01*
X18759000Y-59693823D02*
X15163000Y-59693823D01*
X18759000Y-59733823D02*
X15176000Y-59733823D01*
X18759000Y-59773823D02*
X15189000Y-59773823D01*
X18759000Y-59813823D02*
X15203000Y-59813823D01*
X18759000Y-59853823D02*
X15217000Y-59853823D01*
X18759000Y-59893823D02*
X15232000Y-59893823D01*
X18759000Y-59933823D02*
X15246000Y-59933823D01*
X18759000Y-59973823D02*
X15262000Y-59973823D01*
X18759000Y-60013823D02*
X15277000Y-60013823D01*
X18759000Y-60053823D02*
X15293000Y-60053823D01*
X18759000Y-60093823D02*
X15310000Y-60093823D01*
X18759000Y-60133823D02*
X15326000Y-60133823D01*
X18759000Y-60173823D02*
X15343000Y-60173823D01*
X18759000Y-60213823D02*
X15361000Y-60213823D01*
X18759000Y-60253823D02*
X15379000Y-60253823D01*
X18759000Y-60293823D02*
X15397000Y-60293823D01*
X18759000Y-60333823D02*
X15416000Y-60333823D01*
X18759000Y-60373823D02*
X15436000Y-60373823D01*
X18759000Y-60413823D02*
X15455000Y-60413823D01*
X18759000Y-60453823D02*
X15475000Y-60453823D01*
X18759000Y-60493823D02*
X15496000Y-60493823D01*
X18759000Y-60533823D02*
X15517000Y-60533823D01*
X18759000Y-60573823D02*
X15538000Y-60573823D01*
X18759000Y-60613823D02*
X15560000Y-60613823D01*
X18759000Y-60653823D02*
X15583000Y-60653823D01*
X18759000Y-60693823D02*
X15605000Y-60693823D01*
X18759000Y-60733823D02*
X15629000Y-60733823D01*
X18759000Y-60773823D02*
X15653000Y-60773823D01*
X18759000Y-60813823D02*
X15677000Y-60813823D01*
X18759000Y-60853823D02*
X15702000Y-60853823D01*
X18759000Y-60893823D02*
X15727000Y-60893823D01*
X18759000Y-60933823D02*
X15753000Y-60933823D01*
X18759000Y-60973823D02*
X15779000Y-60973823D01*
X18759000Y-61013823D02*
X15806000Y-61013823D01*
X18759000Y-61053823D02*
X15834000Y-61053823D01*
X18759000Y-61093823D02*
X15862000Y-61093823D01*
X18759000Y-61133823D02*
X15890000Y-61133823D01*
X18759000Y-61173823D02*
X15920000Y-61173823D01*
X18759000Y-61213823D02*
X15950000Y-61213823D01*
X18759000Y-61253823D02*
X15980000Y-61253823D01*
X18759000Y-61293823D02*
X16011000Y-61293823D01*
X18759000Y-61333823D02*
X16043000Y-61333823D01*
X18759000Y-61373823D02*
X16075000Y-61373823D01*
X18759000Y-61413823D02*
X16108000Y-61413823D01*
X18759000Y-61453823D02*
X16142000Y-61453823D01*
X18759000Y-61493823D02*
X16176000Y-61493823D01*
X18759000Y-61533823D02*
X16211000Y-61533823D01*
X18759000Y-61573823D02*
X16247000Y-61573823D01*
X18759000Y-61613823D02*
X16284000Y-61613823D01*
X18759000Y-61653823D02*
X16321000Y-61653823D01*
X18759000Y-61693823D02*
X16360000Y-61693823D01*
X18759000Y-61733823D02*
X16399000Y-61733823D01*
X18759000Y-61773823D02*
X16439000Y-61773823D01*
X18759000Y-61813823D02*
X16480000Y-61813823D01*
X18759000Y-61853823D02*
X16522000Y-61853823D01*
X20599000Y-63213823D02*
X19401000Y-63213823D01*
X20862000Y-63173823D02*
X19138000Y-63173823D01*
X21062000Y-63133823D02*
X18938000Y-63133823D01*
X21230000Y-63093823D02*
X18770000Y-63093823D01*
X21378000Y-63053823D02*
X18622000Y-63053823D01*
X21510000Y-63013823D02*
X18490000Y-63013823D01*
X21630000Y-62973823D02*
X18370000Y-62973823D01*
X21742000Y-62933823D02*
X18258000Y-62933823D01*
X21846000Y-62893823D02*
X18154000Y-62893823D01*
X21944000Y-62853823D02*
X18056000Y-62853823D01*
X22037000Y-62813823D02*
X17963000Y-62813823D01*
X22125000Y-62773823D02*
X17875000Y-62773823D01*
X22209000Y-62733823D02*
X17791000Y-62733823D01*
X22289000Y-62693823D02*
X17711000Y-62693823D01*
X22365000Y-62653823D02*
X17635000Y-62653823D01*
X22439000Y-62613823D02*
X17561000Y-62613823D01*
X22510000Y-62573823D02*
X17490000Y-62573823D01*
X22579000Y-62533823D02*
X17421000Y-62533823D01*
X22645000Y-62493823D02*
X17355000Y-62493823D01*
X22709000Y-62453823D02*
X17291000Y-62453823D01*
X22770000Y-62413823D02*
X17230000Y-62413823D01*
X22830000Y-62373823D02*
X17170000Y-62373823D01*
X22889000Y-62333823D02*
X17111000Y-62333823D01*
X22945000Y-62293823D02*
X17055000Y-62293823D01*
X23000000Y-62253823D02*
X17000000Y-62253823D01*
X23054000Y-62213823D02*
X16946000Y-62213823D01*
X23106000Y-62173823D02*
X16894000Y-62173823D01*
X23156000Y-62133823D02*
X16844000Y-62133823D01*
X23206000Y-62093823D02*
X16794000Y-62093823D01*
X23254000Y-62053823D02*
X16746000Y-62053823D01*
X23301000Y-62013823D02*
X16699000Y-62013823D01*
X23347000Y-61973823D02*
X16653000Y-61973823D01*
X23392000Y-61933823D02*
X16608000Y-61933823D01*
X23436000Y-61893823D02*
X16564000Y-61893823D01*
X23478000Y-61853823D02*
X21241000Y-61853823D01*
X23520000Y-61813823D02*
X21241000Y-61813823D01*
X23561000Y-61773823D02*
X21241000Y-61773823D01*
X23601000Y-61733823D02*
X21241000Y-61733823D01*
X23640000Y-61693823D02*
X21241000Y-61693823D01*
X23679000Y-61653823D02*
X21241000Y-61653823D01*
X23716000Y-61613823D02*
X21241000Y-61613823D01*
X23753000Y-61573823D02*
X21241000Y-61573823D01*
X23789000Y-61533823D02*
X21241000Y-61533823D01*
X23824000Y-61493823D02*
X21241000Y-61493823D01*
X23858000Y-61453823D02*
X21241000Y-61453823D01*
X23892000Y-61413823D02*
X21241000Y-61413823D01*
X23925000Y-61373823D02*
X21241000Y-61373823D01*
X23957000Y-61333823D02*
X21241000Y-61333823D01*
X23989000Y-61293823D02*
X21241000Y-61293823D01*
X24020000Y-61253823D02*
X21241000Y-61253823D01*
X24050000Y-61213823D02*
X21241000Y-61213823D01*
X24080000Y-61173823D02*
X21241000Y-61173823D01*
X24110000Y-61133823D02*
X21241000Y-61133823D01*
X24138000Y-61093823D02*
X21241000Y-61093823D01*
X24166000Y-61053823D02*
X21241000Y-61053823D01*
X24194000Y-61013823D02*
X21241000Y-61013823D01*
X24221000Y-60973823D02*
X21241000Y-60973823D01*
X24247000Y-60933823D02*
X21241000Y-60933823D01*
X24273000Y-60893823D02*
X21241000Y-60893823D01*
X24298000Y-60853823D02*
X21241000Y-60853823D01*
X24323000Y-60813823D02*
X21241000Y-60813823D01*
X24347000Y-60773823D02*
X21241000Y-60773823D01*
X24371000Y-60733823D02*
X21241000Y-60733823D01*
X24395000Y-60693823D02*
X21241000Y-60693823D01*
X24417000Y-60653823D02*
X21241000Y-60653823D01*
X24440000Y-60613823D02*
X21241000Y-60613823D01*
X24462000Y-60573823D02*
X21241000Y-60573823D01*
X24483000Y-60533823D02*
X21241000Y-60533823D01*
X24504000Y-60493823D02*
X21241000Y-60493823D01*
X24525000Y-60453823D02*
X21241000Y-60453823D01*
X24545000Y-60413823D02*
X21241000Y-60413823D01*
X24564000Y-60373823D02*
X21241000Y-60373823D01*
X24584000Y-60333823D02*
X21241000Y-60333823D01*
X24603000Y-60293823D02*
X21241000Y-60293823D01*
X24621000Y-60253823D02*
X21241000Y-60253823D01*
X24639000Y-60213823D02*
X21241000Y-60213823D01*
X24657000Y-60173823D02*
X21241000Y-60173823D01*
X24674000Y-60133823D02*
X21241000Y-60133823D01*
X24690000Y-60093823D02*
X21241000Y-60093823D01*
X24707000Y-60053823D02*
X21241000Y-60053823D01*
X24723000Y-60013823D02*
X21241000Y-60013823D01*
X24738000Y-59973823D02*
X21241000Y-59973823D01*
X24754000Y-59933823D02*
X21241000Y-59933823D01*
X24768000Y-59893823D02*
X21241000Y-59893823D01*
X24783000Y-59853823D02*
X21241000Y-59853823D01*
X24797000Y-59813823D02*
X21241000Y-59813823D01*
X24811000Y-59773823D02*
X21241000Y-59773823D01*
X24824000Y-59733823D02*
X21241000Y-59733823D01*
X24837000Y-59693823D02*
X21241000Y-59693823D01*
X24850000Y-59653823D02*
X21241000Y-59653823D01*
X24862000Y-59613823D02*
X21241000Y-59613823D01*
X24874000Y-59573823D02*
X21241000Y-59573823D01*
X24885000Y-59533823D02*
X21241000Y-59533823D01*
X24897000Y-59493823D02*
X21241000Y-59493823D01*
X24907000Y-59453823D02*
X21241000Y-59453823D01*
X24918000Y-59413823D02*
X21241000Y-59413823D01*
X24928000Y-59373823D02*
X15072000Y-59373823D01*
X24938000Y-59333823D02*
X15062000Y-59333823D01*
X24947000Y-59293823D02*
X15053000Y-59293823D01*
X24956000Y-59253823D02*
X15044000Y-59253823D01*
X24965000Y-59213823D02*
X15035000Y-59213823D01*
X24974000Y-59173823D02*
X15026000Y-59173823D01*
X24982000Y-59133823D02*
X15018000Y-59133823D01*
X24990000Y-59093823D02*
X15010000Y-59093823D01*
X24997000Y-59053823D02*
X15003000Y-59053823D01*
X25004000Y-59013823D02*
X14996000Y-59013823D01*
X25011000Y-58973823D02*
X14989000Y-58973823D01*
X25018000Y-58933823D02*
X14982000Y-58933823D01*
X25024000Y-58893823D02*
X14976000Y-58893823D01*
X25030000Y-58853823D02*
X14970000Y-58853823D01*
X25035000Y-58812823D02*
X14965000Y-58812823D01*
X25040000Y-58772823D02*
X14960000Y-58772823D01*
X25045000Y-58732823D02*
X14955000Y-58732823D01*
X25050000Y-58692823D02*
X14950000Y-58692823D01*
X25054000Y-58652823D02*
X14946000Y-58652823D01*
X25058000Y-58612823D02*
X14942000Y-58612823D01*
X25062000Y-58572823D02*
X14938000Y-58572823D01*
X25065000Y-58532823D02*
X14935000Y-58532823D01*
X25068000Y-58492823D02*
X14932000Y-58492823D01*
X25070000Y-58452823D02*
X14930000Y-58452823D01*
X25073000Y-58412823D02*
X14927000Y-58412823D01*
X25075000Y-58372823D02*
X14925000Y-58372823D01*
X25077000Y-58332823D02*
X14923000Y-58332823D01*
X25078000Y-58292823D02*
X14922000Y-58292823D01*
X25079000Y-58252823D02*
X14921000Y-58252823D01*
X25080000Y-58132823D02*
X14920000Y-58132823D01*
X25080000Y-58172823D02*
X14920000Y-58172823D01*
X25080000Y-58212823D02*
X14920000Y-58212823D01*
X25120000Y-58132823D02*
G75*
G02*
X14880000Y-58132823I-5120000J0D01*
G01*
X14880000Y-58132823D02*
G75*
G02*
X25120000Y-58132823I5120000J0D01*
G01*
X4759000Y-59413823D02*
X1082000Y-59413823D01*
X4759000Y-59453823D02*
X1093000Y-59453823D01*
X4759000Y-59493823D02*
X1103000Y-59493823D01*
X4759000Y-59533823D02*
X1115000Y-59533823D01*
X4759000Y-59573823D02*
X1126000Y-59573823D01*
X4759000Y-59613823D02*
X1138000Y-59613823D01*
X4759000Y-59653823D02*
X1150000Y-59653823D01*
X4759000Y-59693823D02*
X1163000Y-59693823D01*
X4759000Y-59733823D02*
X1176000Y-59733823D01*
X4759000Y-59773823D02*
X1189000Y-59773823D01*
X4759000Y-59813823D02*
X1203000Y-59813823D01*
X4759000Y-59853823D02*
X1217000Y-59853823D01*
X4759000Y-59893823D02*
X1232000Y-59893823D01*
X4759000Y-59933823D02*
X1246000Y-59933823D01*
X4759000Y-59973823D02*
X1262000Y-59973823D01*
X4759000Y-60013823D02*
X1277000Y-60013823D01*
X4759000Y-60053823D02*
X1293000Y-60053823D01*
X4759000Y-60093823D02*
X1310000Y-60093823D01*
X4759000Y-60133823D02*
X1326000Y-60133823D01*
X4759000Y-60173823D02*
X1343000Y-60173823D01*
X4759000Y-60213823D02*
X1361000Y-60213823D01*
X4759000Y-60253823D02*
X1379000Y-60253823D01*
X4759000Y-60293823D02*
X1397000Y-60293823D01*
X4759000Y-60333823D02*
X1416000Y-60333823D01*
X4759000Y-60373823D02*
X1436000Y-60373823D01*
X4759000Y-60413823D02*
X1455000Y-60413823D01*
X4759000Y-60453823D02*
X1475000Y-60453823D01*
X4759000Y-60493823D02*
X1496000Y-60493823D01*
X4759000Y-60533823D02*
X1517000Y-60533823D01*
X4759000Y-60573823D02*
X1538000Y-60573823D01*
X4759000Y-60613823D02*
X1560000Y-60613823D01*
X4759000Y-60653823D02*
X1583000Y-60653823D01*
X4759000Y-60693823D02*
X1605000Y-60693823D01*
X4759000Y-60733823D02*
X1629000Y-60733823D01*
X4759000Y-60773823D02*
X1653000Y-60773823D01*
X4759000Y-60813823D02*
X1677000Y-60813823D01*
X4759000Y-60853823D02*
X1702000Y-60853823D01*
X4759000Y-60893823D02*
X1727000Y-60893823D01*
X4759000Y-60933823D02*
X1753000Y-60933823D01*
X4759000Y-60973823D02*
X1779000Y-60973823D01*
X4759000Y-61013823D02*
X1806000Y-61013823D01*
X4759000Y-61053823D02*
X1834000Y-61053823D01*
X4759000Y-61093823D02*
X1862000Y-61093823D01*
X4759000Y-61133823D02*
X1890000Y-61133823D01*
X4759000Y-61173823D02*
X1920000Y-61173823D01*
X4759000Y-61213823D02*
X1950000Y-61213823D01*
X4759000Y-61253823D02*
X1980000Y-61253823D01*
X4759000Y-61293823D02*
X2011000Y-61293823D01*
X4759000Y-61333823D02*
X2043000Y-61333823D01*
X4759000Y-61373823D02*
X2075000Y-61373823D01*
X4759000Y-61413823D02*
X2108000Y-61413823D01*
X4759000Y-61453823D02*
X2142000Y-61453823D01*
X4759000Y-61493823D02*
X2176000Y-61493823D01*
X4759000Y-61533823D02*
X2211000Y-61533823D01*
X4759000Y-61573823D02*
X2247000Y-61573823D01*
X4759000Y-61613823D02*
X2284000Y-61613823D01*
X4759000Y-61653823D02*
X2321000Y-61653823D01*
X4759000Y-61693823D02*
X2360000Y-61693823D01*
X4759000Y-61733823D02*
X2399000Y-61733823D01*
X4759000Y-61773823D02*
X2439000Y-61773823D01*
X4759000Y-61813823D02*
X2480000Y-61813823D01*
X4759000Y-61853823D02*
X2522000Y-61853823D01*
X6599000Y-63213823D02*
X5401000Y-63213823D01*
X6862000Y-63173823D02*
X5138000Y-63173823D01*
X7062000Y-63133823D02*
X4938000Y-63133823D01*
X7230000Y-63093823D02*
X4770000Y-63093823D01*
X7378000Y-63053823D02*
X4622000Y-63053823D01*
X7510000Y-63013823D02*
X4490000Y-63013823D01*
X7630000Y-62973823D02*
X4370000Y-62973823D01*
X7742000Y-62933823D02*
X4258000Y-62933823D01*
X7846000Y-62893823D02*
X4154000Y-62893823D01*
X7944000Y-62853823D02*
X4056000Y-62853823D01*
X8037000Y-62813823D02*
X3963000Y-62813823D01*
X8125000Y-62773823D02*
X3875000Y-62773823D01*
X8209000Y-62733823D02*
X3791000Y-62733823D01*
X8289000Y-62693823D02*
X3711000Y-62693823D01*
X8365000Y-62653823D02*
X3635000Y-62653823D01*
X8439000Y-62613823D02*
X3561000Y-62613823D01*
X8510000Y-62573823D02*
X3490000Y-62573823D01*
X8579000Y-62533823D02*
X3421000Y-62533823D01*
X8645000Y-62493823D02*
X3355000Y-62493823D01*
X8709000Y-62453823D02*
X3291000Y-62453823D01*
X8770000Y-62413823D02*
X3230000Y-62413823D01*
X8830000Y-62373823D02*
X3170000Y-62373823D01*
X8889000Y-62333823D02*
X3111000Y-62333823D01*
X8945000Y-62293823D02*
X3055000Y-62293823D01*
X9000000Y-62253823D02*
X3000000Y-62253823D01*
X9054000Y-62213823D02*
X2946000Y-62213823D01*
X9106000Y-62173823D02*
X2894000Y-62173823D01*
X9156000Y-62133823D02*
X2844000Y-62133823D01*
X9206000Y-62093823D02*
X2794000Y-62093823D01*
X9254000Y-62053823D02*
X2746000Y-62053823D01*
X9301000Y-62013823D02*
X2699000Y-62013823D01*
X9347000Y-61973823D02*
X2653000Y-61973823D01*
X9392000Y-61933823D02*
X2608000Y-61933823D01*
X9436000Y-61893823D02*
X2564000Y-61893823D01*
X9478000Y-61853823D02*
X7241000Y-61853823D01*
X9520000Y-61813823D02*
X7241000Y-61813823D01*
X9561000Y-61773823D02*
X7241000Y-61773823D01*
X9601000Y-61733823D02*
X7241000Y-61733823D01*
X9640000Y-61693823D02*
X7241000Y-61693823D01*
X9679000Y-61653823D02*
X7241000Y-61653823D01*
X9716000Y-61613823D02*
X7241000Y-61613823D01*
X9753000Y-61573823D02*
X7241000Y-61573823D01*
X9789000Y-61533823D02*
X7241000Y-61533823D01*
X9824000Y-61493823D02*
X7241000Y-61493823D01*
X9858000Y-61453823D02*
X7241000Y-61453823D01*
X9892000Y-61413823D02*
X7241000Y-61413823D01*
X9925000Y-61373823D02*
X7241000Y-61373823D01*
X9957000Y-61333823D02*
X7241000Y-61333823D01*
X9989000Y-61293823D02*
X7241000Y-61293823D01*
X10020000Y-61253823D02*
X7241000Y-61253823D01*
X10050000Y-61213823D02*
X7241000Y-61213823D01*
X10080000Y-61173823D02*
X7241000Y-61173823D01*
X10110000Y-61133823D02*
X7241000Y-61133823D01*
X10138000Y-61093823D02*
X7241000Y-61093823D01*
X10166000Y-61053823D02*
X7241000Y-61053823D01*
X10194000Y-61013823D02*
X7241000Y-61013823D01*
X10221000Y-60973823D02*
X7241000Y-60973823D01*
X10247000Y-60933823D02*
X7241000Y-60933823D01*
X10273000Y-60893823D02*
X7241000Y-60893823D01*
X10298000Y-60853823D02*
X7241000Y-60853823D01*
X10323000Y-60813823D02*
X7241000Y-60813823D01*
X10347000Y-60773823D02*
X7241000Y-60773823D01*
X10371000Y-60733823D02*
X7241000Y-60733823D01*
X10395000Y-60693823D02*
X7241000Y-60693823D01*
X10417000Y-60653823D02*
X7241000Y-60653823D01*
X10440000Y-60613823D02*
X7241000Y-60613823D01*
X10462000Y-60573823D02*
X7241000Y-60573823D01*
X10483000Y-60533823D02*
X7241000Y-60533823D01*
X10504000Y-60493823D02*
X7241000Y-60493823D01*
X10525000Y-60453823D02*
X7241000Y-60453823D01*
X10545000Y-60413823D02*
X7241000Y-60413823D01*
X10564000Y-60373823D02*
X7241000Y-60373823D01*
X10584000Y-60333823D02*
X7241000Y-60333823D01*
X10603000Y-60293823D02*
X7241000Y-60293823D01*
X10621000Y-60253823D02*
X7241000Y-60253823D01*
X10639000Y-60213823D02*
X7241000Y-60213823D01*
X10657000Y-60173823D02*
X7241000Y-60173823D01*
X10674000Y-60133823D02*
X7241000Y-60133823D01*
X10690000Y-60093823D02*
X7241000Y-60093823D01*
X10707000Y-60053823D02*
X7241000Y-60053823D01*
X10723000Y-60013823D02*
X7241000Y-60013823D01*
X10738000Y-59973823D02*
X7241000Y-59973823D01*
X10754000Y-59933823D02*
X7241000Y-59933823D01*
X10768000Y-59893823D02*
X7241000Y-59893823D01*
X10783000Y-59853823D02*
X7241000Y-59853823D01*
X10797000Y-59813823D02*
X7241000Y-59813823D01*
X10811000Y-59773823D02*
X7241000Y-59773823D01*
X10824000Y-59733823D02*
X7241000Y-59733823D01*
X10837000Y-59693823D02*
X7241000Y-59693823D01*
X10850000Y-59653823D02*
X7241000Y-59653823D01*
X10862000Y-59613823D02*
X7241000Y-59613823D01*
X10874000Y-59573823D02*
X7241000Y-59573823D01*
X10885000Y-59533823D02*
X7241000Y-59533823D01*
X10897000Y-59493823D02*
X7241000Y-59493823D01*
X10907000Y-59453823D02*
X7241000Y-59453823D01*
X10918000Y-59413823D02*
X7241000Y-59413823D01*
X10928000Y-59373823D02*
X1072000Y-59373823D01*
X10938000Y-59333823D02*
X1062000Y-59333823D01*
X10947000Y-59293823D02*
X1053000Y-59293823D01*
X10956000Y-59253823D02*
X1044000Y-59253823D01*
X10965000Y-59213823D02*
X1035000Y-59213823D01*
X10974000Y-59173823D02*
X1026000Y-59173823D01*
X10982000Y-59133823D02*
X1018000Y-59133823D01*
X10990000Y-59093823D02*
X1010000Y-59093823D01*
X10997000Y-59053823D02*
X1003000Y-59053823D01*
X11004000Y-59013823D02*
X996000Y-59013823D01*
X11011000Y-58973823D02*
X989000Y-58973823D01*
X11018000Y-58933823D02*
X982000Y-58933823D01*
X11024000Y-58893823D02*
X976000Y-58893823D01*
X11030000Y-58853823D02*
X970000Y-58853823D01*
X11035000Y-58812823D02*
X965000Y-58812823D01*
X11040000Y-58772823D02*
X960000Y-58772823D01*
X11045000Y-58732823D02*
X955000Y-58732823D01*
X11050000Y-58692823D02*
X950000Y-58692823D01*
X11054000Y-58652823D02*
X946000Y-58652823D01*
X11058000Y-58612823D02*
X942000Y-58612823D01*
X11062000Y-58572823D02*
X938000Y-58572823D01*
X11065000Y-58532823D02*
X935000Y-58532823D01*
X11068000Y-58492823D02*
X932000Y-58492823D01*
X11070000Y-58452823D02*
X930000Y-58452823D01*
X11073000Y-58412823D02*
X927000Y-58412823D01*
X11075000Y-58372823D02*
X925000Y-58372823D01*
X11077000Y-58332823D02*
X923000Y-58332823D01*
X11078000Y-58292823D02*
X922000Y-58292823D01*
X11079000Y-58252823D02*
X921000Y-58252823D01*
X11080000Y-58132823D02*
X920000Y-58132823D01*
X11080000Y-58172823D02*
X920000Y-58172823D01*
X11080000Y-58212823D02*
X920000Y-58212823D01*
X11120000Y-58132823D02*
G75*
G02*
X880000Y-58132823I-5120000J0D01*
G01*
X880000Y-58132823D02*
G75*
G02*
X11120000Y-58132823I5120000J0D01*
G01*
X74759000Y-59413823D02*
X71082000Y-59413823D01*
X74759000Y-59453823D02*
X71093000Y-59453823D01*
X74759000Y-59493823D02*
X71103000Y-59493823D01*
X74759000Y-59533823D02*
X71115000Y-59533823D01*
X74759000Y-59573823D02*
X71126000Y-59573823D01*
X74759000Y-59613823D02*
X71138000Y-59613823D01*
X74759000Y-59653823D02*
X71150000Y-59653823D01*
X74759000Y-59693823D02*
X71163000Y-59693823D01*
X74759000Y-59733823D02*
X71176000Y-59733823D01*
X74759000Y-59773823D02*
X71189000Y-59773823D01*
X74759000Y-59813823D02*
X71203000Y-59813823D01*
X74759000Y-59853823D02*
X71217000Y-59853823D01*
X74759000Y-59893823D02*
X71232000Y-59893823D01*
X74759000Y-59933823D02*
X71246000Y-59933823D01*
X74759000Y-59973823D02*
X71262000Y-59973823D01*
X74759000Y-60013823D02*
X71277000Y-60013823D01*
X74759000Y-60053823D02*
X71293000Y-60053823D01*
X74759000Y-60093823D02*
X71310000Y-60093823D01*
X74759000Y-60133823D02*
X71326000Y-60133823D01*
X74759000Y-60173823D02*
X71343000Y-60173823D01*
X74759000Y-60213823D02*
X71361000Y-60213823D01*
X74759000Y-60253823D02*
X71379000Y-60253823D01*
X74759000Y-60293823D02*
X71397000Y-60293823D01*
X74759000Y-60333823D02*
X71416000Y-60333823D01*
X74759000Y-60373823D02*
X71436000Y-60373823D01*
X74759000Y-60413823D02*
X71455000Y-60413823D01*
X74759000Y-60453823D02*
X71475000Y-60453823D01*
X74759000Y-60493823D02*
X71496000Y-60493823D01*
X74759000Y-60533823D02*
X71517000Y-60533823D01*
X74759000Y-60573823D02*
X71538000Y-60573823D01*
X74759000Y-60613823D02*
X71560000Y-60613823D01*
X74759000Y-60653823D02*
X71583000Y-60653823D01*
X74759000Y-60693823D02*
X71605000Y-60693823D01*
X74759000Y-60733823D02*
X71629000Y-60733823D01*
X74759000Y-60773823D02*
X71653000Y-60773823D01*
X74759000Y-60813823D02*
X71677000Y-60813823D01*
X74759000Y-60853823D02*
X71702000Y-60853823D01*
X74759000Y-60893823D02*
X71727000Y-60893823D01*
X74759000Y-60933823D02*
X71753000Y-60933823D01*
X74759000Y-60973823D02*
X71779000Y-60973823D01*
X74759000Y-61013823D02*
X71806000Y-61013823D01*
X74759000Y-61053823D02*
X71834000Y-61053823D01*
X74759000Y-61093823D02*
X71862000Y-61093823D01*
X74759000Y-61133823D02*
X71890000Y-61133823D01*
X74759000Y-61173823D02*
X71920000Y-61173823D01*
X74759000Y-61213823D02*
X71950000Y-61213823D01*
X74759000Y-61253823D02*
X71980000Y-61253823D01*
X74759000Y-61293823D02*
X72011000Y-61293823D01*
X74759000Y-61333823D02*
X72043000Y-61333823D01*
X74759000Y-61373823D02*
X72075000Y-61373823D01*
X74759000Y-61413823D02*
X72108000Y-61413823D01*
X74759000Y-61453823D02*
X72142000Y-61453823D01*
X74759000Y-61493823D02*
X72176000Y-61493823D01*
X74759000Y-61533823D02*
X72211000Y-61533823D01*
X74759000Y-61573823D02*
X72247000Y-61573823D01*
X74759000Y-61613823D02*
X72284000Y-61613823D01*
X74759000Y-61653823D02*
X72321000Y-61653823D01*
X74759000Y-61693823D02*
X72360000Y-61693823D01*
X74759000Y-61733823D02*
X72399000Y-61733823D01*
X74759000Y-61773823D02*
X72439000Y-61773823D01*
X74759000Y-61813823D02*
X72480000Y-61813823D01*
X74759000Y-61853823D02*
X72522000Y-61853823D01*
X76599000Y-63213823D02*
X75401000Y-63213823D01*
X76862000Y-63173823D02*
X75138000Y-63173823D01*
X77062000Y-63133823D02*
X74938000Y-63133823D01*
X77230000Y-63093823D02*
X74770000Y-63093823D01*
X77378000Y-63053823D02*
X74622000Y-63053823D01*
X77510000Y-63013823D02*
X74490000Y-63013823D01*
X77630000Y-62973823D02*
X74370000Y-62973823D01*
X77742000Y-62933823D02*
X74258000Y-62933823D01*
X77846000Y-62893823D02*
X74154000Y-62893823D01*
X77944000Y-62853823D02*
X74056000Y-62853823D01*
X78037000Y-62813823D02*
X73963000Y-62813823D01*
X78125000Y-62773823D02*
X73875000Y-62773823D01*
X78209000Y-62733823D02*
X73791000Y-62733823D01*
X78289000Y-62693823D02*
X73711000Y-62693823D01*
X78365000Y-62653823D02*
X73635000Y-62653823D01*
X78439000Y-62613823D02*
X73561000Y-62613823D01*
X78510000Y-62573823D02*
X73490000Y-62573823D01*
X78579000Y-62533823D02*
X73421000Y-62533823D01*
X78645000Y-62493823D02*
X73355000Y-62493823D01*
X78709000Y-62453823D02*
X73291000Y-62453823D01*
X78770000Y-62413823D02*
X73230000Y-62413823D01*
X78830000Y-62373823D02*
X73170000Y-62373823D01*
X78889000Y-62333823D02*
X73111000Y-62333823D01*
X78945000Y-62293823D02*
X73055000Y-62293823D01*
X79000000Y-62253823D02*
X73000000Y-62253823D01*
X79054000Y-62213823D02*
X72946000Y-62213823D01*
X79106000Y-62173823D02*
X72894000Y-62173823D01*
X79156000Y-62133823D02*
X72844000Y-62133823D01*
X79206000Y-62093823D02*
X72794000Y-62093823D01*
X79254000Y-62053823D02*
X72746000Y-62053823D01*
X79301000Y-62013823D02*
X72699000Y-62013823D01*
X79347000Y-61973823D02*
X72653000Y-61973823D01*
X79392000Y-61933823D02*
X72608000Y-61933823D01*
X79436000Y-61893823D02*
X72564000Y-61893823D01*
X79478000Y-61853823D02*
X77241000Y-61853823D01*
X79520000Y-61813823D02*
X77241000Y-61813823D01*
X79561000Y-61773823D02*
X77241000Y-61773823D01*
X79601000Y-61733823D02*
X77241000Y-61733823D01*
X79640000Y-61693823D02*
X77241000Y-61693823D01*
X79679000Y-61653823D02*
X77241000Y-61653823D01*
X79716000Y-61613823D02*
X77241000Y-61613823D01*
X79753000Y-61573823D02*
X77241000Y-61573823D01*
X79789000Y-61533823D02*
X77241000Y-61533823D01*
X79824000Y-61493823D02*
X77241000Y-61493823D01*
X79858000Y-61453823D02*
X77241000Y-61453823D01*
X79892000Y-61413823D02*
X77241000Y-61413823D01*
X79925000Y-61373823D02*
X77241000Y-61373823D01*
X79957000Y-61333823D02*
X77241000Y-61333823D01*
X79989000Y-61293823D02*
X77241000Y-61293823D01*
X80020000Y-61253823D02*
X77241000Y-61253823D01*
X80050000Y-61213823D02*
X77241000Y-61213823D01*
X80080000Y-61173823D02*
X77241000Y-61173823D01*
X80110000Y-61133823D02*
X77241000Y-61133823D01*
X80138000Y-61093823D02*
X77241000Y-61093823D01*
X80166000Y-61053823D02*
X77241000Y-61053823D01*
X80194000Y-61013823D02*
X77241000Y-61013823D01*
X80221000Y-60973823D02*
X77241000Y-60973823D01*
X80247000Y-60933823D02*
X77241000Y-60933823D01*
X80273000Y-60893823D02*
X77241000Y-60893823D01*
X80298000Y-60853823D02*
X77241000Y-60853823D01*
X80323000Y-60813823D02*
X77241000Y-60813823D01*
X80347000Y-60773823D02*
X77241000Y-60773823D01*
X80371000Y-60733823D02*
X77241000Y-60733823D01*
X80395000Y-60693823D02*
X77241000Y-60693823D01*
X80417000Y-60653823D02*
X77241000Y-60653823D01*
X80440000Y-60613823D02*
X77241000Y-60613823D01*
X80462000Y-60573823D02*
X77241000Y-60573823D01*
X80483000Y-60533823D02*
X77241000Y-60533823D01*
X80504000Y-60493823D02*
X77241000Y-60493823D01*
X80525000Y-60453823D02*
X77241000Y-60453823D01*
X80545000Y-60413823D02*
X77241000Y-60413823D01*
X80564000Y-60373823D02*
X77241000Y-60373823D01*
X80584000Y-60333823D02*
X77241000Y-60333823D01*
X80603000Y-60293823D02*
X77241000Y-60293823D01*
X80621000Y-60253823D02*
X77241000Y-60253823D01*
X80639000Y-60213823D02*
X77241000Y-60213823D01*
X80657000Y-60173823D02*
X77241000Y-60173823D01*
X80674000Y-60133823D02*
X77241000Y-60133823D01*
X80690000Y-60093823D02*
X77241000Y-60093823D01*
X80707000Y-60053823D02*
X77241000Y-60053823D01*
X80723000Y-60013823D02*
X77241000Y-60013823D01*
X80738000Y-59973823D02*
X77241000Y-59973823D01*
X80754000Y-59933823D02*
X77241000Y-59933823D01*
X80768000Y-59893823D02*
X77241000Y-59893823D01*
X80783000Y-59853823D02*
X77241000Y-59853823D01*
X80797000Y-59813823D02*
X77241000Y-59813823D01*
X80811000Y-59773823D02*
X77241000Y-59773823D01*
X80824000Y-59733823D02*
X77241000Y-59733823D01*
X80837000Y-59693823D02*
X77241000Y-59693823D01*
X80850000Y-59653823D02*
X77241000Y-59653823D01*
X80862000Y-59613823D02*
X77241000Y-59613823D01*
X80874000Y-59573823D02*
X77241000Y-59573823D01*
X80885000Y-59533823D02*
X77241000Y-59533823D01*
X80897000Y-59493823D02*
X77241000Y-59493823D01*
X80907000Y-59453823D02*
X77241000Y-59453823D01*
X80918000Y-59413823D02*
X77241000Y-59413823D01*
X80928000Y-59373823D02*
X71072000Y-59373823D01*
X80938000Y-59333823D02*
X71062000Y-59333823D01*
X80947000Y-59293823D02*
X71053000Y-59293823D01*
X80956000Y-59253823D02*
X71044000Y-59253823D01*
X80965000Y-59213823D02*
X71035000Y-59213823D01*
X80974000Y-59173823D02*
X71026000Y-59173823D01*
X80982000Y-59133823D02*
X71018000Y-59133823D01*
X80990000Y-59093823D02*
X71010000Y-59093823D01*
X80997000Y-59053823D02*
X71003000Y-59053823D01*
X81004000Y-59013823D02*
X70996000Y-59013823D01*
X81011000Y-58973823D02*
X70989000Y-58973823D01*
X81018000Y-58933823D02*
X70982000Y-58933823D01*
X81024000Y-58893823D02*
X70976000Y-58893823D01*
X81030000Y-58853823D02*
X70970000Y-58853823D01*
X81035000Y-58812823D02*
X70965000Y-58812823D01*
X81040000Y-58772823D02*
X70960000Y-58772823D01*
X81045000Y-58732823D02*
X70955000Y-58732823D01*
X81050000Y-58692823D02*
X70950000Y-58692823D01*
X81054000Y-58652823D02*
X70946000Y-58652823D01*
X81058000Y-58612823D02*
X70942000Y-58612823D01*
X81062000Y-58572823D02*
X70938000Y-58572823D01*
X81065000Y-58532823D02*
X70935000Y-58532823D01*
X81068000Y-58492823D02*
X70932000Y-58492823D01*
X81070000Y-58452823D02*
X70930000Y-58452823D01*
X81073000Y-58412823D02*
X70927000Y-58412823D01*
X81075000Y-58372823D02*
X70925000Y-58372823D01*
X81077000Y-58332823D02*
X70923000Y-58332823D01*
X81078000Y-58292823D02*
X70922000Y-58292823D01*
X81079000Y-58252823D02*
X70921000Y-58252823D01*
X81080000Y-58132823D02*
X70920000Y-58132823D01*
X81080000Y-58172823D02*
X70920000Y-58172823D01*
X81080000Y-58212823D02*
X70920000Y-58212823D01*
X81120000Y-58132823D02*
G75*
G02*
X70880000Y-58132823I-5120000J0D01*
G01*
X70880000Y-58132823D02*
G75*
G02*
X81120000Y-58132823I5120000J0D01*
G01*
X32759000Y-25413823D02*
X29082000Y-25413823D01*
X32759000Y-25453823D02*
X29093000Y-25453823D01*
X32759000Y-25493823D02*
X29103000Y-25493823D01*
X32759000Y-25533823D02*
X29115000Y-25533823D01*
X32759000Y-25573823D02*
X29126000Y-25573823D01*
X32759000Y-25613823D02*
X29138000Y-25613823D01*
X32759000Y-25653823D02*
X29150000Y-25653823D01*
X32759000Y-25693823D02*
X29163000Y-25693823D01*
X32759000Y-25733823D02*
X29176000Y-25733823D01*
X32759000Y-25773823D02*
X29189000Y-25773823D01*
X32759000Y-25813823D02*
X29203000Y-25813823D01*
X32759000Y-25853823D02*
X29217000Y-25853823D01*
X32759000Y-25893823D02*
X29232000Y-25893823D01*
X32759000Y-25933823D02*
X29246000Y-25933823D01*
X32759000Y-25973823D02*
X29262000Y-25973823D01*
X32759000Y-26013823D02*
X29277000Y-26013823D01*
X32759000Y-26053823D02*
X29293000Y-26053823D01*
X32759000Y-26093823D02*
X29310000Y-26093823D01*
X32759000Y-26133823D02*
X29326000Y-26133823D01*
X32759000Y-26173823D02*
X29343000Y-26173823D01*
X32759000Y-26213823D02*
X29361000Y-26213823D01*
X32759000Y-26253823D02*
X29379000Y-26253823D01*
X32759000Y-26293823D02*
X29397000Y-26293823D01*
X32759000Y-26333823D02*
X29416000Y-26333823D01*
X32759000Y-26373823D02*
X29436000Y-26373823D01*
X32759000Y-26413823D02*
X29455000Y-26413823D01*
X32759000Y-26453823D02*
X29475000Y-26453823D01*
X32759000Y-26493823D02*
X29496000Y-26493823D01*
X32759000Y-26533823D02*
X29517000Y-26533823D01*
X32759000Y-26573823D02*
X29538000Y-26573823D01*
X32759000Y-26613823D02*
X29560000Y-26613823D01*
X32759000Y-26653823D02*
X29583000Y-26653823D01*
X32759000Y-26693823D02*
X29605000Y-26693823D01*
X32759000Y-26733823D02*
X29629000Y-26733823D01*
X32759000Y-26773823D02*
X29653000Y-26773823D01*
X32759000Y-26813823D02*
X29677000Y-26813823D01*
X32759000Y-26853823D02*
X29702000Y-26853823D01*
X32759000Y-26893823D02*
X29727000Y-26893823D01*
X32759000Y-26933823D02*
X29753000Y-26933823D01*
X32759000Y-26973823D02*
X29779000Y-26973823D01*
X32759000Y-27013823D02*
X29806000Y-27013823D01*
X32759000Y-27053823D02*
X29834000Y-27053823D01*
X32759000Y-27093823D02*
X29862000Y-27093823D01*
X32759000Y-27133823D02*
X29890000Y-27133823D01*
X32759000Y-27173823D02*
X29920000Y-27173823D01*
X32759000Y-27213823D02*
X29950000Y-27213823D01*
X32759000Y-27253823D02*
X29980000Y-27253823D01*
X32759000Y-27293823D02*
X30011000Y-27293823D01*
X32759000Y-27333823D02*
X30043000Y-27333823D01*
X32759000Y-27373823D02*
X30075000Y-27373823D01*
X32759000Y-27413823D02*
X30108000Y-27413823D01*
X32759000Y-27453823D02*
X30142000Y-27453823D01*
X32759000Y-27493823D02*
X30176000Y-27493823D01*
X32759000Y-27533823D02*
X30211000Y-27533823D01*
X32759000Y-27573823D02*
X30247000Y-27573823D01*
X32759000Y-27613823D02*
X30284000Y-27613823D01*
X32759000Y-27653823D02*
X30321000Y-27653823D01*
X32759000Y-27693823D02*
X30360000Y-27693823D01*
X32759000Y-27733823D02*
X30399000Y-27733823D01*
X32759000Y-27773823D02*
X30439000Y-27773823D01*
X32759000Y-27813823D02*
X30480000Y-27813823D01*
X32759000Y-27853823D02*
X30522000Y-27853823D01*
X34599000Y-29213823D02*
X33401000Y-29213823D01*
X34862000Y-29173823D02*
X33138000Y-29173823D01*
X35062000Y-29133823D02*
X32938000Y-29133823D01*
X35230000Y-29093823D02*
X32770000Y-29093823D01*
X35378000Y-29053823D02*
X32622000Y-29053823D01*
X35510000Y-29013823D02*
X32490000Y-29013823D01*
X35630000Y-28973823D02*
X32370000Y-28973823D01*
X35742000Y-28933823D02*
X32258000Y-28933823D01*
X35846000Y-28893823D02*
X32154000Y-28893823D01*
X35944000Y-28853823D02*
X32056000Y-28853823D01*
X36037000Y-28813823D02*
X31963000Y-28813823D01*
X36125000Y-28773823D02*
X31875000Y-28773823D01*
X36209000Y-28733823D02*
X31791000Y-28733823D01*
X36289000Y-28693823D02*
X31711000Y-28693823D01*
X36365000Y-28653823D02*
X31635000Y-28653823D01*
X36439000Y-28613823D02*
X31561000Y-28613823D01*
X36510000Y-28573823D02*
X31490000Y-28573823D01*
X36579000Y-28533823D02*
X31421000Y-28533823D01*
X36645000Y-28493823D02*
X31355000Y-28493823D01*
X36709000Y-28453823D02*
X31291000Y-28453823D01*
X36770000Y-28413823D02*
X31230000Y-28413823D01*
X36830000Y-28373823D02*
X31170000Y-28373823D01*
X36889000Y-28333823D02*
X31111000Y-28333823D01*
X36945000Y-28293823D02*
X31055000Y-28293823D01*
X37000000Y-28253823D02*
X31000000Y-28253823D01*
X37054000Y-28213823D02*
X30946000Y-28213823D01*
X37106000Y-28173823D02*
X30894000Y-28173823D01*
X37156000Y-28133823D02*
X30844000Y-28133823D01*
X37206000Y-28093823D02*
X30794000Y-28093823D01*
X37254000Y-28053823D02*
X30746000Y-28053823D01*
X37301000Y-28013823D02*
X30699000Y-28013823D01*
X37347000Y-27973823D02*
X30653000Y-27973823D01*
X37392000Y-27933823D02*
X30608000Y-27933823D01*
X37436000Y-27893823D02*
X30564000Y-27893823D01*
X37478000Y-27853823D02*
X35241000Y-27853823D01*
X37520000Y-27813823D02*
X35241000Y-27813823D01*
X37561000Y-27773823D02*
X35241000Y-27773823D01*
X37601000Y-27733823D02*
X35241000Y-27733823D01*
X37640000Y-27693823D02*
X35241000Y-27693823D01*
X37679000Y-27653823D02*
X35241000Y-27653823D01*
X37716000Y-27613823D02*
X35241000Y-27613823D01*
X37753000Y-27573823D02*
X35241000Y-27573823D01*
X37789000Y-27533823D02*
X35241000Y-27533823D01*
X37824000Y-27493823D02*
X35241000Y-27493823D01*
X37858000Y-27453823D02*
X35241000Y-27453823D01*
X37892000Y-27413823D02*
X35241000Y-27413823D01*
X37925000Y-27373823D02*
X35241000Y-27373823D01*
X37957000Y-27333823D02*
X35241000Y-27333823D01*
X37989000Y-27293823D02*
X35241000Y-27293823D01*
X38020000Y-27253823D02*
X35241000Y-27253823D01*
X38050000Y-27213823D02*
X35241000Y-27213823D01*
X38080000Y-27173823D02*
X35241000Y-27173823D01*
X38110000Y-27133823D02*
X35241000Y-27133823D01*
X38138000Y-27093823D02*
X35241000Y-27093823D01*
X38166000Y-27053823D02*
X35241000Y-27053823D01*
X38194000Y-27013823D02*
X35241000Y-27013823D01*
X38221000Y-26973823D02*
X35241000Y-26973823D01*
X38247000Y-26933823D02*
X35241000Y-26933823D01*
X38273000Y-26893823D02*
X35241000Y-26893823D01*
X38298000Y-26853823D02*
X35241000Y-26853823D01*
X38323000Y-26813823D02*
X35241000Y-26813823D01*
X38347000Y-26773823D02*
X35241000Y-26773823D01*
X38371000Y-26733823D02*
X35241000Y-26733823D01*
X38395000Y-26693823D02*
X35241000Y-26693823D01*
X38417000Y-26653823D02*
X35241000Y-26653823D01*
X38440000Y-26613823D02*
X35241000Y-26613823D01*
X38462000Y-26573823D02*
X35241000Y-26573823D01*
X38483000Y-26533823D02*
X35241000Y-26533823D01*
X38504000Y-26493823D02*
X35241000Y-26493823D01*
X38525000Y-26453823D02*
X35241000Y-26453823D01*
X38545000Y-26413823D02*
X35241000Y-26413823D01*
X38564000Y-26373823D02*
X35241000Y-26373823D01*
X38584000Y-26333823D02*
X35241000Y-26333823D01*
X38603000Y-26293823D02*
X35241000Y-26293823D01*
X38621000Y-26253823D02*
X35241000Y-26253823D01*
X38639000Y-26213823D02*
X35241000Y-26213823D01*
X38657000Y-26173823D02*
X35241000Y-26173823D01*
X38674000Y-26133823D02*
X35241000Y-26133823D01*
X38690000Y-26093823D02*
X35241000Y-26093823D01*
X38707000Y-26053823D02*
X35241000Y-26053823D01*
X38723000Y-26013823D02*
X35241000Y-26013823D01*
X38738000Y-25973823D02*
X35241000Y-25973823D01*
X38754000Y-25933823D02*
X35241000Y-25933823D01*
X38768000Y-25893823D02*
X35241000Y-25893823D01*
X38783000Y-25853823D02*
X35241000Y-25853823D01*
X38797000Y-25813823D02*
X35241000Y-25813823D01*
X38811000Y-25773823D02*
X35241000Y-25773823D01*
X38824000Y-25733823D02*
X35241000Y-25733823D01*
X38837000Y-25693823D02*
X35241000Y-25693823D01*
X38850000Y-25653823D02*
X35241000Y-25653823D01*
X38862000Y-25613823D02*
X35241000Y-25613823D01*
X38874000Y-25573823D02*
X35241000Y-25573823D01*
X38885000Y-25533823D02*
X35241000Y-25533823D01*
X38897000Y-25493823D02*
X35241000Y-25493823D01*
X38907000Y-25453823D02*
X35241000Y-25453823D01*
X38918000Y-25413823D02*
X35241000Y-25413823D01*
X38928000Y-25373823D02*
X29072000Y-25373823D01*
X38938000Y-25333823D02*
X29062000Y-25333823D01*
X38947000Y-25293823D02*
X29053000Y-25293823D01*
X38956000Y-25253823D02*
X29044000Y-25253823D01*
X38965000Y-25213823D02*
X29035000Y-25213823D01*
X38974000Y-25173823D02*
X29026000Y-25173823D01*
X38982000Y-25133823D02*
X29018000Y-25133823D01*
X38990000Y-25093823D02*
X29010000Y-25093823D01*
X38997000Y-25053823D02*
X29003000Y-25053823D01*
X39004000Y-25013823D02*
X28996000Y-25013823D01*
X39011000Y-24973823D02*
X28989000Y-24973823D01*
X39018000Y-24933823D02*
X28982000Y-24933823D01*
X39024000Y-24893823D02*
X28976000Y-24893823D01*
X39030000Y-24853823D02*
X28970000Y-24853823D01*
X39035000Y-24812823D02*
X28965000Y-24812823D01*
X39040000Y-24772823D02*
X28960000Y-24772823D01*
X39045000Y-24732823D02*
X28955000Y-24732823D01*
X39050000Y-24692823D02*
X28950000Y-24692823D01*
X39054000Y-24652823D02*
X28946000Y-24652823D01*
X39058000Y-24612823D02*
X28942000Y-24612823D01*
X39062000Y-24572823D02*
X28938000Y-24572823D01*
X39065000Y-24532823D02*
X28935000Y-24532823D01*
X39068000Y-24492823D02*
X28932000Y-24492823D01*
X39070000Y-24452823D02*
X28930000Y-24452823D01*
X39073000Y-24412823D02*
X28927000Y-24412823D01*
X39075000Y-24372823D02*
X28925000Y-24372823D01*
X39077000Y-24332823D02*
X28923000Y-24332823D01*
X39078000Y-24292823D02*
X28922000Y-24292823D01*
X39079000Y-24252823D02*
X28921000Y-24252823D01*
X39080000Y-24132823D02*
X28920000Y-24132823D01*
X39080000Y-24172823D02*
X28920000Y-24172823D01*
X39080000Y-24212823D02*
X28920000Y-24212823D01*
X39120000Y-24132823D02*
G75*
G02*
X28880000Y-24132823I-5120000J0D01*
G01*
X28880000Y-24132823D02*
G75*
G02*
X39120000Y-24132823I5120000J0D01*
G01*
X88759000Y-59413823D02*
X85082000Y-59413823D01*
X88759000Y-59453823D02*
X85093000Y-59453823D01*
X88759000Y-59493823D02*
X85103000Y-59493823D01*
X88759000Y-59533823D02*
X85115000Y-59533823D01*
X88759000Y-59573823D02*
X85126000Y-59573823D01*
X88759000Y-59613823D02*
X85138000Y-59613823D01*
X88759000Y-59653823D02*
X85150000Y-59653823D01*
X88759000Y-59693823D02*
X85163000Y-59693823D01*
X88759000Y-59733823D02*
X85176000Y-59733823D01*
X88759000Y-59773823D02*
X85189000Y-59773823D01*
X88759000Y-59813823D02*
X85203000Y-59813823D01*
X88759000Y-59853823D02*
X85217000Y-59853823D01*
X88759000Y-59893823D02*
X85232000Y-59893823D01*
X88759000Y-59933823D02*
X85246000Y-59933823D01*
X88759000Y-59973823D02*
X85262000Y-59973823D01*
X88759000Y-60013823D02*
X85277000Y-60013823D01*
X88759000Y-60053823D02*
X85293000Y-60053823D01*
X88759000Y-60093823D02*
X85310000Y-60093823D01*
X88759000Y-60133823D02*
X85326000Y-60133823D01*
X88759000Y-60173823D02*
X85343000Y-60173823D01*
X88759000Y-60213823D02*
X85361000Y-60213823D01*
X88759000Y-60253823D02*
X85379000Y-60253823D01*
X88759000Y-60293823D02*
X85397000Y-60293823D01*
X88759000Y-60333823D02*
X85416000Y-60333823D01*
X88759000Y-60373823D02*
X85436000Y-60373823D01*
X88759000Y-60413823D02*
X85455000Y-60413823D01*
X88759000Y-60453823D02*
X85475000Y-60453823D01*
X88759000Y-60493823D02*
X85496000Y-60493823D01*
X88759000Y-60533823D02*
X85517000Y-60533823D01*
X88759000Y-60573823D02*
X85538000Y-60573823D01*
X88759000Y-60613823D02*
X85560000Y-60613823D01*
X88759000Y-60653823D02*
X85583000Y-60653823D01*
X88759000Y-60693823D02*
X85605000Y-60693823D01*
X88759000Y-60733823D02*
X85629000Y-60733823D01*
X88759000Y-60773823D02*
X85653000Y-60773823D01*
X88759000Y-60813823D02*
X85677000Y-60813823D01*
X88759000Y-60853823D02*
X85702000Y-60853823D01*
X88759000Y-60893823D02*
X85727000Y-60893823D01*
X88759000Y-60933823D02*
X85753000Y-60933823D01*
X88759000Y-60973823D02*
X85779000Y-60973823D01*
X88759000Y-61013823D02*
X85806000Y-61013823D01*
X88759000Y-61053823D02*
X85834000Y-61053823D01*
X88759000Y-61093823D02*
X85862000Y-61093823D01*
X88759000Y-61133823D02*
X85890000Y-61133823D01*
X88759000Y-61173823D02*
X85920000Y-61173823D01*
X88759000Y-61213823D02*
X85950000Y-61213823D01*
X88759000Y-61253823D02*
X85980000Y-61253823D01*
X88759000Y-61293823D02*
X86011000Y-61293823D01*
X88759000Y-61333823D02*
X86043000Y-61333823D01*
X88759000Y-61373823D02*
X86075000Y-61373823D01*
X88759000Y-61413823D02*
X86108000Y-61413823D01*
X88759000Y-61453823D02*
X86142000Y-61453823D01*
X88759000Y-61493823D02*
X86176000Y-61493823D01*
X88759000Y-61533823D02*
X86211000Y-61533823D01*
X88759000Y-61573823D02*
X86247000Y-61573823D01*
X88759000Y-61613823D02*
X86284000Y-61613823D01*
X88759000Y-61653823D02*
X86321000Y-61653823D01*
X88759000Y-61693823D02*
X86360000Y-61693823D01*
X88759000Y-61733823D02*
X86399000Y-61733823D01*
X88759000Y-61773823D02*
X86439000Y-61773823D01*
X88759000Y-61813823D02*
X86480000Y-61813823D01*
X88759000Y-61853823D02*
X86522000Y-61853823D01*
X90599000Y-63213823D02*
X89401000Y-63213823D01*
X90862000Y-63173823D02*
X89138000Y-63173823D01*
X91062000Y-63133823D02*
X88938000Y-63133823D01*
X91230000Y-63093823D02*
X88770000Y-63093823D01*
X91378000Y-63053823D02*
X88622000Y-63053823D01*
X91510000Y-63013823D02*
X88490000Y-63013823D01*
X91630000Y-62973823D02*
X88370000Y-62973823D01*
X91742000Y-62933823D02*
X88258000Y-62933823D01*
X91846000Y-62893823D02*
X88154000Y-62893823D01*
X91944000Y-62853823D02*
X88056000Y-62853823D01*
X92037000Y-62813823D02*
X87963000Y-62813823D01*
X92125000Y-62773823D02*
X87875000Y-62773823D01*
X92209000Y-62733823D02*
X87791000Y-62733823D01*
X92289000Y-62693823D02*
X87711000Y-62693823D01*
X92365000Y-62653823D02*
X87635000Y-62653823D01*
X92439000Y-62613823D02*
X87561000Y-62613823D01*
X92510000Y-62573823D02*
X87490000Y-62573823D01*
X92579000Y-62533823D02*
X87421000Y-62533823D01*
X92645000Y-62493823D02*
X87355000Y-62493823D01*
X92709000Y-62453823D02*
X87291000Y-62453823D01*
X92770000Y-62413823D02*
X87230000Y-62413823D01*
X92830000Y-62373823D02*
X87170000Y-62373823D01*
X92889000Y-62333823D02*
X87111000Y-62333823D01*
X92945000Y-62293823D02*
X87055000Y-62293823D01*
X93000000Y-62253823D02*
X87000000Y-62253823D01*
X93054000Y-62213823D02*
X86946000Y-62213823D01*
X93106000Y-62173823D02*
X86894000Y-62173823D01*
X93156000Y-62133823D02*
X86844000Y-62133823D01*
X93206000Y-62093823D02*
X86794000Y-62093823D01*
X93254000Y-62053823D02*
X86746000Y-62053823D01*
X93301000Y-62013823D02*
X86699000Y-62013823D01*
X93347000Y-61973823D02*
X86653000Y-61973823D01*
X93392000Y-61933823D02*
X86608000Y-61933823D01*
X93436000Y-61893823D02*
X86564000Y-61893823D01*
X93478000Y-61853823D02*
X91241000Y-61853823D01*
X93520000Y-61813823D02*
X91241000Y-61813823D01*
X93561000Y-61773823D02*
X91241000Y-61773823D01*
X93601000Y-61733823D02*
X91241000Y-61733823D01*
X93640000Y-61693823D02*
X91241000Y-61693823D01*
X93679000Y-61653823D02*
X91241000Y-61653823D01*
X93716000Y-61613823D02*
X91241000Y-61613823D01*
X93753000Y-61573823D02*
X91241000Y-61573823D01*
X93789000Y-61533823D02*
X91241000Y-61533823D01*
X93824000Y-61493823D02*
X91241000Y-61493823D01*
X93858000Y-61453823D02*
X91241000Y-61453823D01*
X93892000Y-61413823D02*
X91241000Y-61413823D01*
X93925000Y-61373823D02*
X91241000Y-61373823D01*
X93957000Y-61333823D02*
X91241000Y-61333823D01*
X93989000Y-61293823D02*
X91241000Y-61293823D01*
X94020000Y-61253823D02*
X91241000Y-61253823D01*
X94050000Y-61213823D02*
X91241000Y-61213823D01*
X94080000Y-61173823D02*
X91241000Y-61173823D01*
X94110000Y-61133823D02*
X91241000Y-61133823D01*
X94138000Y-61093823D02*
X91241000Y-61093823D01*
X94166000Y-61053823D02*
X91241000Y-61053823D01*
X94194000Y-61013823D02*
X91241000Y-61013823D01*
X94221000Y-60973823D02*
X91241000Y-60973823D01*
X94247000Y-60933823D02*
X91241000Y-60933823D01*
X94273000Y-60893823D02*
X91241000Y-60893823D01*
X94298000Y-60853823D02*
X91241000Y-60853823D01*
X94323000Y-60813823D02*
X91241000Y-60813823D01*
X94347000Y-60773823D02*
X91241000Y-60773823D01*
X94371000Y-60733823D02*
X91241000Y-60733823D01*
X94395000Y-60693823D02*
X91241000Y-60693823D01*
X94417000Y-60653823D02*
X91241000Y-60653823D01*
X94440000Y-60613823D02*
X91241000Y-60613823D01*
X94462000Y-60573823D02*
X91241000Y-60573823D01*
X94483000Y-60533823D02*
X91241000Y-60533823D01*
X94504000Y-60493823D02*
X91241000Y-60493823D01*
X94525000Y-60453823D02*
X91241000Y-60453823D01*
X94545000Y-60413823D02*
X91241000Y-60413823D01*
X94564000Y-60373823D02*
X91241000Y-60373823D01*
X94584000Y-60333823D02*
X91241000Y-60333823D01*
X94603000Y-60293823D02*
X91241000Y-60293823D01*
X94621000Y-60253823D02*
X91241000Y-60253823D01*
X94639000Y-60213823D02*
X91241000Y-60213823D01*
X94657000Y-60173823D02*
X91241000Y-60173823D01*
X94674000Y-60133823D02*
X91241000Y-60133823D01*
X94690000Y-60093823D02*
X91241000Y-60093823D01*
X94707000Y-60053823D02*
X91241000Y-60053823D01*
X94723000Y-60013823D02*
X91241000Y-60013823D01*
X94738000Y-59973823D02*
X91241000Y-59973823D01*
X94754000Y-59933823D02*
X91241000Y-59933823D01*
X94768000Y-59893823D02*
X91241000Y-59893823D01*
X94783000Y-59853823D02*
X91241000Y-59853823D01*
X94797000Y-59813823D02*
X91241000Y-59813823D01*
X94811000Y-59773823D02*
X91241000Y-59773823D01*
X94824000Y-59733823D02*
X91241000Y-59733823D01*
X94837000Y-59693823D02*
X91241000Y-59693823D01*
X94850000Y-59653823D02*
X91241000Y-59653823D01*
X94862000Y-59613823D02*
X91241000Y-59613823D01*
X94874000Y-59573823D02*
X91241000Y-59573823D01*
X94885000Y-59533823D02*
X91241000Y-59533823D01*
X94897000Y-59493823D02*
X91241000Y-59493823D01*
X94907000Y-59453823D02*
X91241000Y-59453823D01*
X94918000Y-59413823D02*
X91241000Y-59413823D01*
X94928000Y-59373823D02*
X85072000Y-59373823D01*
X94938000Y-59333823D02*
X85062000Y-59333823D01*
X94947000Y-59293823D02*
X85053000Y-59293823D01*
X94956000Y-59253823D02*
X85044000Y-59253823D01*
X94965000Y-59213823D02*
X85035000Y-59213823D01*
X94974000Y-59173823D02*
X85026000Y-59173823D01*
X94982000Y-59133823D02*
X85018000Y-59133823D01*
X94990000Y-59093823D02*
X85010000Y-59093823D01*
X94997000Y-59053823D02*
X85003000Y-59053823D01*
X95004000Y-59013823D02*
X84996000Y-59013823D01*
X95011000Y-58973823D02*
X84989000Y-58973823D01*
X95018000Y-58933823D02*
X84982000Y-58933823D01*
X95024000Y-58893823D02*
X84976000Y-58893823D01*
X95030000Y-58853823D02*
X84970000Y-58853823D01*
X95035000Y-58812823D02*
X84965000Y-58812823D01*
X95040000Y-58772823D02*
X84960000Y-58772823D01*
X95045000Y-58732823D02*
X84955000Y-58732823D01*
X95050000Y-58692823D02*
X84950000Y-58692823D01*
X95054000Y-58652823D02*
X84946000Y-58652823D01*
X95058000Y-58612823D02*
X84942000Y-58612823D01*
X95062000Y-58572823D02*
X84938000Y-58572823D01*
X95065000Y-58532823D02*
X84935000Y-58532823D01*
X95068000Y-58492823D02*
X84932000Y-58492823D01*
X95070000Y-58452823D02*
X84930000Y-58452823D01*
X95073000Y-58412823D02*
X84927000Y-58412823D01*
X95075000Y-58372823D02*
X84925000Y-58372823D01*
X95077000Y-58332823D02*
X84923000Y-58332823D01*
X95078000Y-58292823D02*
X84922000Y-58292823D01*
X95079000Y-58252823D02*
X84921000Y-58252823D01*
X95080000Y-58132823D02*
X84920000Y-58132823D01*
X95080000Y-58172823D02*
X84920000Y-58172823D01*
X95080000Y-58212823D02*
X84920000Y-58212823D01*
X95120000Y-58132823D02*
G75*
G02*
X84880000Y-58132823I-5120000J0D01*
G01*
X84880000Y-58132823D02*
G75*
G02*
X95120000Y-58132823I5120000J0D01*
G01*
X60759000Y-25413823D02*
X57082000Y-25413823D01*
X60759000Y-25453823D02*
X57093000Y-25453823D01*
X60759000Y-25493823D02*
X57103000Y-25493823D01*
X60759000Y-25533823D02*
X57115000Y-25533823D01*
X60759000Y-25573823D02*
X57126000Y-25573823D01*
X60759000Y-25613823D02*
X57138000Y-25613823D01*
X60759000Y-25653823D02*
X57150000Y-25653823D01*
X60759000Y-25693823D02*
X57163000Y-25693823D01*
X60759000Y-25733823D02*
X57176000Y-25733823D01*
X60759000Y-25773823D02*
X57189000Y-25773823D01*
X60759000Y-25813823D02*
X57203000Y-25813823D01*
X60759000Y-25853823D02*
X57217000Y-25853823D01*
X60759000Y-25893823D02*
X57232000Y-25893823D01*
X60759000Y-25933823D02*
X57246000Y-25933823D01*
X60759000Y-25973823D02*
X57262000Y-25973823D01*
X60759000Y-26013823D02*
X57277000Y-26013823D01*
X60759000Y-26053823D02*
X57293000Y-26053823D01*
X60759000Y-26093823D02*
X57310000Y-26093823D01*
X60759000Y-26133823D02*
X57326000Y-26133823D01*
X60759000Y-26173823D02*
X57343000Y-26173823D01*
X60759000Y-26213823D02*
X57361000Y-26213823D01*
X60759000Y-26253823D02*
X57379000Y-26253823D01*
X60759000Y-26293823D02*
X57397000Y-26293823D01*
X60759000Y-26333823D02*
X57416000Y-26333823D01*
X60759000Y-26373823D02*
X57436000Y-26373823D01*
X60759000Y-26413823D02*
X57455000Y-26413823D01*
X60759000Y-26453823D02*
X57475000Y-26453823D01*
X60759000Y-26493823D02*
X57496000Y-26493823D01*
X60759000Y-26533823D02*
X57517000Y-26533823D01*
X60759000Y-26573823D02*
X57538000Y-26573823D01*
X60759000Y-26613823D02*
X57560000Y-26613823D01*
X60759000Y-26653823D02*
X57583000Y-26653823D01*
X60759000Y-26693823D02*
X57605000Y-26693823D01*
X60759000Y-26733823D02*
X57629000Y-26733823D01*
X60759000Y-26773823D02*
X57653000Y-26773823D01*
X60759000Y-26813823D02*
X57677000Y-26813823D01*
X60759000Y-26853823D02*
X57702000Y-26853823D01*
X60759000Y-26893823D02*
X57727000Y-26893823D01*
X60759000Y-26933823D02*
X57753000Y-26933823D01*
X60759000Y-26973823D02*
X57779000Y-26973823D01*
X60759000Y-27013823D02*
X57806000Y-27013823D01*
X60759000Y-27053823D02*
X57834000Y-27053823D01*
X60759000Y-27093823D02*
X57862000Y-27093823D01*
X60759000Y-27133823D02*
X57890000Y-27133823D01*
X60759000Y-27173823D02*
X57920000Y-27173823D01*
X60759000Y-27213823D02*
X57950000Y-27213823D01*
X60759000Y-27253823D02*
X57980000Y-27253823D01*
X60759000Y-27293823D02*
X58011000Y-27293823D01*
X60759000Y-27333823D02*
X58043000Y-27333823D01*
X60759000Y-27373823D02*
X58075000Y-27373823D01*
X60759000Y-27413823D02*
X58108000Y-27413823D01*
X60759000Y-27453823D02*
X58142000Y-27453823D01*
X60759000Y-27493823D02*
X58176000Y-27493823D01*
X60759000Y-27533823D02*
X58211000Y-27533823D01*
X60759000Y-27573823D02*
X58247000Y-27573823D01*
X60759000Y-27613823D02*
X58284000Y-27613823D01*
X60759000Y-27653823D02*
X58321000Y-27653823D01*
X60759000Y-27693823D02*
X58360000Y-27693823D01*
X60759000Y-27733823D02*
X58399000Y-27733823D01*
X60759000Y-27773823D02*
X58439000Y-27773823D01*
X60759000Y-27813823D02*
X58480000Y-27813823D01*
X60759000Y-27853823D02*
X58522000Y-27853823D01*
X62599000Y-29213823D02*
X61401000Y-29213823D01*
X62862000Y-29173823D02*
X61138000Y-29173823D01*
X63062000Y-29133823D02*
X60938000Y-29133823D01*
X63230000Y-29093823D02*
X60770000Y-29093823D01*
X63378000Y-29053823D02*
X60622000Y-29053823D01*
X63510000Y-29013823D02*
X60490000Y-29013823D01*
X63630000Y-28973823D02*
X60370000Y-28973823D01*
X63742000Y-28933823D02*
X60258000Y-28933823D01*
X63846000Y-28893823D02*
X60154000Y-28893823D01*
X63944000Y-28853823D02*
X60056000Y-28853823D01*
X64037000Y-28813823D02*
X59963000Y-28813823D01*
X64125000Y-28773823D02*
X59875000Y-28773823D01*
X64209000Y-28733823D02*
X59791000Y-28733823D01*
X64289000Y-28693823D02*
X59711000Y-28693823D01*
X64365000Y-28653823D02*
X59635000Y-28653823D01*
X64439000Y-28613823D02*
X59561000Y-28613823D01*
X64510000Y-28573823D02*
X59490000Y-28573823D01*
X64579000Y-28533823D02*
X59421000Y-28533823D01*
X64645000Y-28493823D02*
X59355000Y-28493823D01*
X64709000Y-28453823D02*
X59291000Y-28453823D01*
X64770000Y-28413823D02*
X59230000Y-28413823D01*
X64830000Y-28373823D02*
X59170000Y-28373823D01*
X64889000Y-28333823D02*
X59111000Y-28333823D01*
X64945000Y-28293823D02*
X59055000Y-28293823D01*
X65000000Y-28253823D02*
X59000000Y-28253823D01*
X65054000Y-28213823D02*
X58946000Y-28213823D01*
X65106000Y-28173823D02*
X58894000Y-28173823D01*
X65156000Y-28133823D02*
X58844000Y-28133823D01*
X65206000Y-28093823D02*
X58794000Y-28093823D01*
X65254000Y-28053823D02*
X58746000Y-28053823D01*
X65301000Y-28013823D02*
X58699000Y-28013823D01*
X65347000Y-27973823D02*
X58653000Y-27973823D01*
X65392000Y-27933823D02*
X58608000Y-27933823D01*
X65436000Y-27893823D02*
X58564000Y-27893823D01*
X65478000Y-27853823D02*
X63241000Y-27853823D01*
X65520000Y-27813823D02*
X63241000Y-27813823D01*
X65561000Y-27773823D02*
X63241000Y-27773823D01*
X65601000Y-27733823D02*
X63241000Y-27733823D01*
X65640000Y-27693823D02*
X63241000Y-27693823D01*
X65679000Y-27653823D02*
X63241000Y-27653823D01*
X65716000Y-27613823D02*
X63241000Y-27613823D01*
X65753000Y-27573823D02*
X63241000Y-27573823D01*
X65789000Y-27533823D02*
X63241000Y-27533823D01*
X65824000Y-27493823D02*
X63241000Y-27493823D01*
X65858000Y-27453823D02*
X63241000Y-27453823D01*
X65892000Y-27413823D02*
X63241000Y-27413823D01*
X65925000Y-27373823D02*
X63241000Y-27373823D01*
X65957000Y-27333823D02*
X63241000Y-27333823D01*
X65989000Y-27293823D02*
X63241000Y-27293823D01*
X66020000Y-27253823D02*
X63241000Y-27253823D01*
X66050000Y-27213823D02*
X63241000Y-27213823D01*
X66080000Y-27173823D02*
X63241000Y-27173823D01*
X66110000Y-27133823D02*
X63241000Y-27133823D01*
X66138000Y-27093823D02*
X63241000Y-27093823D01*
X66166000Y-27053823D02*
X63241000Y-27053823D01*
X66194000Y-27013823D02*
X63241000Y-27013823D01*
X66221000Y-26973823D02*
X63241000Y-26973823D01*
X66247000Y-26933823D02*
X63241000Y-26933823D01*
X66273000Y-26893823D02*
X63241000Y-26893823D01*
X66298000Y-26853823D02*
X63241000Y-26853823D01*
X66323000Y-26813823D02*
X63241000Y-26813823D01*
X66347000Y-26773823D02*
X63241000Y-26773823D01*
X66371000Y-26733823D02*
X63241000Y-26733823D01*
X66395000Y-26693823D02*
X63241000Y-26693823D01*
X66417000Y-26653823D02*
X63241000Y-26653823D01*
X66440000Y-26613823D02*
X63241000Y-26613823D01*
X66462000Y-26573823D02*
X63241000Y-26573823D01*
X66483000Y-26533823D02*
X63241000Y-26533823D01*
X66504000Y-26493823D02*
X63241000Y-26493823D01*
X66525000Y-26453823D02*
X63241000Y-26453823D01*
X66545000Y-26413823D02*
X63241000Y-26413823D01*
X66564000Y-26373823D02*
X63241000Y-26373823D01*
X66584000Y-26333823D02*
X63241000Y-26333823D01*
X66603000Y-26293823D02*
X63241000Y-26293823D01*
X66621000Y-26253823D02*
X63241000Y-26253823D01*
X66639000Y-26213823D02*
X63241000Y-26213823D01*
X66657000Y-26173823D02*
X63241000Y-26173823D01*
X66674000Y-26133823D02*
X63241000Y-26133823D01*
X66690000Y-26093823D02*
X63241000Y-26093823D01*
X66707000Y-26053823D02*
X63241000Y-26053823D01*
X66723000Y-26013823D02*
X63241000Y-26013823D01*
X66738000Y-25973823D02*
X63241000Y-25973823D01*
X66754000Y-25933823D02*
X63241000Y-25933823D01*
X66768000Y-25893823D02*
X63241000Y-25893823D01*
X66783000Y-25853823D02*
X63241000Y-25853823D01*
X66797000Y-25813823D02*
X63241000Y-25813823D01*
X66811000Y-25773823D02*
X63241000Y-25773823D01*
X66824000Y-25733823D02*
X63241000Y-25733823D01*
X66837000Y-25693823D02*
X63241000Y-25693823D01*
X66850000Y-25653823D02*
X63241000Y-25653823D01*
X66862000Y-25613823D02*
X63241000Y-25613823D01*
X66874000Y-25573823D02*
X63241000Y-25573823D01*
X66885000Y-25533823D02*
X63241000Y-25533823D01*
X66897000Y-25493823D02*
X63241000Y-25493823D01*
X66907000Y-25453823D02*
X63241000Y-25453823D01*
X66918000Y-25413823D02*
X63241000Y-25413823D01*
X66928000Y-25373823D02*
X57072000Y-25373823D01*
X66938000Y-25333823D02*
X57062000Y-25333823D01*
X66947000Y-25293823D02*
X57053000Y-25293823D01*
X66956000Y-25253823D02*
X57044000Y-25253823D01*
X66965000Y-25213823D02*
X57035000Y-25213823D01*
X66974000Y-25173823D02*
X57026000Y-25173823D01*
X66982000Y-25133823D02*
X57018000Y-25133823D01*
X66990000Y-25093823D02*
X57010000Y-25093823D01*
X66997000Y-25053823D02*
X57003000Y-25053823D01*
X67004000Y-25013823D02*
X56996000Y-25013823D01*
X67011000Y-24973823D02*
X56989000Y-24973823D01*
X67018000Y-24933823D02*
X56982000Y-24933823D01*
X67024000Y-24893823D02*
X56976000Y-24893823D01*
X67030000Y-24853823D02*
X56970000Y-24853823D01*
X67035000Y-24812823D02*
X56965000Y-24812823D01*
X67040000Y-24772823D02*
X56960000Y-24772823D01*
X67045000Y-24732823D02*
X56955000Y-24732823D01*
X67050000Y-24692823D02*
X56950000Y-24692823D01*
X67054000Y-24652823D02*
X56946000Y-24652823D01*
X67058000Y-24612823D02*
X56942000Y-24612823D01*
X67062000Y-24572823D02*
X56938000Y-24572823D01*
X67065000Y-24532823D02*
X56935000Y-24532823D01*
X67068000Y-24492823D02*
X56932000Y-24492823D01*
X67070000Y-24452823D02*
X56930000Y-24452823D01*
X67073000Y-24412823D02*
X56927000Y-24412823D01*
X67075000Y-24372823D02*
X56925000Y-24372823D01*
X67077000Y-24332823D02*
X56923000Y-24332823D01*
X67078000Y-24292823D02*
X56922000Y-24292823D01*
X67079000Y-24252823D02*
X56921000Y-24252823D01*
X67080000Y-24132823D02*
X56920000Y-24132823D01*
X67080000Y-24172823D02*
X56920000Y-24172823D01*
X67080000Y-24212823D02*
X56920000Y-24212823D01*
X67120000Y-24132823D02*
G75*
G02*
X56880000Y-24132823I-5120000J0D01*
G01*
X56880000Y-24132823D02*
G75*
G02*
X67120000Y-24132823I5120000J0D01*
G01*
X32759000Y-59413823D02*
X29082000Y-59413823D01*
X32759000Y-59453823D02*
X29093000Y-59453823D01*
X32759000Y-59493823D02*
X29103000Y-59493823D01*
X32759000Y-59533823D02*
X29115000Y-59533823D01*
X32759000Y-59573823D02*
X29126000Y-59573823D01*
X32759000Y-59613823D02*
X29138000Y-59613823D01*
X32759000Y-59653823D02*
X29150000Y-59653823D01*
X32759000Y-59693823D02*
X29163000Y-59693823D01*
X32759000Y-59733823D02*
X29176000Y-59733823D01*
X32759000Y-59773823D02*
X29189000Y-59773823D01*
X32759000Y-59813823D02*
X29203000Y-59813823D01*
X32759000Y-59853823D02*
X29217000Y-59853823D01*
X32759000Y-59893823D02*
X29232000Y-59893823D01*
X32759000Y-59933823D02*
X29246000Y-59933823D01*
X32759000Y-59973823D02*
X29262000Y-59973823D01*
X32759000Y-60013823D02*
X29277000Y-60013823D01*
X32759000Y-60053823D02*
X29293000Y-60053823D01*
X32759000Y-60093823D02*
X29310000Y-60093823D01*
X32759000Y-60133823D02*
X29326000Y-60133823D01*
X32759000Y-60173823D02*
X29343000Y-60173823D01*
X32759000Y-60213823D02*
X29361000Y-60213823D01*
X32759000Y-60253823D02*
X29379000Y-60253823D01*
X32759000Y-60293823D02*
X29397000Y-60293823D01*
X32759000Y-60333823D02*
X29416000Y-60333823D01*
X32759000Y-60373823D02*
X29436000Y-60373823D01*
X32759000Y-60413823D02*
X29455000Y-60413823D01*
X32759000Y-60453823D02*
X29475000Y-60453823D01*
X32759000Y-60493823D02*
X29496000Y-60493823D01*
X32759000Y-60533823D02*
X29517000Y-60533823D01*
X32759000Y-60573823D02*
X29538000Y-60573823D01*
X32759000Y-60613823D02*
X29560000Y-60613823D01*
X32759000Y-60653823D02*
X29583000Y-60653823D01*
X32759000Y-60693823D02*
X29605000Y-60693823D01*
X32759000Y-60733823D02*
X29629000Y-60733823D01*
X32759000Y-60773823D02*
X29653000Y-60773823D01*
X32759000Y-60813823D02*
X29677000Y-60813823D01*
X32759000Y-60853823D02*
X29702000Y-60853823D01*
X32759000Y-60893823D02*
X29727000Y-60893823D01*
X32759000Y-60933823D02*
X29753000Y-60933823D01*
X32759000Y-60973823D02*
X29779000Y-60973823D01*
X32759000Y-61013823D02*
X29806000Y-61013823D01*
X32759000Y-61053823D02*
X29834000Y-61053823D01*
X32759000Y-61093823D02*
X29862000Y-61093823D01*
X32759000Y-61133823D02*
X29890000Y-61133823D01*
X32759000Y-61173823D02*
X29920000Y-61173823D01*
X32759000Y-61213823D02*
X29950000Y-61213823D01*
X32759000Y-61253823D02*
X29980000Y-61253823D01*
X32759000Y-61293823D02*
X30011000Y-61293823D01*
X32759000Y-61333823D02*
X30043000Y-61333823D01*
X32759000Y-61373823D02*
X30075000Y-61373823D01*
X32759000Y-61413823D02*
X30108000Y-61413823D01*
X32759000Y-61453823D02*
X30142000Y-61453823D01*
X32759000Y-61493823D02*
X30176000Y-61493823D01*
X32759000Y-61533823D02*
X30211000Y-61533823D01*
X32759000Y-61573823D02*
X30247000Y-61573823D01*
X32759000Y-61613823D02*
X30284000Y-61613823D01*
X32759000Y-61653823D02*
X30321000Y-61653823D01*
X32759000Y-61693823D02*
X30360000Y-61693823D01*
X32759000Y-61733823D02*
X30399000Y-61733823D01*
X32759000Y-61773823D02*
X30439000Y-61773823D01*
X32759000Y-61813823D02*
X30480000Y-61813823D01*
X32759000Y-61853823D02*
X30522000Y-61853823D01*
X34599000Y-63213823D02*
X33401000Y-63213823D01*
X34862000Y-63173823D02*
X33138000Y-63173823D01*
X35062000Y-63133823D02*
X32938000Y-63133823D01*
X35230000Y-63093823D02*
X32770000Y-63093823D01*
X35378000Y-63053823D02*
X32622000Y-63053823D01*
X35510000Y-63013823D02*
X32490000Y-63013823D01*
X35630000Y-62973823D02*
X32370000Y-62973823D01*
X35742000Y-62933823D02*
X32258000Y-62933823D01*
X35846000Y-62893823D02*
X32154000Y-62893823D01*
X35944000Y-62853823D02*
X32056000Y-62853823D01*
X36037000Y-62813823D02*
X31963000Y-62813823D01*
X36125000Y-62773823D02*
X31875000Y-62773823D01*
X36209000Y-62733823D02*
X31791000Y-62733823D01*
X36289000Y-62693823D02*
X31711000Y-62693823D01*
X36365000Y-62653823D02*
X31635000Y-62653823D01*
X36439000Y-62613823D02*
X31561000Y-62613823D01*
X36510000Y-62573823D02*
X31490000Y-62573823D01*
X36579000Y-62533823D02*
X31421000Y-62533823D01*
X36645000Y-62493823D02*
X31355000Y-62493823D01*
X36709000Y-62453823D02*
X31291000Y-62453823D01*
X36770000Y-62413823D02*
X31230000Y-62413823D01*
X36830000Y-62373823D02*
X31170000Y-62373823D01*
X36889000Y-62333823D02*
X31111000Y-62333823D01*
X36945000Y-62293823D02*
X31055000Y-62293823D01*
X37000000Y-62253823D02*
X31000000Y-62253823D01*
X37054000Y-62213823D02*
X30946000Y-62213823D01*
X37106000Y-62173823D02*
X30894000Y-62173823D01*
X37156000Y-62133823D02*
X30844000Y-62133823D01*
X37206000Y-62093823D02*
X30794000Y-62093823D01*
X37254000Y-62053823D02*
X30746000Y-62053823D01*
X37301000Y-62013823D02*
X30699000Y-62013823D01*
X37347000Y-61973823D02*
X30653000Y-61973823D01*
X37392000Y-61933823D02*
X30608000Y-61933823D01*
X37436000Y-61893823D02*
X30564000Y-61893823D01*
X37478000Y-61853823D02*
X35241000Y-61853823D01*
X37520000Y-61813823D02*
X35241000Y-61813823D01*
X37561000Y-61773823D02*
X35241000Y-61773823D01*
X37601000Y-61733823D02*
X35241000Y-61733823D01*
X37640000Y-61693823D02*
X35241000Y-61693823D01*
X37679000Y-61653823D02*
X35241000Y-61653823D01*
X37716000Y-61613823D02*
X35241000Y-61613823D01*
X37753000Y-61573823D02*
X35241000Y-61573823D01*
X37789000Y-61533823D02*
X35241000Y-61533823D01*
X37824000Y-61493823D02*
X35241000Y-61493823D01*
X37858000Y-61453823D02*
X35241000Y-61453823D01*
X37892000Y-61413823D02*
X35241000Y-61413823D01*
X37925000Y-61373823D02*
X35241000Y-61373823D01*
X37957000Y-61333823D02*
X35241000Y-61333823D01*
X37989000Y-61293823D02*
X35241000Y-61293823D01*
X38020000Y-61253823D02*
X35241000Y-61253823D01*
X38050000Y-61213823D02*
X35241000Y-61213823D01*
X38080000Y-61173823D02*
X35241000Y-61173823D01*
X38110000Y-61133823D02*
X35241000Y-61133823D01*
X38138000Y-61093823D02*
X35241000Y-61093823D01*
X38166000Y-61053823D02*
X35241000Y-61053823D01*
X38194000Y-61013823D02*
X35241000Y-61013823D01*
X38221000Y-60973823D02*
X35241000Y-60973823D01*
X38247000Y-60933823D02*
X35241000Y-60933823D01*
X38273000Y-60893823D02*
X35241000Y-60893823D01*
X38298000Y-60853823D02*
X35241000Y-60853823D01*
X38323000Y-60813823D02*
X35241000Y-60813823D01*
X38347000Y-60773823D02*
X35241000Y-60773823D01*
X38371000Y-60733823D02*
X35241000Y-60733823D01*
X38395000Y-60693823D02*
X35241000Y-60693823D01*
X38417000Y-60653823D02*
X35241000Y-60653823D01*
X38440000Y-60613823D02*
X35241000Y-60613823D01*
X38462000Y-60573823D02*
X35241000Y-60573823D01*
X38483000Y-60533823D02*
X35241000Y-60533823D01*
X38504000Y-60493823D02*
X35241000Y-60493823D01*
X38525000Y-60453823D02*
X35241000Y-60453823D01*
X38545000Y-60413823D02*
X35241000Y-60413823D01*
X38564000Y-60373823D02*
X35241000Y-60373823D01*
X38584000Y-60333823D02*
X35241000Y-60333823D01*
X38603000Y-60293823D02*
X35241000Y-60293823D01*
X38621000Y-60253823D02*
X35241000Y-60253823D01*
X38639000Y-60213823D02*
X35241000Y-60213823D01*
X38657000Y-60173823D02*
X35241000Y-60173823D01*
X38674000Y-60133823D02*
X35241000Y-60133823D01*
X38690000Y-60093823D02*
X35241000Y-60093823D01*
X38707000Y-60053823D02*
X35241000Y-60053823D01*
X38723000Y-60013823D02*
X35241000Y-60013823D01*
X38738000Y-59973823D02*
X35241000Y-59973823D01*
X38754000Y-59933823D02*
X35241000Y-59933823D01*
X38768000Y-59893823D02*
X35241000Y-59893823D01*
X38783000Y-59853823D02*
X35241000Y-59853823D01*
X38797000Y-59813823D02*
X35241000Y-59813823D01*
X38811000Y-59773823D02*
X35241000Y-59773823D01*
X38824000Y-59733823D02*
X35241000Y-59733823D01*
X38837000Y-59693823D02*
X35241000Y-59693823D01*
X38850000Y-59653823D02*
X35241000Y-59653823D01*
X38862000Y-59613823D02*
X35241000Y-59613823D01*
X38874000Y-59573823D02*
X35241000Y-59573823D01*
X38885000Y-59533823D02*
X35241000Y-59533823D01*
X38897000Y-59493823D02*
X35241000Y-59493823D01*
X38907000Y-59453823D02*
X35241000Y-59453823D01*
X38918000Y-59413823D02*
X35241000Y-59413823D01*
X38928000Y-59373823D02*
X29072000Y-59373823D01*
X38938000Y-59333823D02*
X29062000Y-59333823D01*
X38947000Y-59293823D02*
X29053000Y-59293823D01*
X38956000Y-59253823D02*
X29044000Y-59253823D01*
X38965000Y-59213823D02*
X29035000Y-59213823D01*
X38974000Y-59173823D02*
X29026000Y-59173823D01*
X38982000Y-59133823D02*
X29018000Y-59133823D01*
X38990000Y-59093823D02*
X29010000Y-59093823D01*
X38997000Y-59053823D02*
X29003000Y-59053823D01*
X39004000Y-59013823D02*
X28996000Y-59013823D01*
X39011000Y-58973823D02*
X28989000Y-58973823D01*
X39018000Y-58933823D02*
X28982000Y-58933823D01*
X39024000Y-58893823D02*
X28976000Y-58893823D01*
X39030000Y-58853823D02*
X28970000Y-58853823D01*
X39035000Y-58812823D02*
X28965000Y-58812823D01*
X39040000Y-58772823D02*
X28960000Y-58772823D01*
X39045000Y-58732823D02*
X28955000Y-58732823D01*
X39050000Y-58692823D02*
X28950000Y-58692823D01*
X39054000Y-58652823D02*
X28946000Y-58652823D01*
X39058000Y-58612823D02*
X28942000Y-58612823D01*
X39062000Y-58572823D02*
X28938000Y-58572823D01*
X39065000Y-58532823D02*
X28935000Y-58532823D01*
X39068000Y-58492823D02*
X28932000Y-58492823D01*
X39070000Y-58452823D02*
X28930000Y-58452823D01*
X39073000Y-58412823D02*
X28927000Y-58412823D01*
X39075000Y-58372823D02*
X28925000Y-58372823D01*
X39077000Y-58332823D02*
X28923000Y-58332823D01*
X39078000Y-58292823D02*
X28922000Y-58292823D01*
X39079000Y-58252823D02*
X28921000Y-58252823D01*
X39080000Y-58132823D02*
X28920000Y-58132823D01*
X39080000Y-58172823D02*
X28920000Y-58172823D01*
X39080000Y-58212823D02*
X28920000Y-58212823D01*
X39120000Y-58132823D02*
G75*
G02*
X28880000Y-58132823I-5120000J0D01*
G01*
X28880000Y-58132823D02*
G75*
G02*
X39120000Y-58132823I5120000J0D01*
G01*
X46759000Y-25413823D02*
X43082000Y-25413823D01*
X46759000Y-25453823D02*
X43093000Y-25453823D01*
X46759000Y-25493823D02*
X43103000Y-25493823D01*
X46759000Y-25533823D02*
X43115000Y-25533823D01*
X46759000Y-25573823D02*
X43126000Y-25573823D01*
X46759000Y-25613823D02*
X43138000Y-25613823D01*
X46759000Y-25653823D02*
X43150000Y-25653823D01*
X46759000Y-25693823D02*
X43163000Y-25693823D01*
X46759000Y-25733823D02*
X43176000Y-25733823D01*
X46759000Y-25773823D02*
X43189000Y-25773823D01*
X46759000Y-25813823D02*
X43203000Y-25813823D01*
X46759000Y-25853823D02*
X43217000Y-25853823D01*
X46759000Y-25893823D02*
X43232000Y-25893823D01*
X46759000Y-25933823D02*
X43246000Y-25933823D01*
X46759000Y-25973823D02*
X43262000Y-25973823D01*
X46759000Y-26013823D02*
X43277000Y-26013823D01*
X46759000Y-26053823D02*
X43293000Y-26053823D01*
X46759000Y-26093823D02*
X43310000Y-26093823D01*
X46759000Y-26133823D02*
X43326000Y-26133823D01*
X46759000Y-26173823D02*
X43343000Y-26173823D01*
X46759000Y-26213823D02*
X43361000Y-26213823D01*
X46759000Y-26253823D02*
X43379000Y-26253823D01*
X46759000Y-26293823D02*
X43397000Y-26293823D01*
X46759000Y-26333823D02*
X43416000Y-26333823D01*
X46759000Y-26373823D02*
X43436000Y-26373823D01*
X46759000Y-26413823D02*
X43455000Y-26413823D01*
X46759000Y-26453823D02*
X43475000Y-26453823D01*
X46759000Y-26493823D02*
X43496000Y-26493823D01*
X46759000Y-26533823D02*
X43517000Y-26533823D01*
X46759000Y-26573823D02*
X43538000Y-26573823D01*
X46759000Y-26613823D02*
X43560000Y-26613823D01*
X46759000Y-26653823D02*
X43583000Y-26653823D01*
X46759000Y-26693823D02*
X43605000Y-26693823D01*
X46759000Y-26733823D02*
X43629000Y-26733823D01*
X46759000Y-26773823D02*
X43653000Y-26773823D01*
X46759000Y-26813823D02*
X43677000Y-26813823D01*
X46759000Y-26853823D02*
X43702000Y-26853823D01*
X46759000Y-26893823D02*
X43727000Y-26893823D01*
X46759000Y-26933823D02*
X43753000Y-26933823D01*
X46759000Y-26973823D02*
X43779000Y-26973823D01*
X46759000Y-27013823D02*
X43806000Y-27013823D01*
X46759000Y-27053823D02*
X43834000Y-27053823D01*
X46759000Y-27093823D02*
X43862000Y-27093823D01*
X46759000Y-27133823D02*
X43890000Y-27133823D01*
X46759000Y-27173823D02*
X43920000Y-27173823D01*
X46759000Y-27213823D02*
X43950000Y-27213823D01*
X46759000Y-27253823D02*
X43980000Y-27253823D01*
X46759000Y-27293823D02*
X44011000Y-27293823D01*
X46759000Y-27333823D02*
X44043000Y-27333823D01*
X46759000Y-27373823D02*
X44075000Y-27373823D01*
X46759000Y-27413823D02*
X44108000Y-27413823D01*
X46759000Y-27453823D02*
X44142000Y-27453823D01*
X46759000Y-27493823D02*
X44176000Y-27493823D01*
X46759000Y-27533823D02*
X44211000Y-27533823D01*
X46759000Y-27573823D02*
X44247000Y-27573823D01*
X46759000Y-27613823D02*
X44284000Y-27613823D01*
X46759000Y-27653823D02*
X44321000Y-27653823D01*
X46759000Y-27693823D02*
X44360000Y-27693823D01*
X46759000Y-27733823D02*
X44399000Y-27733823D01*
X46759000Y-27773823D02*
X44439000Y-27773823D01*
X46759000Y-27813823D02*
X44480000Y-27813823D01*
X46759000Y-27853823D02*
X44522000Y-27853823D01*
X48599000Y-29213823D02*
X47401000Y-29213823D01*
X48862000Y-29173823D02*
X47138000Y-29173823D01*
X49062000Y-29133823D02*
X46938000Y-29133823D01*
X49230000Y-29093823D02*
X46770000Y-29093823D01*
X49378000Y-29053823D02*
X46622000Y-29053823D01*
X49510000Y-29013823D02*
X46490000Y-29013823D01*
X49630000Y-28973823D02*
X46370000Y-28973823D01*
X49742000Y-28933823D02*
X46258000Y-28933823D01*
X49846000Y-28893823D02*
X46154000Y-28893823D01*
X49944000Y-28853823D02*
X46056000Y-28853823D01*
X50037000Y-28813823D02*
X45963000Y-28813823D01*
X50125000Y-28773823D02*
X45875000Y-28773823D01*
X50209000Y-28733823D02*
X45791000Y-28733823D01*
X50289000Y-28693823D02*
X45711000Y-28693823D01*
X50365000Y-28653823D02*
X45635000Y-28653823D01*
X50439000Y-28613823D02*
X45561000Y-28613823D01*
X50510000Y-28573823D02*
X45490000Y-28573823D01*
X50579000Y-28533823D02*
X45421000Y-28533823D01*
X50645000Y-28493823D02*
X45355000Y-28493823D01*
X50709000Y-28453823D02*
X45291000Y-28453823D01*
X50770000Y-28413823D02*
X45230000Y-28413823D01*
X50830000Y-28373823D02*
X45170000Y-28373823D01*
X50889000Y-28333823D02*
X45111000Y-28333823D01*
X50945000Y-28293823D02*
X45055000Y-28293823D01*
X51000000Y-28253823D02*
X45000000Y-28253823D01*
X51054000Y-28213823D02*
X44946000Y-28213823D01*
X51106000Y-28173823D02*
X44894000Y-28173823D01*
X51156000Y-28133823D02*
X44844000Y-28133823D01*
X51206000Y-28093823D02*
X44794000Y-28093823D01*
X51254000Y-28053823D02*
X44746000Y-28053823D01*
X51301000Y-28013823D02*
X44699000Y-28013823D01*
X51347000Y-27973823D02*
X44653000Y-27973823D01*
X51392000Y-27933823D02*
X44608000Y-27933823D01*
X51436000Y-27893823D02*
X44564000Y-27893823D01*
X51478000Y-27853823D02*
X49241000Y-27853823D01*
X51520000Y-27813823D02*
X49241000Y-27813823D01*
X51561000Y-27773823D02*
X49241000Y-27773823D01*
X51601000Y-27733823D02*
X49241000Y-27733823D01*
X51640000Y-27693823D02*
X49241000Y-27693823D01*
X51679000Y-27653823D02*
X49241000Y-27653823D01*
X51716000Y-27613823D02*
X49241000Y-27613823D01*
X51753000Y-27573823D02*
X49241000Y-27573823D01*
X51789000Y-27533823D02*
X49241000Y-27533823D01*
X51824000Y-27493823D02*
X49241000Y-27493823D01*
X51858000Y-27453823D02*
X49241000Y-27453823D01*
X51892000Y-27413823D02*
X49241000Y-27413823D01*
X51925000Y-27373823D02*
X49241000Y-27373823D01*
X51957000Y-27333823D02*
X49241000Y-27333823D01*
X51989000Y-27293823D02*
X49241000Y-27293823D01*
X52020000Y-27253823D02*
X49241000Y-27253823D01*
X52050000Y-27213823D02*
X49241000Y-27213823D01*
X52080000Y-27173823D02*
X49241000Y-27173823D01*
X52110000Y-27133823D02*
X49241000Y-27133823D01*
X52138000Y-27093823D02*
X49241000Y-27093823D01*
X52166000Y-27053823D02*
X49241000Y-27053823D01*
X52194000Y-27013823D02*
X49241000Y-27013823D01*
X52221000Y-26973823D02*
X49241000Y-26973823D01*
X52247000Y-26933823D02*
X49241000Y-26933823D01*
X52273000Y-26893823D02*
X49241000Y-26893823D01*
X52298000Y-26853823D02*
X49241000Y-26853823D01*
X52323000Y-26813823D02*
X49241000Y-26813823D01*
X52347000Y-26773823D02*
X49241000Y-26773823D01*
X52371000Y-26733823D02*
X49241000Y-26733823D01*
X52395000Y-26693823D02*
X49241000Y-26693823D01*
X52417000Y-26653823D02*
X49241000Y-26653823D01*
X52440000Y-26613823D02*
X49241000Y-26613823D01*
X52462000Y-26573823D02*
X49241000Y-26573823D01*
X52483000Y-26533823D02*
X49241000Y-26533823D01*
X52504000Y-26493823D02*
X49241000Y-26493823D01*
X52525000Y-26453823D02*
X49241000Y-26453823D01*
X52545000Y-26413823D02*
X49241000Y-26413823D01*
X52564000Y-26373823D02*
X49241000Y-26373823D01*
X52584000Y-26333823D02*
X49241000Y-26333823D01*
X52603000Y-26293823D02*
X49241000Y-26293823D01*
X52621000Y-26253823D02*
X49241000Y-26253823D01*
X52639000Y-26213823D02*
X49241000Y-26213823D01*
X52657000Y-26173823D02*
X49241000Y-26173823D01*
X52674000Y-26133823D02*
X49241000Y-26133823D01*
X52690000Y-26093823D02*
X49241000Y-26093823D01*
X52707000Y-26053823D02*
X49241000Y-26053823D01*
X52723000Y-26013823D02*
X49241000Y-26013823D01*
X52738000Y-25973823D02*
X49241000Y-25973823D01*
X52754000Y-25933823D02*
X49241000Y-25933823D01*
X52768000Y-25893823D02*
X49241000Y-25893823D01*
X52783000Y-25853823D02*
X49241000Y-25853823D01*
X52797000Y-25813823D02*
X49241000Y-25813823D01*
X52811000Y-25773823D02*
X49241000Y-25773823D01*
X52824000Y-25733823D02*
X49241000Y-25733823D01*
X52837000Y-25693823D02*
X49241000Y-25693823D01*
X52850000Y-25653823D02*
X49241000Y-25653823D01*
X52862000Y-25613823D02*
X49241000Y-25613823D01*
X52874000Y-25573823D02*
X49241000Y-25573823D01*
X52885000Y-25533823D02*
X49241000Y-25533823D01*
X52897000Y-25493823D02*
X49241000Y-25493823D01*
X52907000Y-25453823D02*
X49241000Y-25453823D01*
X52918000Y-25413823D02*
X49241000Y-25413823D01*
X52928000Y-25373823D02*
X43072000Y-25373823D01*
X52938000Y-25333823D02*
X43062000Y-25333823D01*
X52947000Y-25293823D02*
X43053000Y-25293823D01*
X52956000Y-25253823D02*
X43044000Y-25253823D01*
X52965000Y-25213823D02*
X43035000Y-25213823D01*
X52974000Y-25173823D02*
X43026000Y-25173823D01*
X52982000Y-25133823D02*
X43018000Y-25133823D01*
X52990000Y-25093823D02*
X43010000Y-25093823D01*
X52997000Y-25053823D02*
X43003000Y-25053823D01*
X53004000Y-25013823D02*
X42996000Y-25013823D01*
X53011000Y-24973823D02*
X42989000Y-24973823D01*
X53018000Y-24933823D02*
X42982000Y-24933823D01*
X53024000Y-24893823D02*
X42976000Y-24893823D01*
X53030000Y-24853823D02*
X42970000Y-24853823D01*
X53035000Y-24812823D02*
X42965000Y-24812823D01*
X53040000Y-24772823D02*
X42960000Y-24772823D01*
X53045000Y-24732823D02*
X42955000Y-24732823D01*
X53050000Y-24692823D02*
X42950000Y-24692823D01*
X53054000Y-24652823D02*
X42946000Y-24652823D01*
X53058000Y-24612823D02*
X42942000Y-24612823D01*
X53062000Y-24572823D02*
X42938000Y-24572823D01*
X53065000Y-24532823D02*
X42935000Y-24532823D01*
X53068000Y-24492823D02*
X42932000Y-24492823D01*
X53070000Y-24452823D02*
X42930000Y-24452823D01*
X53073000Y-24412823D02*
X42927000Y-24412823D01*
X53075000Y-24372823D02*
X42925000Y-24372823D01*
X53077000Y-24332823D02*
X42923000Y-24332823D01*
X53078000Y-24292823D02*
X42922000Y-24292823D01*
X53079000Y-24252823D02*
X42921000Y-24252823D01*
X53080000Y-24132823D02*
X42920000Y-24132823D01*
X53080000Y-24172823D02*
X42920000Y-24172823D01*
X53080000Y-24212823D02*
X42920000Y-24212823D01*
X53120000Y-24132823D02*
G75*
G02*
X42880000Y-24132823I-5120000J0D01*
G01*
X42880000Y-24132823D02*
G75*
G02*
X53120000Y-24132823I5120000J0D01*
G01*
X46759000Y-59413823D02*
X43082000Y-59413823D01*
X46759000Y-59453823D02*
X43093000Y-59453823D01*
X46759000Y-59493823D02*
X43103000Y-59493823D01*
X46759000Y-59533823D02*
X43115000Y-59533823D01*
X46759000Y-59573823D02*
X43126000Y-59573823D01*
X46759000Y-59613823D02*
X43138000Y-59613823D01*
X46759000Y-59653823D02*
X43150000Y-59653823D01*
X46759000Y-59693823D02*
X43163000Y-59693823D01*
X46759000Y-59733823D02*
X43176000Y-59733823D01*
X46759000Y-59773823D02*
X43189000Y-59773823D01*
X46759000Y-59813823D02*
X43203000Y-59813823D01*
X46759000Y-59853823D02*
X43217000Y-59853823D01*
X46759000Y-59893823D02*
X43232000Y-59893823D01*
X46759000Y-59933823D02*
X43246000Y-59933823D01*
X46759000Y-59973823D02*
X43262000Y-59973823D01*
X46759000Y-60013823D02*
X43277000Y-60013823D01*
X46759000Y-60053823D02*
X43293000Y-60053823D01*
X46759000Y-60093823D02*
X43310000Y-60093823D01*
X46759000Y-60133823D02*
X43326000Y-60133823D01*
X46759000Y-60173823D02*
X43343000Y-60173823D01*
X46759000Y-60213823D02*
X43361000Y-60213823D01*
X46759000Y-60253823D02*
X43379000Y-60253823D01*
X46759000Y-60293823D02*
X43397000Y-60293823D01*
X46759000Y-60333823D02*
X43416000Y-60333823D01*
X46759000Y-60373823D02*
X43436000Y-60373823D01*
X46759000Y-60413823D02*
X43455000Y-60413823D01*
X46759000Y-60453823D02*
X43475000Y-60453823D01*
X46759000Y-60493823D02*
X43496000Y-60493823D01*
X46759000Y-60533823D02*
X43517000Y-60533823D01*
X46759000Y-60573823D02*
X43538000Y-60573823D01*
X46759000Y-60613823D02*
X43560000Y-60613823D01*
X46759000Y-60653823D02*
X43583000Y-60653823D01*
X46759000Y-60693823D02*
X43605000Y-60693823D01*
X46759000Y-60733823D02*
X43629000Y-60733823D01*
X46759000Y-60773823D02*
X43653000Y-60773823D01*
X46759000Y-60813823D02*
X43677000Y-60813823D01*
X46759000Y-60853823D02*
X43702000Y-60853823D01*
X46759000Y-60893823D02*
X43727000Y-60893823D01*
X46759000Y-60933823D02*
X43753000Y-60933823D01*
X46759000Y-60973823D02*
X43779000Y-60973823D01*
X46759000Y-61013823D02*
X43806000Y-61013823D01*
X46759000Y-61053823D02*
X43834000Y-61053823D01*
X46759000Y-61093823D02*
X43862000Y-61093823D01*
X46759000Y-61133823D02*
X43890000Y-61133823D01*
X46759000Y-61173823D02*
X43920000Y-61173823D01*
X46759000Y-61213823D02*
X43950000Y-61213823D01*
X46759000Y-61253823D02*
X43980000Y-61253823D01*
X46759000Y-61293823D02*
X44011000Y-61293823D01*
X46759000Y-61333823D02*
X44043000Y-61333823D01*
X46759000Y-61373823D02*
X44075000Y-61373823D01*
X46759000Y-61413823D02*
X44108000Y-61413823D01*
X46759000Y-61453823D02*
X44142000Y-61453823D01*
X46759000Y-61493823D02*
X44176000Y-61493823D01*
X46759000Y-61533823D02*
X44211000Y-61533823D01*
X46759000Y-61573823D02*
X44247000Y-61573823D01*
X46759000Y-61613823D02*
X44284000Y-61613823D01*
X46759000Y-61653823D02*
X44321000Y-61653823D01*
X46759000Y-61693823D02*
X44360000Y-61693823D01*
X46759000Y-61733823D02*
X44399000Y-61733823D01*
X46759000Y-61773823D02*
X44439000Y-61773823D01*
X46759000Y-61813823D02*
X44480000Y-61813823D01*
X46759000Y-61853823D02*
X44522000Y-61853823D01*
X48599000Y-63213823D02*
X47401000Y-63213823D01*
X48862000Y-63173823D02*
X47138000Y-63173823D01*
X49062000Y-63133823D02*
X46938000Y-63133823D01*
X49230000Y-63093823D02*
X46770000Y-63093823D01*
X49378000Y-63053823D02*
X46622000Y-63053823D01*
X49510000Y-63013823D02*
X46490000Y-63013823D01*
X49630000Y-62973823D02*
X46370000Y-62973823D01*
X49742000Y-62933823D02*
X46258000Y-62933823D01*
X49846000Y-62893823D02*
X46154000Y-62893823D01*
X49944000Y-62853823D02*
X46056000Y-62853823D01*
X50037000Y-62813823D02*
X45963000Y-62813823D01*
X50125000Y-62773823D02*
X45875000Y-62773823D01*
X50209000Y-62733823D02*
X45791000Y-62733823D01*
X50289000Y-62693823D02*
X45711000Y-62693823D01*
X50365000Y-62653823D02*
X45635000Y-62653823D01*
X50439000Y-62613823D02*
X45561000Y-62613823D01*
X50510000Y-62573823D02*
X45490000Y-62573823D01*
X50579000Y-62533823D02*
X45421000Y-62533823D01*
X50645000Y-62493823D02*
X45355000Y-62493823D01*
X50709000Y-62453823D02*
X45291000Y-62453823D01*
X50770000Y-62413823D02*
X45230000Y-62413823D01*
X50830000Y-62373823D02*
X45170000Y-62373823D01*
X50889000Y-62333823D02*
X45111000Y-62333823D01*
X50945000Y-62293823D02*
X45055000Y-62293823D01*
X51000000Y-62253823D02*
X45000000Y-62253823D01*
X51054000Y-62213823D02*
X44946000Y-62213823D01*
X51106000Y-62173823D02*
X44894000Y-62173823D01*
X51156000Y-62133823D02*
X44844000Y-62133823D01*
X51206000Y-62093823D02*
X44794000Y-62093823D01*
X51254000Y-62053823D02*
X44746000Y-62053823D01*
X51301000Y-62013823D02*
X44699000Y-62013823D01*
X51347000Y-61973823D02*
X44653000Y-61973823D01*
X51392000Y-61933823D02*
X44608000Y-61933823D01*
X51436000Y-61893823D02*
X44564000Y-61893823D01*
X51478000Y-61853823D02*
X49241000Y-61853823D01*
X51520000Y-61813823D02*
X49241000Y-61813823D01*
X51561000Y-61773823D02*
X49241000Y-61773823D01*
X51601000Y-61733823D02*
X49241000Y-61733823D01*
X51640000Y-61693823D02*
X49241000Y-61693823D01*
X51679000Y-61653823D02*
X49241000Y-61653823D01*
X51716000Y-61613823D02*
X49241000Y-61613823D01*
X51753000Y-61573823D02*
X49241000Y-61573823D01*
X51789000Y-61533823D02*
X49241000Y-61533823D01*
X51824000Y-61493823D02*
X49241000Y-61493823D01*
X51858000Y-61453823D02*
X49241000Y-61453823D01*
X51892000Y-61413823D02*
X49241000Y-61413823D01*
X51925000Y-61373823D02*
X49241000Y-61373823D01*
X51957000Y-61333823D02*
X49241000Y-61333823D01*
X51989000Y-61293823D02*
X49241000Y-61293823D01*
X52020000Y-61253823D02*
X49241000Y-61253823D01*
X52050000Y-61213823D02*
X49241000Y-61213823D01*
X52080000Y-61173823D02*
X49241000Y-61173823D01*
X52110000Y-61133823D02*
X49241000Y-61133823D01*
X52138000Y-61093823D02*
X49241000Y-61093823D01*
X52166000Y-61053823D02*
X49241000Y-61053823D01*
X52194000Y-61013823D02*
X49241000Y-61013823D01*
X52221000Y-60973823D02*
X49241000Y-60973823D01*
X52247000Y-60933823D02*
X49241000Y-60933823D01*
X52273000Y-60893823D02*
X49241000Y-60893823D01*
X52298000Y-60853823D02*
X49241000Y-60853823D01*
X52323000Y-60813823D02*
X49241000Y-60813823D01*
X52347000Y-60773823D02*
X49241000Y-60773823D01*
X52371000Y-60733823D02*
X49241000Y-60733823D01*
X52395000Y-60693823D02*
X49241000Y-60693823D01*
X52417000Y-60653823D02*
X49241000Y-60653823D01*
X52440000Y-60613823D02*
X49241000Y-60613823D01*
X52462000Y-60573823D02*
X49241000Y-60573823D01*
X52483000Y-60533823D02*
X49241000Y-60533823D01*
X52504000Y-60493823D02*
X49241000Y-60493823D01*
X52525000Y-60453823D02*
X49241000Y-60453823D01*
X52545000Y-60413823D02*
X49241000Y-60413823D01*
X52564000Y-60373823D02*
X49241000Y-60373823D01*
X52584000Y-60333823D02*
X49241000Y-60333823D01*
X52603000Y-60293823D02*
X49241000Y-60293823D01*
X52621000Y-60253823D02*
X49241000Y-60253823D01*
X52639000Y-60213823D02*
X49241000Y-60213823D01*
X52657000Y-60173823D02*
X49241000Y-60173823D01*
X52674000Y-60133823D02*
X49241000Y-60133823D01*
X52690000Y-60093823D02*
X49241000Y-60093823D01*
X52707000Y-60053823D02*
X49241000Y-60053823D01*
X52723000Y-60013823D02*
X49241000Y-60013823D01*
X52738000Y-59973823D02*
X49241000Y-59973823D01*
X52754000Y-59933823D02*
X49241000Y-59933823D01*
X52768000Y-59893823D02*
X49241000Y-59893823D01*
X52783000Y-59853823D02*
X49241000Y-59853823D01*
X52797000Y-59813823D02*
X49241000Y-59813823D01*
X52811000Y-59773823D02*
X49241000Y-59773823D01*
X52824000Y-59733823D02*
X49241000Y-59733823D01*
X52837000Y-59693823D02*
X49241000Y-59693823D01*
X52850000Y-59653823D02*
X49241000Y-59653823D01*
X52862000Y-59613823D02*
X49241000Y-59613823D01*
X52874000Y-59573823D02*
X49241000Y-59573823D01*
X52885000Y-59533823D02*
X49241000Y-59533823D01*
X52897000Y-59493823D02*
X49241000Y-59493823D01*
X52907000Y-59453823D02*
X49241000Y-59453823D01*
X52918000Y-59413823D02*
X49241000Y-59413823D01*
X52928000Y-59373823D02*
X43072000Y-59373823D01*
X52938000Y-59333823D02*
X43062000Y-59333823D01*
X52947000Y-59293823D02*
X43053000Y-59293823D01*
X52956000Y-59253823D02*
X43044000Y-59253823D01*
X52965000Y-59213823D02*
X43035000Y-59213823D01*
X52974000Y-59173823D02*
X43026000Y-59173823D01*
X52982000Y-59133823D02*
X43018000Y-59133823D01*
X52990000Y-59093823D02*
X43010000Y-59093823D01*
X52997000Y-59053823D02*
X43003000Y-59053823D01*
X53004000Y-59013823D02*
X42996000Y-59013823D01*
X53011000Y-58973823D02*
X42989000Y-58973823D01*
X53018000Y-58933823D02*
X42982000Y-58933823D01*
X53024000Y-58893823D02*
X42976000Y-58893823D01*
X53030000Y-58853823D02*
X42970000Y-58853823D01*
X53035000Y-58812823D02*
X42965000Y-58812823D01*
X53040000Y-58772823D02*
X42960000Y-58772823D01*
X53045000Y-58732823D02*
X42955000Y-58732823D01*
X53050000Y-58692823D02*
X42950000Y-58692823D01*
X53054000Y-58652823D02*
X42946000Y-58652823D01*
X53058000Y-58612823D02*
X42942000Y-58612823D01*
X53062000Y-58572823D02*
X42938000Y-58572823D01*
X53065000Y-58532823D02*
X42935000Y-58532823D01*
X53068000Y-58492823D02*
X42932000Y-58492823D01*
X53070000Y-58452823D02*
X42930000Y-58452823D01*
X53073000Y-58412823D02*
X42927000Y-58412823D01*
X53075000Y-58372823D02*
X42925000Y-58372823D01*
X53077000Y-58332823D02*
X42923000Y-58332823D01*
X53078000Y-58292823D02*
X42922000Y-58292823D01*
X53079000Y-58252823D02*
X42921000Y-58252823D01*
X53080000Y-58132823D02*
X42920000Y-58132823D01*
X53080000Y-58172823D02*
X42920000Y-58172823D01*
X53080000Y-58212823D02*
X42920000Y-58212823D01*
X53120000Y-58132823D02*
G75*
G02*
X42880000Y-58132823I-5120000J0D01*
G01*
X42880000Y-58132823D02*
G75*
G02*
X53120000Y-58132823I5120000J0D01*
G01*
X88759000Y-25413823D02*
X85082000Y-25413823D01*
X88759000Y-25453823D02*
X85093000Y-25453823D01*
X88759000Y-25493823D02*
X85103000Y-25493823D01*
X88759000Y-25533823D02*
X85115000Y-25533823D01*
X88759000Y-25573823D02*
X85126000Y-25573823D01*
X88759000Y-25613823D02*
X85138000Y-25613823D01*
X88759000Y-25653823D02*
X85150000Y-25653823D01*
X88759000Y-25693823D02*
X85163000Y-25693823D01*
X88759000Y-25733823D02*
X85176000Y-25733823D01*
X88759000Y-25773823D02*
X85189000Y-25773823D01*
X88759000Y-25813823D02*
X85203000Y-25813823D01*
X88759000Y-25853823D02*
X85217000Y-25853823D01*
X88759000Y-25893823D02*
X85232000Y-25893823D01*
X88759000Y-25933823D02*
X85246000Y-25933823D01*
X88759000Y-25973823D02*
X85262000Y-25973823D01*
X88759000Y-26013823D02*
X85277000Y-26013823D01*
X88759000Y-26053823D02*
X85293000Y-26053823D01*
X88759000Y-26093823D02*
X85310000Y-26093823D01*
X88759000Y-26133823D02*
X85326000Y-26133823D01*
X88759000Y-26173823D02*
X85343000Y-26173823D01*
X88759000Y-26213823D02*
X85361000Y-26213823D01*
X88759000Y-26253823D02*
X85379000Y-26253823D01*
X88759000Y-26293823D02*
X85397000Y-26293823D01*
X88759000Y-26333823D02*
X85416000Y-26333823D01*
X88759000Y-26373823D02*
X85436000Y-26373823D01*
X88759000Y-26413823D02*
X85455000Y-26413823D01*
X88759000Y-26453823D02*
X85475000Y-26453823D01*
X88759000Y-26493823D02*
X85496000Y-26493823D01*
X88759000Y-26533823D02*
X85517000Y-26533823D01*
X88759000Y-26573823D02*
X85538000Y-26573823D01*
X88759000Y-26613823D02*
X85560000Y-26613823D01*
X88759000Y-26653823D02*
X85583000Y-26653823D01*
X88759000Y-26693823D02*
X85605000Y-26693823D01*
X88759000Y-26733823D02*
X85629000Y-26733823D01*
X88759000Y-26773823D02*
X85653000Y-26773823D01*
X88759000Y-26813823D02*
X85677000Y-26813823D01*
X88759000Y-26853823D02*
X85702000Y-26853823D01*
X88759000Y-26893823D02*
X85727000Y-26893823D01*
X88759000Y-26933823D02*
X85753000Y-26933823D01*
X88759000Y-26973823D02*
X85779000Y-26973823D01*
X88759000Y-27013823D02*
X85806000Y-27013823D01*
X88759000Y-27053823D02*
X85834000Y-27053823D01*
X88759000Y-27093823D02*
X85862000Y-27093823D01*
X88759000Y-27133823D02*
X85890000Y-27133823D01*
X88759000Y-27173823D02*
X85920000Y-27173823D01*
X88759000Y-27213823D02*
X85950000Y-27213823D01*
X88759000Y-27253823D02*
X85980000Y-27253823D01*
X88759000Y-27293823D02*
X86011000Y-27293823D01*
X88759000Y-27333823D02*
X86043000Y-27333823D01*
X88759000Y-27373823D02*
X86075000Y-27373823D01*
X88759000Y-27413823D02*
X86108000Y-27413823D01*
X88759000Y-27453823D02*
X86142000Y-27453823D01*
X88759000Y-27493823D02*
X86176000Y-27493823D01*
X88759000Y-27533823D02*
X86211000Y-27533823D01*
X88759000Y-27573823D02*
X86247000Y-27573823D01*
X88759000Y-27613823D02*
X86284000Y-27613823D01*
X88759000Y-27653823D02*
X86321000Y-27653823D01*
X88759000Y-27693823D02*
X86360000Y-27693823D01*
X88759000Y-27733823D02*
X86399000Y-27733823D01*
X88759000Y-27773823D02*
X86439000Y-27773823D01*
X88759000Y-27813823D02*
X86480000Y-27813823D01*
X88759000Y-27853823D02*
X86522000Y-27853823D01*
X90599000Y-29213823D02*
X89401000Y-29213823D01*
X90862000Y-29173823D02*
X89138000Y-29173823D01*
X91062000Y-29133823D02*
X88938000Y-29133823D01*
X91230000Y-29093823D02*
X88770000Y-29093823D01*
X91378000Y-29053823D02*
X88622000Y-29053823D01*
X91510000Y-29013823D02*
X88490000Y-29013823D01*
X91630000Y-28973823D02*
X88370000Y-28973823D01*
X91742000Y-28933823D02*
X88258000Y-28933823D01*
X91846000Y-28893823D02*
X88154000Y-28893823D01*
X91944000Y-28853823D02*
X88056000Y-28853823D01*
X92037000Y-28813823D02*
X87963000Y-28813823D01*
X92125000Y-28773823D02*
X87875000Y-28773823D01*
X92209000Y-28733823D02*
X87791000Y-28733823D01*
X92289000Y-28693823D02*
X87711000Y-28693823D01*
X92365000Y-28653823D02*
X87635000Y-28653823D01*
X92439000Y-28613823D02*
X87561000Y-28613823D01*
X92510000Y-28573823D02*
X87490000Y-28573823D01*
X92579000Y-28533823D02*
X87421000Y-28533823D01*
X92645000Y-28493823D02*
X87355000Y-28493823D01*
X92709000Y-28453823D02*
X87291000Y-28453823D01*
X92770000Y-28413823D02*
X87230000Y-28413823D01*
X92830000Y-28373823D02*
X87170000Y-28373823D01*
X92889000Y-28333823D02*
X87111000Y-28333823D01*
X92945000Y-28293823D02*
X87055000Y-28293823D01*
X93000000Y-28253823D02*
X87000000Y-28253823D01*
X93054000Y-28213823D02*
X86946000Y-28213823D01*
X93106000Y-28173823D02*
X86894000Y-28173823D01*
X93156000Y-28133823D02*
X86844000Y-28133823D01*
X93206000Y-28093823D02*
X86794000Y-28093823D01*
X93254000Y-28053823D02*
X86746000Y-28053823D01*
X93301000Y-28013823D02*
X86699000Y-28013823D01*
X93347000Y-27973823D02*
X86653000Y-27973823D01*
X93392000Y-27933823D02*
X86608000Y-27933823D01*
X93436000Y-27893823D02*
X86564000Y-27893823D01*
X93478000Y-27853823D02*
X91241000Y-27853823D01*
X93520000Y-27813823D02*
X91241000Y-27813823D01*
X93561000Y-27773823D02*
X91241000Y-27773823D01*
X93601000Y-27733823D02*
X91241000Y-27733823D01*
X93640000Y-27693823D02*
X91241000Y-27693823D01*
X93679000Y-27653823D02*
X91241000Y-27653823D01*
X93716000Y-27613823D02*
X91241000Y-27613823D01*
X93753000Y-27573823D02*
X91241000Y-27573823D01*
X93789000Y-27533823D02*
X91241000Y-27533823D01*
X93824000Y-27493823D02*
X91241000Y-27493823D01*
X93858000Y-27453823D02*
X91241000Y-27453823D01*
X93892000Y-27413823D02*
X91241000Y-27413823D01*
X93925000Y-27373823D02*
X91241000Y-27373823D01*
X93957000Y-27333823D02*
X91241000Y-27333823D01*
X93989000Y-27293823D02*
X91241000Y-27293823D01*
X94020000Y-27253823D02*
X91241000Y-27253823D01*
X94050000Y-27213823D02*
X91241000Y-27213823D01*
X94080000Y-27173823D02*
X91241000Y-27173823D01*
X94110000Y-27133823D02*
X91241000Y-27133823D01*
X94138000Y-27093823D02*
X91241000Y-27093823D01*
X94166000Y-27053823D02*
X91241000Y-27053823D01*
X94194000Y-27013823D02*
X91241000Y-27013823D01*
X94221000Y-26973823D02*
X91241000Y-26973823D01*
X94247000Y-26933823D02*
X91241000Y-26933823D01*
X94273000Y-26893823D02*
X91241000Y-26893823D01*
X94298000Y-26853823D02*
X91241000Y-26853823D01*
X94323000Y-26813823D02*
X91241000Y-26813823D01*
X94347000Y-26773823D02*
X91241000Y-26773823D01*
X94371000Y-26733823D02*
X91241000Y-26733823D01*
X94395000Y-26693823D02*
X91241000Y-26693823D01*
X94417000Y-26653823D02*
X91241000Y-26653823D01*
X94440000Y-26613823D02*
X91241000Y-26613823D01*
X94462000Y-26573823D02*
X91241000Y-26573823D01*
X94483000Y-26533823D02*
X91241000Y-26533823D01*
X94504000Y-26493823D02*
X91241000Y-26493823D01*
X94525000Y-26453823D02*
X91241000Y-26453823D01*
X94545000Y-26413823D02*
X91241000Y-26413823D01*
X94564000Y-26373823D02*
X91241000Y-26373823D01*
X94584000Y-26333823D02*
X91241000Y-26333823D01*
X94603000Y-26293823D02*
X91241000Y-26293823D01*
X94621000Y-26253823D02*
X91241000Y-26253823D01*
X94639000Y-26213823D02*
X91241000Y-26213823D01*
X94657000Y-26173823D02*
X91241000Y-26173823D01*
X94674000Y-26133823D02*
X91241000Y-26133823D01*
X94690000Y-26093823D02*
X91241000Y-26093823D01*
X94707000Y-26053823D02*
X91241000Y-26053823D01*
X94723000Y-26013823D02*
X91241000Y-26013823D01*
X94738000Y-25973823D02*
X91241000Y-25973823D01*
X94754000Y-25933823D02*
X91241000Y-25933823D01*
X94768000Y-25893823D02*
X91241000Y-25893823D01*
X94783000Y-25853823D02*
X91241000Y-25853823D01*
X94797000Y-25813823D02*
X91241000Y-25813823D01*
X94811000Y-25773823D02*
X91241000Y-25773823D01*
X94824000Y-25733823D02*
X91241000Y-25733823D01*
X94837000Y-25693823D02*
X91241000Y-25693823D01*
X94850000Y-25653823D02*
X91241000Y-25653823D01*
X94862000Y-25613823D02*
X91241000Y-25613823D01*
X94874000Y-25573823D02*
X91241000Y-25573823D01*
X94885000Y-25533823D02*
X91241000Y-25533823D01*
X94897000Y-25493823D02*
X91241000Y-25493823D01*
X94907000Y-25453823D02*
X91241000Y-25453823D01*
X94918000Y-25413823D02*
X91241000Y-25413823D01*
X94928000Y-25373823D02*
X85072000Y-25373823D01*
X94938000Y-25333823D02*
X85062000Y-25333823D01*
X94947000Y-25293823D02*
X85053000Y-25293823D01*
X94956000Y-25253823D02*
X85044000Y-25253823D01*
X94965000Y-25213823D02*
X85035000Y-25213823D01*
X94974000Y-25173823D02*
X85026000Y-25173823D01*
X94982000Y-25133823D02*
X85018000Y-25133823D01*
X94990000Y-25093823D02*
X85010000Y-25093823D01*
X94997000Y-25053823D02*
X85003000Y-25053823D01*
X95004000Y-25013823D02*
X84996000Y-25013823D01*
X95011000Y-24973823D02*
X84989000Y-24973823D01*
X95018000Y-24933823D02*
X84982000Y-24933823D01*
X95024000Y-24893823D02*
X84976000Y-24893823D01*
X95030000Y-24853823D02*
X84970000Y-24853823D01*
X95035000Y-24812823D02*
X84965000Y-24812823D01*
X95040000Y-24772823D02*
X84960000Y-24772823D01*
X95045000Y-24732823D02*
X84955000Y-24732823D01*
X95050000Y-24692823D02*
X84950000Y-24692823D01*
X95054000Y-24652823D02*
X84946000Y-24652823D01*
X95058000Y-24612823D02*
X84942000Y-24612823D01*
X95062000Y-24572823D02*
X84938000Y-24572823D01*
X95065000Y-24532823D02*
X84935000Y-24532823D01*
X95068000Y-24492823D02*
X84932000Y-24492823D01*
X95070000Y-24452823D02*
X84930000Y-24452823D01*
X95073000Y-24412823D02*
X84927000Y-24412823D01*
X95075000Y-24372823D02*
X84925000Y-24372823D01*
X95077000Y-24332823D02*
X84923000Y-24332823D01*
X95078000Y-24292823D02*
X84922000Y-24292823D01*
X95079000Y-24252823D02*
X84921000Y-24252823D01*
X95080000Y-24132823D02*
X84920000Y-24132823D01*
X95080000Y-24172823D02*
X84920000Y-24172823D01*
X95080000Y-24212823D02*
X84920000Y-24212823D01*
X95120000Y-24132823D02*
G75*
G02*
X84880000Y-24132823I-5120000J0D01*
G01*
X84880000Y-24132823D02*
G75*
G02*
X95120000Y-24132823I5120000J0D01*
G01*
X60759000Y-59413823D02*
X57082000Y-59413823D01*
X60759000Y-59453823D02*
X57093000Y-59453823D01*
X60759000Y-59493823D02*
X57103000Y-59493823D01*
X60759000Y-59533823D02*
X57115000Y-59533823D01*
X60759000Y-59573823D02*
X57126000Y-59573823D01*
X60759000Y-59613823D02*
X57138000Y-59613823D01*
X60759000Y-59653823D02*
X57150000Y-59653823D01*
X60759000Y-59693823D02*
X57163000Y-59693823D01*
X60759000Y-59733823D02*
X57176000Y-59733823D01*
X60759000Y-59773823D02*
X57189000Y-59773823D01*
X60759000Y-59813823D02*
X57203000Y-59813823D01*
X60759000Y-59853823D02*
X57217000Y-59853823D01*
X60759000Y-59893823D02*
X57232000Y-59893823D01*
X60759000Y-59933823D02*
X57246000Y-59933823D01*
X60759000Y-59973823D02*
X57262000Y-59973823D01*
X60759000Y-60013823D02*
X57277000Y-60013823D01*
X60759000Y-60053823D02*
X57293000Y-60053823D01*
X60759000Y-60093823D02*
X57310000Y-60093823D01*
X60759000Y-60133823D02*
X57326000Y-60133823D01*
X60759000Y-60173823D02*
X57343000Y-60173823D01*
X60759000Y-60213823D02*
X57361000Y-60213823D01*
X60759000Y-60253823D02*
X57379000Y-60253823D01*
X60759000Y-60293823D02*
X57397000Y-60293823D01*
X60759000Y-60333823D02*
X57416000Y-60333823D01*
X60759000Y-60373823D02*
X57436000Y-60373823D01*
X60759000Y-60413823D02*
X57455000Y-60413823D01*
X60759000Y-60453823D02*
X57475000Y-60453823D01*
X60759000Y-60493823D02*
X57496000Y-60493823D01*
X60759000Y-60533823D02*
X57517000Y-60533823D01*
X60759000Y-60573823D02*
X57538000Y-60573823D01*
X60759000Y-60613823D02*
X57560000Y-60613823D01*
X60759000Y-60653823D02*
X57583000Y-60653823D01*
X60759000Y-60693823D02*
X57605000Y-60693823D01*
X60759000Y-60733823D02*
X57629000Y-60733823D01*
X60759000Y-60773823D02*
X57653000Y-60773823D01*
X60759000Y-60813823D02*
X57677000Y-60813823D01*
X60759000Y-60853823D02*
X57702000Y-60853823D01*
X60759000Y-60893823D02*
X57727000Y-60893823D01*
X60759000Y-60933823D02*
X57753000Y-60933823D01*
X60759000Y-60973823D02*
X57779000Y-60973823D01*
X60759000Y-61013823D02*
X57806000Y-61013823D01*
X60759000Y-61053823D02*
X57834000Y-61053823D01*
X60759000Y-61093823D02*
X57862000Y-61093823D01*
X60759000Y-61133823D02*
X57890000Y-61133823D01*
X60759000Y-61173823D02*
X57920000Y-61173823D01*
X60759000Y-61213823D02*
X57950000Y-61213823D01*
X60759000Y-61253823D02*
X57980000Y-61253823D01*
X60759000Y-61293823D02*
X58011000Y-61293823D01*
X60759000Y-61333823D02*
X58043000Y-61333823D01*
X60759000Y-61373823D02*
X58075000Y-61373823D01*
X60759000Y-61413823D02*
X58108000Y-61413823D01*
X60759000Y-61453823D02*
X58142000Y-61453823D01*
X60759000Y-61493823D02*
X58176000Y-61493823D01*
X60759000Y-61533823D02*
X58211000Y-61533823D01*
X60759000Y-61573823D02*
X58247000Y-61573823D01*
X60759000Y-61613823D02*
X58284000Y-61613823D01*
X60759000Y-61653823D02*
X58321000Y-61653823D01*
X60759000Y-61693823D02*
X58360000Y-61693823D01*
X60759000Y-61733823D02*
X58399000Y-61733823D01*
X60759000Y-61773823D02*
X58439000Y-61773823D01*
X60759000Y-61813823D02*
X58480000Y-61813823D01*
X60759000Y-61853823D02*
X58522000Y-61853823D01*
X62599000Y-63213823D02*
X61401000Y-63213823D01*
X62862000Y-63173823D02*
X61138000Y-63173823D01*
X63062000Y-63133823D02*
X60938000Y-63133823D01*
X63230000Y-63093823D02*
X60770000Y-63093823D01*
X63378000Y-63053823D02*
X60622000Y-63053823D01*
X63510000Y-63013823D02*
X60490000Y-63013823D01*
X63630000Y-62973823D02*
X60370000Y-62973823D01*
X63742000Y-62933823D02*
X60258000Y-62933823D01*
X63846000Y-62893823D02*
X60154000Y-62893823D01*
X63944000Y-62853823D02*
X60056000Y-62853823D01*
X64037000Y-62813823D02*
X59963000Y-62813823D01*
X64125000Y-62773823D02*
X59875000Y-62773823D01*
X64209000Y-62733823D02*
X59791000Y-62733823D01*
X64289000Y-62693823D02*
X59711000Y-62693823D01*
X64365000Y-62653823D02*
X59635000Y-62653823D01*
X64439000Y-62613823D02*
X59561000Y-62613823D01*
X64510000Y-62573823D02*
X59490000Y-62573823D01*
X64579000Y-62533823D02*
X59421000Y-62533823D01*
X64645000Y-62493823D02*
X59355000Y-62493823D01*
X64709000Y-62453823D02*
X59291000Y-62453823D01*
X64770000Y-62413823D02*
X59230000Y-62413823D01*
X64830000Y-62373823D02*
X59170000Y-62373823D01*
X64889000Y-62333823D02*
X59111000Y-62333823D01*
X64945000Y-62293823D02*
X59055000Y-62293823D01*
X65000000Y-62253823D02*
X59000000Y-62253823D01*
X65054000Y-62213823D02*
X58946000Y-62213823D01*
X65106000Y-62173823D02*
X58894000Y-62173823D01*
X65156000Y-62133823D02*
X58844000Y-62133823D01*
X65206000Y-62093823D02*
X58794000Y-62093823D01*
X65254000Y-62053823D02*
X58746000Y-62053823D01*
X65301000Y-62013823D02*
X58699000Y-62013823D01*
X65347000Y-61973823D02*
X58653000Y-61973823D01*
X65392000Y-61933823D02*
X58608000Y-61933823D01*
X65436000Y-61893823D02*
X58564000Y-61893823D01*
X65478000Y-61853823D02*
X63241000Y-61853823D01*
X65520000Y-61813823D02*
X63241000Y-61813823D01*
X65561000Y-61773823D02*
X63241000Y-61773823D01*
X65601000Y-61733823D02*
X63241000Y-61733823D01*
X65640000Y-61693823D02*
X63241000Y-61693823D01*
X65679000Y-61653823D02*
X63241000Y-61653823D01*
X65716000Y-61613823D02*
X63241000Y-61613823D01*
X65753000Y-61573823D02*
X63241000Y-61573823D01*
X65789000Y-61533823D02*
X63241000Y-61533823D01*
X65824000Y-61493823D02*
X63241000Y-61493823D01*
X65858000Y-61453823D02*
X63241000Y-61453823D01*
X65892000Y-61413823D02*
X63241000Y-61413823D01*
X65925000Y-61373823D02*
X63241000Y-61373823D01*
X65957000Y-61333823D02*
X63241000Y-61333823D01*
X65989000Y-61293823D02*
X63241000Y-61293823D01*
X66020000Y-61253823D02*
X63241000Y-61253823D01*
X66050000Y-61213823D02*
X63241000Y-61213823D01*
X66080000Y-61173823D02*
X63241000Y-61173823D01*
X66110000Y-61133823D02*
X63241000Y-61133823D01*
X66138000Y-61093823D02*
X63241000Y-61093823D01*
X66166000Y-61053823D02*
X63241000Y-61053823D01*
X66194000Y-61013823D02*
X63241000Y-61013823D01*
X66221000Y-60973823D02*
X63241000Y-60973823D01*
X66247000Y-60933823D02*
X63241000Y-60933823D01*
X66273000Y-60893823D02*
X63241000Y-60893823D01*
X66298000Y-60853823D02*
X63241000Y-60853823D01*
X66323000Y-60813823D02*
X63241000Y-60813823D01*
X66347000Y-60773823D02*
X63241000Y-60773823D01*
X66371000Y-60733823D02*
X63241000Y-60733823D01*
X66395000Y-60693823D02*
X63241000Y-60693823D01*
X66417000Y-60653823D02*
X63241000Y-60653823D01*
X66440000Y-60613823D02*
X63241000Y-60613823D01*
X66462000Y-60573823D02*
X63241000Y-60573823D01*
X66483000Y-60533823D02*
X63241000Y-60533823D01*
X66504000Y-60493823D02*
X63241000Y-60493823D01*
X66525000Y-60453823D02*
X63241000Y-60453823D01*
X66545000Y-60413823D02*
X63241000Y-60413823D01*
X66564000Y-60373823D02*
X63241000Y-60373823D01*
X66584000Y-60333823D02*
X63241000Y-60333823D01*
X66603000Y-60293823D02*
X63241000Y-60293823D01*
X66621000Y-60253823D02*
X63241000Y-60253823D01*
X66639000Y-60213823D02*
X63241000Y-60213823D01*
X66657000Y-60173823D02*
X63241000Y-60173823D01*
X66674000Y-60133823D02*
X63241000Y-60133823D01*
X66690000Y-60093823D02*
X63241000Y-60093823D01*
X66707000Y-60053823D02*
X63241000Y-60053823D01*
X66723000Y-60013823D02*
X63241000Y-60013823D01*
X66738000Y-59973823D02*
X63241000Y-59973823D01*
X66754000Y-59933823D02*
X63241000Y-59933823D01*
X66768000Y-59893823D02*
X63241000Y-59893823D01*
X66783000Y-59853823D02*
X63241000Y-59853823D01*
X66797000Y-59813823D02*
X63241000Y-59813823D01*
X66811000Y-59773823D02*
X63241000Y-59773823D01*
X66824000Y-59733823D02*
X63241000Y-59733823D01*
X66837000Y-59693823D02*
X63241000Y-59693823D01*
X66850000Y-59653823D02*
X63241000Y-59653823D01*
X66862000Y-59613823D02*
X63241000Y-59613823D01*
X66874000Y-59573823D02*
X63241000Y-59573823D01*
X66885000Y-59533823D02*
X63241000Y-59533823D01*
X66897000Y-59493823D02*
X63241000Y-59493823D01*
X66907000Y-59453823D02*
X63241000Y-59453823D01*
X66918000Y-59413823D02*
X63241000Y-59413823D01*
X66928000Y-59373823D02*
X57072000Y-59373823D01*
X66938000Y-59333823D02*
X57062000Y-59333823D01*
X66947000Y-59293823D02*
X57053000Y-59293823D01*
X66956000Y-59253823D02*
X57044000Y-59253823D01*
X66965000Y-59213823D02*
X57035000Y-59213823D01*
X66974000Y-59173823D02*
X57026000Y-59173823D01*
X66982000Y-59133823D02*
X57018000Y-59133823D01*
X66990000Y-59093823D02*
X57010000Y-59093823D01*
X66997000Y-59053823D02*
X57003000Y-59053823D01*
X67004000Y-59013823D02*
X56996000Y-59013823D01*
X67011000Y-58973823D02*
X56989000Y-58973823D01*
X67018000Y-58933823D02*
X56982000Y-58933823D01*
X67024000Y-58893823D02*
X56976000Y-58893823D01*
X67030000Y-58853823D02*
X56970000Y-58853823D01*
X67035000Y-58812823D02*
X56965000Y-58812823D01*
X67040000Y-58772823D02*
X56960000Y-58772823D01*
X67045000Y-58732823D02*
X56955000Y-58732823D01*
X67050000Y-58692823D02*
X56950000Y-58692823D01*
X67054000Y-58652823D02*
X56946000Y-58652823D01*
X67058000Y-58612823D02*
X56942000Y-58612823D01*
X67062000Y-58572823D02*
X56938000Y-58572823D01*
X67065000Y-58532823D02*
X56935000Y-58532823D01*
X67068000Y-58492823D02*
X56932000Y-58492823D01*
X67070000Y-58452823D02*
X56930000Y-58452823D01*
X67073000Y-58412823D02*
X56927000Y-58412823D01*
X67075000Y-58372823D02*
X56925000Y-58372823D01*
X67077000Y-58332823D02*
X56923000Y-58332823D01*
X67078000Y-58292823D02*
X56922000Y-58292823D01*
X67079000Y-58252823D02*
X56921000Y-58252823D01*
X67080000Y-58132823D02*
X56920000Y-58132823D01*
X67080000Y-58172823D02*
X56920000Y-58172823D01*
X67080000Y-58212823D02*
X56920000Y-58212823D01*
X67120000Y-58132823D02*
G75*
G02*
X56880000Y-58132823I-5120000J0D01*
G01*
X56880000Y-58132823D02*
G75*
G02*
X67120000Y-58132823I5120000J0D01*
G01*
X74759000Y-25413823D02*
X71082000Y-25413823D01*
X74759000Y-25453823D02*
X71093000Y-25453823D01*
X74759000Y-25493823D02*
X71103000Y-25493823D01*
X74759000Y-25533823D02*
X71115000Y-25533823D01*
X74759000Y-25573823D02*
X71126000Y-25573823D01*
X74759000Y-25613823D02*
X71138000Y-25613823D01*
X74759000Y-25653823D02*
X71150000Y-25653823D01*
X74759000Y-25693823D02*
X71163000Y-25693823D01*
X74759000Y-25733823D02*
X71176000Y-25733823D01*
X74759000Y-25773823D02*
X71189000Y-25773823D01*
X74759000Y-25813823D02*
X71203000Y-25813823D01*
X74759000Y-25853823D02*
X71217000Y-25853823D01*
X74759000Y-25893823D02*
X71232000Y-25893823D01*
X74759000Y-25933823D02*
X71246000Y-25933823D01*
X74759000Y-25973823D02*
X71262000Y-25973823D01*
X74759000Y-26013823D02*
X71277000Y-26013823D01*
X74759000Y-26053823D02*
X71293000Y-26053823D01*
X74759000Y-26093823D02*
X71310000Y-26093823D01*
X74759000Y-26133823D02*
X71326000Y-26133823D01*
X74759000Y-26173823D02*
X71343000Y-26173823D01*
X74759000Y-26213823D02*
X71361000Y-26213823D01*
X74759000Y-26253823D02*
X71379000Y-26253823D01*
X74759000Y-26293823D02*
X71397000Y-26293823D01*
X74759000Y-26333823D02*
X71416000Y-26333823D01*
X74759000Y-26373823D02*
X71436000Y-26373823D01*
X74759000Y-26413823D02*
X71455000Y-26413823D01*
X74759000Y-26453823D02*
X71475000Y-26453823D01*
X74759000Y-26493823D02*
X71496000Y-26493823D01*
X74759000Y-26533823D02*
X71517000Y-26533823D01*
X74759000Y-26573823D02*
X71538000Y-26573823D01*
X74759000Y-26613823D02*
X71560000Y-26613823D01*
X74759000Y-26653823D02*
X71583000Y-26653823D01*
X74759000Y-26693823D02*
X71605000Y-26693823D01*
X74759000Y-26733823D02*
X71629000Y-26733823D01*
X74759000Y-26773823D02*
X71653000Y-26773823D01*
X74759000Y-26813823D02*
X71677000Y-26813823D01*
X74759000Y-26853823D02*
X71702000Y-26853823D01*
X74759000Y-26893823D02*
X71727000Y-26893823D01*
X74759000Y-26933823D02*
X71753000Y-26933823D01*
X74759000Y-26973823D02*
X71779000Y-26973823D01*
X74759000Y-27013823D02*
X71806000Y-27013823D01*
X74759000Y-27053823D02*
X71834000Y-27053823D01*
X74759000Y-27093823D02*
X71862000Y-27093823D01*
X74759000Y-27133823D02*
X71890000Y-27133823D01*
X74759000Y-27173823D02*
X71920000Y-27173823D01*
X74759000Y-27213823D02*
X71950000Y-27213823D01*
X74759000Y-27253823D02*
X71980000Y-27253823D01*
X74759000Y-27293823D02*
X72011000Y-27293823D01*
X74759000Y-27333823D02*
X72043000Y-27333823D01*
X74759000Y-27373823D02*
X72075000Y-27373823D01*
X74759000Y-27413823D02*
X72108000Y-27413823D01*
X74759000Y-27453823D02*
X72142000Y-27453823D01*
X74759000Y-27493823D02*
X72176000Y-27493823D01*
X74759000Y-27533823D02*
X72211000Y-27533823D01*
X74759000Y-27573823D02*
X72247000Y-27573823D01*
X74759000Y-27613823D02*
X72284000Y-27613823D01*
X74759000Y-27653823D02*
X72321000Y-27653823D01*
X74759000Y-27693823D02*
X72360000Y-27693823D01*
X74759000Y-27733823D02*
X72399000Y-27733823D01*
X74759000Y-27773823D02*
X72439000Y-27773823D01*
X74759000Y-27813823D02*
X72480000Y-27813823D01*
X74759000Y-27853823D02*
X72522000Y-27853823D01*
X76599000Y-29213823D02*
X75401000Y-29213823D01*
X76862000Y-29173823D02*
X75138000Y-29173823D01*
X77062000Y-29133823D02*
X74938000Y-29133823D01*
X77230000Y-29093823D02*
X74770000Y-29093823D01*
X77378000Y-29053823D02*
X74622000Y-29053823D01*
X77510000Y-29013823D02*
X74490000Y-29013823D01*
X77630000Y-28973823D02*
X74370000Y-28973823D01*
X77742000Y-28933823D02*
X74258000Y-28933823D01*
X77846000Y-28893823D02*
X74154000Y-28893823D01*
X77944000Y-28853823D02*
X74056000Y-28853823D01*
X78037000Y-28813823D02*
X73963000Y-28813823D01*
X78125000Y-28773823D02*
X73875000Y-28773823D01*
X78209000Y-28733823D02*
X73791000Y-28733823D01*
X78289000Y-28693823D02*
X73711000Y-28693823D01*
X78365000Y-28653823D02*
X73635000Y-28653823D01*
X78439000Y-28613823D02*
X73561000Y-28613823D01*
X78510000Y-28573823D02*
X73490000Y-28573823D01*
X78579000Y-28533823D02*
X73421000Y-28533823D01*
X78645000Y-28493823D02*
X73355000Y-28493823D01*
X78709000Y-28453823D02*
X73291000Y-28453823D01*
X78770000Y-28413823D02*
X73230000Y-28413823D01*
X78830000Y-28373823D02*
X73170000Y-28373823D01*
X78889000Y-28333823D02*
X73111000Y-28333823D01*
X78945000Y-28293823D02*
X73055000Y-28293823D01*
X79000000Y-28253823D02*
X73000000Y-28253823D01*
X79054000Y-28213823D02*
X72946000Y-28213823D01*
X79106000Y-28173823D02*
X72894000Y-28173823D01*
X79156000Y-28133823D02*
X72844000Y-28133823D01*
X79206000Y-28093823D02*
X72794000Y-28093823D01*
X79254000Y-28053823D02*
X72746000Y-28053823D01*
X79301000Y-28013823D02*
X72699000Y-28013823D01*
X79347000Y-27973823D02*
X72653000Y-27973823D01*
X79392000Y-27933823D02*
X72608000Y-27933823D01*
X79436000Y-27893823D02*
X72564000Y-27893823D01*
X79478000Y-27853823D02*
X77241000Y-27853823D01*
X79520000Y-27813823D02*
X77241000Y-27813823D01*
X79561000Y-27773823D02*
X77241000Y-27773823D01*
X79601000Y-27733823D02*
X77241000Y-27733823D01*
X79640000Y-27693823D02*
X77241000Y-27693823D01*
X79679000Y-27653823D02*
X77241000Y-27653823D01*
X79716000Y-27613823D02*
X77241000Y-27613823D01*
X79753000Y-27573823D02*
X77241000Y-27573823D01*
X79789000Y-27533823D02*
X77241000Y-27533823D01*
X79824000Y-27493823D02*
X77241000Y-27493823D01*
X79858000Y-27453823D02*
X77241000Y-27453823D01*
X79892000Y-27413823D02*
X77241000Y-27413823D01*
X79925000Y-27373823D02*
X77241000Y-27373823D01*
X79957000Y-27333823D02*
X77241000Y-27333823D01*
X79989000Y-27293823D02*
X77241000Y-27293823D01*
X80020000Y-27253823D02*
X77241000Y-27253823D01*
X80050000Y-27213823D02*
X77241000Y-27213823D01*
X80080000Y-27173823D02*
X77241000Y-27173823D01*
X80110000Y-27133823D02*
X77241000Y-27133823D01*
X80138000Y-27093823D02*
X77241000Y-27093823D01*
X80166000Y-27053823D02*
X77241000Y-27053823D01*
X80194000Y-27013823D02*
X77241000Y-27013823D01*
X80221000Y-26973823D02*
X77241000Y-26973823D01*
X80247000Y-26933823D02*
X77241000Y-26933823D01*
X80273000Y-26893823D02*
X77241000Y-26893823D01*
X80298000Y-26853823D02*
X77241000Y-26853823D01*
X80323000Y-26813823D02*
X77241000Y-26813823D01*
X80347000Y-26773823D02*
X77241000Y-26773823D01*
X80371000Y-26733823D02*
X77241000Y-26733823D01*
X80395000Y-26693823D02*
X77241000Y-26693823D01*
X80417000Y-26653823D02*
X77241000Y-26653823D01*
X80440000Y-26613823D02*
X77241000Y-26613823D01*
X80462000Y-26573823D02*
X77241000Y-26573823D01*
X80483000Y-26533823D02*
X77241000Y-26533823D01*
X80504000Y-26493823D02*
X77241000Y-26493823D01*
X80525000Y-26453823D02*
X77241000Y-26453823D01*
X80545000Y-26413823D02*
X77241000Y-26413823D01*
X80564000Y-26373823D02*
X77241000Y-26373823D01*
X80584000Y-26333823D02*
X77241000Y-26333823D01*
X80603000Y-26293823D02*
X77241000Y-26293823D01*
X80621000Y-26253823D02*
X77241000Y-26253823D01*
X80639000Y-26213823D02*
X77241000Y-26213823D01*
X80657000Y-26173823D02*
X77241000Y-26173823D01*
X80674000Y-26133823D02*
X77241000Y-26133823D01*
X80690000Y-26093823D02*
X77241000Y-26093823D01*
X80707000Y-26053823D02*
X77241000Y-26053823D01*
X80723000Y-26013823D02*
X77241000Y-26013823D01*
X80738000Y-25973823D02*
X77241000Y-25973823D01*
X80754000Y-25933823D02*
X77241000Y-25933823D01*
X80768000Y-25893823D02*
X77241000Y-25893823D01*
X80783000Y-25853823D02*
X77241000Y-25853823D01*
X80797000Y-25813823D02*
X77241000Y-25813823D01*
X80811000Y-25773823D02*
X77241000Y-25773823D01*
X80824000Y-25733823D02*
X77241000Y-25733823D01*
X80837000Y-25693823D02*
X77241000Y-25693823D01*
X80850000Y-25653823D02*
X77241000Y-25653823D01*
X80862000Y-25613823D02*
X77241000Y-25613823D01*
X80874000Y-25573823D02*
X77241000Y-25573823D01*
X80885000Y-25533823D02*
X77241000Y-25533823D01*
X80897000Y-25493823D02*
X77241000Y-25493823D01*
X80907000Y-25453823D02*
X77241000Y-25453823D01*
X80918000Y-25413823D02*
X77241000Y-25413823D01*
X80928000Y-25373823D02*
X71072000Y-25373823D01*
X80938000Y-25333823D02*
X71062000Y-25333823D01*
X80947000Y-25293823D02*
X71053000Y-25293823D01*
X80956000Y-25253823D02*
X71044000Y-25253823D01*
X80965000Y-25213823D02*
X71035000Y-25213823D01*
X80974000Y-25173823D02*
X71026000Y-25173823D01*
X80982000Y-25133823D02*
X71018000Y-25133823D01*
X80990000Y-25093823D02*
X71010000Y-25093823D01*
X80997000Y-25053823D02*
X71003000Y-25053823D01*
X81004000Y-25013823D02*
X70996000Y-25013823D01*
X81011000Y-24973823D02*
X70989000Y-24973823D01*
X81018000Y-24933823D02*
X70982000Y-24933823D01*
X81024000Y-24893823D02*
X70976000Y-24893823D01*
X81030000Y-24853823D02*
X70970000Y-24853823D01*
X81035000Y-24812823D02*
X70965000Y-24812823D01*
X81040000Y-24772823D02*
X70960000Y-24772823D01*
X81045000Y-24732823D02*
X70955000Y-24732823D01*
X81050000Y-24692823D02*
X70950000Y-24692823D01*
X81054000Y-24652823D02*
X70946000Y-24652823D01*
X81058000Y-24612823D02*
X70942000Y-24612823D01*
X81062000Y-24572823D02*
X70938000Y-24572823D01*
X81065000Y-24532823D02*
X70935000Y-24532823D01*
X81068000Y-24492823D02*
X70932000Y-24492823D01*
X81070000Y-24452823D02*
X70930000Y-24452823D01*
X81073000Y-24412823D02*
X70927000Y-24412823D01*
X81075000Y-24372823D02*
X70925000Y-24372823D01*
X81077000Y-24332823D02*
X70923000Y-24332823D01*
X81078000Y-24292823D02*
X70922000Y-24292823D01*
X81079000Y-24252823D02*
X70921000Y-24252823D01*
X81080000Y-24132823D02*
X70920000Y-24132823D01*
X81080000Y-24172823D02*
X70920000Y-24172823D01*
X81080000Y-24212823D02*
X70920000Y-24212823D01*
X81120000Y-24132823D02*
G75*
G02*
X70880000Y-24132823I-5120000J0D01*
G01*
X70880000Y-24132823D02*
G75*
G02*
X81120000Y-24132823I5120000J0D01*
G01*
X4759000Y-25413823D02*
X1082000Y-25413823D01*
X4759000Y-25453823D02*
X1093000Y-25453823D01*
X4759000Y-25493823D02*
X1103000Y-25493823D01*
X4759000Y-25533823D02*
X1115000Y-25533823D01*
X4759000Y-25573823D02*
X1126000Y-25573823D01*
X4759000Y-25613823D02*
X1138000Y-25613823D01*
X4759000Y-25653823D02*
X1150000Y-25653823D01*
X4759000Y-25693823D02*
X1163000Y-25693823D01*
X4759000Y-25733823D02*
X1176000Y-25733823D01*
X4759000Y-25773823D02*
X1189000Y-25773823D01*
X4759000Y-25813823D02*
X1203000Y-25813823D01*
X4759000Y-25853823D02*
X1217000Y-25853823D01*
X4759000Y-25893823D02*
X1232000Y-25893823D01*
X4759000Y-25933823D02*
X1246000Y-25933823D01*
X4759000Y-25973823D02*
X1262000Y-25973823D01*
X4759000Y-26013823D02*
X1277000Y-26013823D01*
X4759000Y-26053823D02*
X1293000Y-26053823D01*
X4759000Y-26093823D02*
X1310000Y-26093823D01*
X4759000Y-26133823D02*
X1326000Y-26133823D01*
X4759000Y-26173823D02*
X1343000Y-26173823D01*
X4759000Y-26213823D02*
X1361000Y-26213823D01*
X4759000Y-26253823D02*
X1379000Y-26253823D01*
X4759000Y-26293823D02*
X1397000Y-26293823D01*
X4759000Y-26333823D02*
X1416000Y-26333823D01*
X4759000Y-26373823D02*
X1436000Y-26373823D01*
X4759000Y-26413823D02*
X1455000Y-26413823D01*
X4759000Y-26453823D02*
X1475000Y-26453823D01*
X4759000Y-26493823D02*
X1496000Y-26493823D01*
X4759000Y-26533823D02*
X1517000Y-26533823D01*
X4759000Y-26573823D02*
X1538000Y-26573823D01*
X4759000Y-26613823D02*
X1560000Y-26613823D01*
X4759000Y-26653823D02*
X1583000Y-26653823D01*
X4759000Y-26693823D02*
X1605000Y-26693823D01*
X4759000Y-26733823D02*
X1629000Y-26733823D01*
X4759000Y-26773823D02*
X1653000Y-26773823D01*
X4759000Y-26813823D02*
X1677000Y-26813823D01*
X4759000Y-26853823D02*
X1702000Y-26853823D01*
X4759000Y-26893823D02*
X1727000Y-26893823D01*
X4759000Y-26933823D02*
X1753000Y-26933823D01*
X4759000Y-26973823D02*
X1779000Y-26973823D01*
X4759000Y-27013823D02*
X1806000Y-27013823D01*
X4759000Y-27053823D02*
X1834000Y-27053823D01*
X4759000Y-27093823D02*
X1862000Y-27093823D01*
X4759000Y-27133823D02*
X1890000Y-27133823D01*
X4759000Y-27173823D02*
X1920000Y-27173823D01*
X4759000Y-27213823D02*
X1950000Y-27213823D01*
X4759000Y-27253823D02*
X1980000Y-27253823D01*
X4759000Y-27293823D02*
X2011000Y-27293823D01*
X4759000Y-27333823D02*
X2043000Y-27333823D01*
X4759000Y-27373823D02*
X2075000Y-27373823D01*
X4759000Y-27413823D02*
X2108000Y-27413823D01*
X4759000Y-27453823D02*
X2142000Y-27453823D01*
X4759000Y-27493823D02*
X2176000Y-27493823D01*
X4759000Y-27533823D02*
X2211000Y-27533823D01*
X4759000Y-27573823D02*
X2247000Y-27573823D01*
X4759000Y-27613823D02*
X2284000Y-27613823D01*
X4759000Y-27653823D02*
X2321000Y-27653823D01*
X4759000Y-27693823D02*
X2360000Y-27693823D01*
X4759000Y-27733823D02*
X2399000Y-27733823D01*
X4759000Y-27773823D02*
X2439000Y-27773823D01*
X4759000Y-27813823D02*
X2480000Y-27813823D01*
X4759000Y-27853823D02*
X2522000Y-27853823D01*
X6599000Y-29213823D02*
X5401000Y-29213823D01*
X6862000Y-29173823D02*
X5138000Y-29173823D01*
X7062000Y-29133823D02*
X4938000Y-29133823D01*
X7230000Y-29093823D02*
X4770000Y-29093823D01*
X7378000Y-29053823D02*
X4622000Y-29053823D01*
X7510000Y-29013823D02*
X4490000Y-29013823D01*
X7630000Y-28973823D02*
X4370000Y-28973823D01*
X7742000Y-28933823D02*
X4258000Y-28933823D01*
X7846000Y-28893823D02*
X4154000Y-28893823D01*
X7944000Y-28853823D02*
X4056000Y-28853823D01*
X8037000Y-28813823D02*
X3963000Y-28813823D01*
X8125000Y-28773823D02*
X3875000Y-28773823D01*
X8209000Y-28733823D02*
X3791000Y-28733823D01*
X8289000Y-28693823D02*
X3711000Y-28693823D01*
X8365000Y-28653823D02*
X3635000Y-28653823D01*
X8439000Y-28613823D02*
X3561000Y-28613823D01*
X8510000Y-28573823D02*
X3490000Y-28573823D01*
X8579000Y-28533823D02*
X3421000Y-28533823D01*
X8645000Y-28493823D02*
X3355000Y-28493823D01*
X8709000Y-28453823D02*
X3291000Y-28453823D01*
X8770000Y-28413823D02*
X3230000Y-28413823D01*
X8830000Y-28373823D02*
X3170000Y-28373823D01*
X8889000Y-28333823D02*
X3111000Y-28333823D01*
X8945000Y-28293823D02*
X3055000Y-28293823D01*
X9000000Y-28253823D02*
X3000000Y-28253823D01*
X9054000Y-28213823D02*
X2946000Y-28213823D01*
X9106000Y-28173823D02*
X2894000Y-28173823D01*
X9156000Y-28133823D02*
X2844000Y-28133823D01*
X9206000Y-28093823D02*
X2794000Y-28093823D01*
X9254000Y-28053823D02*
X2746000Y-28053823D01*
X9301000Y-28013823D02*
X2699000Y-28013823D01*
X9347000Y-27973823D02*
X2653000Y-27973823D01*
X9392000Y-27933823D02*
X2608000Y-27933823D01*
X9436000Y-27893823D02*
X2564000Y-27893823D01*
X9478000Y-27853823D02*
X7241000Y-27853823D01*
X9520000Y-27813823D02*
X7241000Y-27813823D01*
X9561000Y-27773823D02*
X7241000Y-27773823D01*
X9601000Y-27733823D02*
X7241000Y-27733823D01*
X9640000Y-27693823D02*
X7241000Y-27693823D01*
X9679000Y-27653823D02*
X7241000Y-27653823D01*
X9716000Y-27613823D02*
X7241000Y-27613823D01*
X9753000Y-27573823D02*
X7241000Y-27573823D01*
X9789000Y-27533823D02*
X7241000Y-27533823D01*
X9824000Y-27493823D02*
X7241000Y-27493823D01*
X9858000Y-27453823D02*
X7241000Y-27453823D01*
X9892000Y-27413823D02*
X7241000Y-27413823D01*
X9925000Y-27373823D02*
X7241000Y-27373823D01*
X9957000Y-27333823D02*
X7241000Y-27333823D01*
X9989000Y-27293823D02*
X7241000Y-27293823D01*
X10020000Y-27253823D02*
X7241000Y-27253823D01*
X10050000Y-27213823D02*
X7241000Y-27213823D01*
X10080000Y-27173823D02*
X7241000Y-27173823D01*
X10110000Y-27133823D02*
X7241000Y-27133823D01*
X10138000Y-27093823D02*
X7241000Y-27093823D01*
X10166000Y-27053823D02*
X7241000Y-27053823D01*
X10194000Y-27013823D02*
X7241000Y-27013823D01*
X10221000Y-26973823D02*
X7241000Y-26973823D01*
X10247000Y-26933823D02*
X7241000Y-26933823D01*
X10273000Y-26893823D02*
X7241000Y-26893823D01*
X10298000Y-26853823D02*
X7241000Y-26853823D01*
X10323000Y-26813823D02*
X7241000Y-26813823D01*
X10347000Y-26773823D02*
X7241000Y-26773823D01*
X10371000Y-26733823D02*
X7241000Y-26733823D01*
X10395000Y-26693823D02*
X7241000Y-26693823D01*
X10417000Y-26653823D02*
X7241000Y-26653823D01*
X10440000Y-26613823D02*
X7241000Y-26613823D01*
X10462000Y-26573823D02*
X7241000Y-26573823D01*
X10483000Y-26533823D02*
X7241000Y-26533823D01*
X10504000Y-26493823D02*
X7241000Y-26493823D01*
X10525000Y-26453823D02*
X7241000Y-26453823D01*
X10545000Y-26413823D02*
X7241000Y-26413823D01*
X10564000Y-26373823D02*
X7241000Y-26373823D01*
X10584000Y-26333823D02*
X7241000Y-26333823D01*
X10603000Y-26293823D02*
X7241000Y-26293823D01*
X10621000Y-26253823D02*
X7241000Y-26253823D01*
X10639000Y-26213823D02*
X7241000Y-26213823D01*
X10657000Y-26173823D02*
X7241000Y-26173823D01*
X10674000Y-26133823D02*
X7241000Y-26133823D01*
X10690000Y-26093823D02*
X7241000Y-26093823D01*
X10707000Y-26053823D02*
X7241000Y-26053823D01*
X10723000Y-26013823D02*
X7241000Y-26013823D01*
X10738000Y-25973823D02*
X7241000Y-25973823D01*
X10754000Y-25933823D02*
X7241000Y-25933823D01*
X10768000Y-25893823D02*
X7241000Y-25893823D01*
X10783000Y-25853823D02*
X7241000Y-25853823D01*
X10797000Y-25813823D02*
X7241000Y-25813823D01*
X10811000Y-25773823D02*
X7241000Y-25773823D01*
X10824000Y-25733823D02*
X7241000Y-25733823D01*
X10837000Y-25693823D02*
X7241000Y-25693823D01*
X10850000Y-25653823D02*
X7241000Y-25653823D01*
X10862000Y-25613823D02*
X7241000Y-25613823D01*
X10874000Y-25573823D02*
X7241000Y-25573823D01*
X10885000Y-25533823D02*
X7241000Y-25533823D01*
X10897000Y-25493823D02*
X7241000Y-25493823D01*
X10907000Y-25453823D02*
X7241000Y-25453823D01*
X10918000Y-25413823D02*
X7241000Y-25413823D01*
X10928000Y-25373823D02*
X1072000Y-25373823D01*
X10938000Y-25333823D02*
X1062000Y-25333823D01*
X10947000Y-25293823D02*
X1053000Y-25293823D01*
X10956000Y-25253823D02*
X1044000Y-25253823D01*
X10965000Y-25213823D02*
X1035000Y-25213823D01*
X10974000Y-25173823D02*
X1026000Y-25173823D01*
X10982000Y-25133823D02*
X1018000Y-25133823D01*
X10990000Y-25093823D02*
X1010000Y-25093823D01*
X10997000Y-25053823D02*
X1003000Y-25053823D01*
X11004000Y-25013823D02*
X996000Y-25013823D01*
X11011000Y-24973823D02*
X989000Y-24973823D01*
X11018000Y-24933823D02*
X982000Y-24933823D01*
X11024000Y-24893823D02*
X976000Y-24893823D01*
X11030000Y-24853823D02*
X970000Y-24853823D01*
X11035000Y-24812823D02*
X965000Y-24812823D01*
X11040000Y-24772823D02*
X960000Y-24772823D01*
X11045000Y-24732823D02*
X955000Y-24732823D01*
X11050000Y-24692823D02*
X950000Y-24692823D01*
X11054000Y-24652823D02*
X946000Y-24652823D01*
X11058000Y-24612823D02*
X942000Y-24612823D01*
X11062000Y-24572823D02*
X938000Y-24572823D01*
X11065000Y-24532823D02*
X935000Y-24532823D01*
X11068000Y-24492823D02*
X932000Y-24492823D01*
X11070000Y-24452823D02*
X930000Y-24452823D01*
X11073000Y-24412823D02*
X927000Y-24412823D01*
X11075000Y-24372823D02*
X925000Y-24372823D01*
X11077000Y-24332823D02*
X923000Y-24332823D01*
X11078000Y-24292823D02*
X922000Y-24292823D01*
X11079000Y-24252823D02*
X921000Y-24252823D01*
X11080000Y-24132823D02*
X920000Y-24132823D01*
X11080000Y-24172823D02*
X920000Y-24172823D01*
X11080000Y-24212823D02*
X920000Y-24212823D01*
X11120000Y-24132823D02*
G75*
G02*
X880000Y-24132823I-5120000J0D01*
G01*
X880000Y-24132823D02*
G75*
G02*
X11120000Y-24132823I5120000J0D01*
G01*
X18759000Y-25413823D02*
X15082000Y-25413823D01*
X18759000Y-25453823D02*
X15093000Y-25453823D01*
X18759000Y-25493823D02*
X15103000Y-25493823D01*
X18759000Y-25533823D02*
X15115000Y-25533823D01*
X18759000Y-25573823D02*
X15126000Y-25573823D01*
X18759000Y-25613823D02*
X15138000Y-25613823D01*
X18759000Y-25653823D02*
X15150000Y-25653823D01*
X18759000Y-25693823D02*
X15163000Y-25693823D01*
X18759000Y-25733823D02*
X15176000Y-25733823D01*
X18759000Y-25773823D02*
X15189000Y-25773823D01*
X18759000Y-25813823D02*
X15203000Y-25813823D01*
X18759000Y-25853823D02*
X15217000Y-25853823D01*
X18759000Y-25893823D02*
X15232000Y-25893823D01*
X18759000Y-25933823D02*
X15246000Y-25933823D01*
X18759000Y-25973823D02*
X15262000Y-25973823D01*
X18759000Y-26013823D02*
X15277000Y-26013823D01*
X18759000Y-26053823D02*
X15293000Y-26053823D01*
X18759000Y-26093823D02*
X15310000Y-26093823D01*
X18759000Y-26133823D02*
X15326000Y-26133823D01*
X18759000Y-26173823D02*
X15343000Y-26173823D01*
X18759000Y-26213823D02*
X15361000Y-26213823D01*
X18759000Y-26253823D02*
X15379000Y-26253823D01*
X18759000Y-26293823D02*
X15397000Y-26293823D01*
X18759000Y-26333823D02*
X15416000Y-26333823D01*
X18759000Y-26373823D02*
X15436000Y-26373823D01*
X18759000Y-26413823D02*
X15455000Y-26413823D01*
X18759000Y-26453823D02*
X15475000Y-26453823D01*
X18759000Y-26493823D02*
X15496000Y-26493823D01*
X18759000Y-26533823D02*
X15517000Y-26533823D01*
X18759000Y-26573823D02*
X15538000Y-26573823D01*
X18759000Y-26613823D02*
X15560000Y-26613823D01*
X18759000Y-26653823D02*
X15583000Y-26653823D01*
X18759000Y-26693823D02*
X15605000Y-26693823D01*
X18759000Y-26733823D02*
X15629000Y-26733823D01*
X18759000Y-26773823D02*
X15653000Y-26773823D01*
X18759000Y-26813823D02*
X15677000Y-26813823D01*
X18759000Y-26853823D02*
X15702000Y-26853823D01*
X18759000Y-26893823D02*
X15727000Y-26893823D01*
X18759000Y-26933823D02*
X15753000Y-26933823D01*
X18759000Y-26973823D02*
X15779000Y-26973823D01*
X18759000Y-27013823D02*
X15806000Y-27013823D01*
X18759000Y-27053823D02*
X15834000Y-27053823D01*
X18759000Y-27093823D02*
X15862000Y-27093823D01*
X18759000Y-27133823D02*
X15890000Y-27133823D01*
X18759000Y-27173823D02*
X15920000Y-27173823D01*
X18759000Y-27213823D02*
X15950000Y-27213823D01*
X18759000Y-27253823D02*
X15980000Y-27253823D01*
X18759000Y-27293823D02*
X16011000Y-27293823D01*
X18759000Y-27333823D02*
X16043000Y-27333823D01*
X18759000Y-27373823D02*
X16075000Y-27373823D01*
X18759000Y-27413823D02*
X16108000Y-27413823D01*
X18759000Y-27453823D02*
X16142000Y-27453823D01*
X18759000Y-27493823D02*
X16176000Y-27493823D01*
X18759000Y-27533823D02*
X16211000Y-27533823D01*
X18759000Y-27573823D02*
X16247000Y-27573823D01*
X18759000Y-27613823D02*
X16284000Y-27613823D01*
X18759000Y-27653823D02*
X16321000Y-27653823D01*
X18759000Y-27693823D02*
X16360000Y-27693823D01*
X18759000Y-27733823D02*
X16399000Y-27733823D01*
X18759000Y-27773823D02*
X16439000Y-27773823D01*
X18759000Y-27813823D02*
X16480000Y-27813823D01*
X18759000Y-27853823D02*
X16522000Y-27853823D01*
X20599000Y-29213823D02*
X19401000Y-29213823D01*
X20862000Y-29173823D02*
X19138000Y-29173823D01*
X21062000Y-29133823D02*
X18938000Y-29133823D01*
X21230000Y-29093823D02*
X18770000Y-29093823D01*
X21378000Y-29053823D02*
X18622000Y-29053823D01*
X21510000Y-29013823D02*
X18490000Y-29013823D01*
X21630000Y-28973823D02*
X18370000Y-28973823D01*
X21742000Y-28933823D02*
X18258000Y-28933823D01*
X21846000Y-28893823D02*
X18154000Y-28893823D01*
X21944000Y-28853823D02*
X18056000Y-28853823D01*
X22037000Y-28813823D02*
X17963000Y-28813823D01*
X22125000Y-28773823D02*
X17875000Y-28773823D01*
X22209000Y-28733823D02*
X17791000Y-28733823D01*
X22289000Y-28693823D02*
X17711000Y-28693823D01*
X22365000Y-28653823D02*
X17635000Y-28653823D01*
X22439000Y-28613823D02*
X17561000Y-28613823D01*
X22510000Y-28573823D02*
X17490000Y-28573823D01*
X22579000Y-28533823D02*
X17421000Y-28533823D01*
X22645000Y-28493823D02*
X17355000Y-28493823D01*
X22709000Y-28453823D02*
X17291000Y-28453823D01*
X22770000Y-28413823D02*
X17230000Y-28413823D01*
X22830000Y-28373823D02*
X17170000Y-28373823D01*
X22889000Y-28333823D02*
X17111000Y-28333823D01*
X22945000Y-28293823D02*
X17055000Y-28293823D01*
X23000000Y-28253823D02*
X17000000Y-28253823D01*
X23054000Y-28213823D02*
X16946000Y-28213823D01*
X23106000Y-28173823D02*
X16894000Y-28173823D01*
X23156000Y-28133823D02*
X16844000Y-28133823D01*
X23206000Y-28093823D02*
X16794000Y-28093823D01*
X23254000Y-28053823D02*
X16746000Y-28053823D01*
X23301000Y-28013823D02*
X16699000Y-28013823D01*
X23347000Y-27973823D02*
X16653000Y-27973823D01*
X23392000Y-27933823D02*
X16608000Y-27933823D01*
X23436000Y-27893823D02*
X16564000Y-27893823D01*
X23478000Y-27853823D02*
X21241000Y-27853823D01*
X23520000Y-27813823D02*
X21241000Y-27813823D01*
X23561000Y-27773823D02*
X21241000Y-27773823D01*
X23601000Y-27733823D02*
X21241000Y-27733823D01*
X23640000Y-27693823D02*
X21241000Y-27693823D01*
X23679000Y-27653823D02*
X21241000Y-27653823D01*
X23716000Y-27613823D02*
X21241000Y-27613823D01*
X23753000Y-27573823D02*
X21241000Y-27573823D01*
X23789000Y-27533823D02*
X21241000Y-27533823D01*
X23824000Y-27493823D02*
X21241000Y-27493823D01*
X23858000Y-27453823D02*
X21241000Y-27453823D01*
X23892000Y-27413823D02*
X21241000Y-27413823D01*
X23925000Y-27373823D02*
X21241000Y-27373823D01*
X23957000Y-27333823D02*
X21241000Y-27333823D01*
X23989000Y-27293823D02*
X21241000Y-27293823D01*
X24020000Y-27253823D02*
X21241000Y-27253823D01*
X24050000Y-27213823D02*
X21241000Y-27213823D01*
X24080000Y-27173823D02*
X21241000Y-27173823D01*
X24110000Y-27133823D02*
X21241000Y-27133823D01*
X24138000Y-27093823D02*
X21241000Y-27093823D01*
X24166000Y-27053823D02*
X21241000Y-27053823D01*
X24194000Y-27013823D02*
X21241000Y-27013823D01*
X24221000Y-26973823D02*
X21241000Y-26973823D01*
X24247000Y-26933823D02*
X21241000Y-26933823D01*
X24273000Y-26893823D02*
X21241000Y-26893823D01*
X24298000Y-26853823D02*
X21241000Y-26853823D01*
X24323000Y-26813823D02*
X21241000Y-26813823D01*
X24347000Y-26773823D02*
X21241000Y-26773823D01*
X24371000Y-26733823D02*
X21241000Y-26733823D01*
X24395000Y-26693823D02*
X21241000Y-26693823D01*
X24417000Y-26653823D02*
X21241000Y-26653823D01*
X24440000Y-26613823D02*
X21241000Y-26613823D01*
X24462000Y-26573823D02*
X21241000Y-26573823D01*
X24483000Y-26533823D02*
X21241000Y-26533823D01*
X24504000Y-26493823D02*
X21241000Y-26493823D01*
X24525000Y-26453823D02*
X21241000Y-26453823D01*
X24545000Y-26413823D02*
X21241000Y-26413823D01*
X24564000Y-26373823D02*
X21241000Y-26373823D01*
X24584000Y-26333823D02*
X21241000Y-26333823D01*
X24603000Y-26293823D02*
X21241000Y-26293823D01*
X24621000Y-26253823D02*
X21241000Y-26253823D01*
X24639000Y-26213823D02*
X21241000Y-26213823D01*
X24657000Y-26173823D02*
X21241000Y-26173823D01*
X24674000Y-26133823D02*
X21241000Y-26133823D01*
X24690000Y-26093823D02*
X21241000Y-26093823D01*
X24707000Y-26053823D02*
X21241000Y-26053823D01*
X24723000Y-26013823D02*
X21241000Y-26013823D01*
X24738000Y-25973823D02*
X21241000Y-25973823D01*
X24754000Y-25933823D02*
X21241000Y-25933823D01*
X24768000Y-25893823D02*
X21241000Y-25893823D01*
X24783000Y-25853823D02*
X21241000Y-25853823D01*
X24797000Y-25813823D02*
X21241000Y-25813823D01*
X24811000Y-25773823D02*
X21241000Y-25773823D01*
X24824000Y-25733823D02*
X21241000Y-25733823D01*
X24837000Y-25693823D02*
X21241000Y-25693823D01*
X24850000Y-25653823D02*
X21241000Y-25653823D01*
X24862000Y-25613823D02*
X21241000Y-25613823D01*
X24874000Y-25573823D02*
X21241000Y-25573823D01*
X24885000Y-25533823D02*
X21241000Y-25533823D01*
X24897000Y-25493823D02*
X21241000Y-25493823D01*
X24907000Y-25453823D02*
X21241000Y-25453823D01*
X24918000Y-25413823D02*
X21241000Y-25413823D01*
X24928000Y-25373823D02*
X15072000Y-25373823D01*
X24938000Y-25333823D02*
X15062000Y-25333823D01*
X24947000Y-25293823D02*
X15053000Y-25293823D01*
X24956000Y-25253823D02*
X15044000Y-25253823D01*
X24965000Y-25213823D02*
X15035000Y-25213823D01*
X24974000Y-25173823D02*
X15026000Y-25173823D01*
X24982000Y-25133823D02*
X15018000Y-25133823D01*
X24990000Y-25093823D02*
X15010000Y-25093823D01*
X24997000Y-25053823D02*
X15003000Y-25053823D01*
X25004000Y-25013823D02*
X14996000Y-25013823D01*
X25011000Y-24973823D02*
X14989000Y-24973823D01*
X25018000Y-24933823D02*
X14982000Y-24933823D01*
X25024000Y-24893823D02*
X14976000Y-24893823D01*
X25030000Y-24853823D02*
X14970000Y-24853823D01*
X25035000Y-24812823D02*
X14965000Y-24812823D01*
X25040000Y-24772823D02*
X14960000Y-24772823D01*
X25045000Y-24732823D02*
X14955000Y-24732823D01*
X25050000Y-24692823D02*
X14950000Y-24692823D01*
X25054000Y-24652823D02*
X14946000Y-24652823D01*
X25058000Y-24612823D02*
X14942000Y-24612823D01*
X25062000Y-24572823D02*
X14938000Y-24572823D01*
X25065000Y-24532823D02*
X14935000Y-24532823D01*
X25068000Y-24492823D02*
X14932000Y-24492823D01*
X25070000Y-24452823D02*
X14930000Y-24452823D01*
X25073000Y-24412823D02*
X14927000Y-24412823D01*
X25075000Y-24372823D02*
X14925000Y-24372823D01*
X25077000Y-24332823D02*
X14923000Y-24332823D01*
X25078000Y-24292823D02*
X14922000Y-24292823D01*
X25079000Y-24252823D02*
X14921000Y-24252823D01*
X25080000Y-24132823D02*
X14920000Y-24132823D01*
X25080000Y-24172823D02*
X14920000Y-24172823D01*
X25080000Y-24212823D02*
X14920000Y-24212823D01*
X25120000Y-24132823D02*
G75*
G02*
X14880000Y-24132823I-5120000J0D01*
G01*
X14880000Y-24132823D02*
G75*
G02*
X25120000Y-24132823I5120000J0D01*
G01*
%TD*%
%LPC*%
D14*
%TO.C,J1*%
X20000000Y-11500500D03*
%TD*%
%TO.C,J2*%
X34000000Y-70500500D03*
%TD*%
%TO.C,J2*%
X20000000Y-36500500D03*
%TD*%
D15*
%TO.C,C1*%
X20000000Y-55632823D03*
D16*
X20000000Y-60632823D03*
%TD*%
D15*
%TO.C,C1*%
X6000000Y-55632823D03*
D16*
X6000000Y-60632823D03*
%TD*%
D15*
%TO.C,C1*%
X76000000Y-55632823D03*
D16*
X76000000Y-60632823D03*
%TD*%
D15*
%TO.C,C1*%
X34000000Y-21632823D03*
D16*
X34000000Y-26632823D03*
%TD*%
D14*
%TO.C,J1*%
X76000000Y-45500500D03*
%TD*%
%TO.C,J1*%
X20000000Y-45500500D03*
%TD*%
%TO.C,J2*%
X48000000Y-36500500D03*
%TD*%
%TO.C,J1*%
X6000000Y-11500500D03*
%TD*%
D15*
%TO.C,C1*%
X90000000Y-55632823D03*
D16*
X90000000Y-60632823D03*
%TD*%
D14*
%TO.C,J1*%
X48000000Y-11500500D03*
%TD*%
%TO.C,J1*%
X76000000Y-11500500D03*
%TD*%
D15*
%TO.C,C1*%
X62000000Y-21632823D03*
D16*
X62000000Y-26632823D03*
%TD*%
D15*
%TO.C,C1*%
X34000000Y-55632823D03*
D16*
X34000000Y-60632823D03*
%TD*%
D15*
%TO.C,C1*%
X48000000Y-21632823D03*
D16*
X48000000Y-26632823D03*
%TD*%
D14*
%TO.C,J2*%
X6000000Y-70500500D03*
%TD*%
D15*
%TO.C,C1*%
X48000000Y-55632823D03*
D16*
X48000000Y-60632823D03*
%TD*%
D15*
%TO.C,C1*%
X90000000Y-21632823D03*
D16*
X90000000Y-26632823D03*
%TD*%
D14*
%TO.C,J1*%
X62000000Y-11500500D03*
%TD*%
%TO.C,J2*%
X62000000Y-36500500D03*
%TD*%
%TO.C,J1*%
X90000000Y-11500500D03*
%TD*%
%TO.C,J1*%
X48000000Y-45500500D03*
%TD*%
%TO.C,J2*%
X90000000Y-70500500D03*
%TD*%
%TO.C,J1*%
X34000000Y-11500500D03*
%TD*%
%TO.C,J1*%
X62000000Y-45500500D03*
%TD*%
%TO.C,J1*%
X90000000Y-45500500D03*
%TD*%
%TO.C,J2*%
X62000000Y-70500500D03*
%TD*%
%TO.C,J2*%
X90000000Y-36500500D03*
%TD*%
D15*
%TO.C,C1*%
X62000000Y-55632823D03*
D16*
X62000000Y-60632823D03*
%TD*%
D15*
%TO.C,C1*%
X76000000Y-21632823D03*
D16*
X76000000Y-26632823D03*
%TD*%
D14*
%TO.C,J2*%
X48000000Y-70500500D03*
%TD*%
D15*
%TO.C,C1*%
X6000000Y-21632823D03*
D16*
X6000000Y-26632823D03*
%TD*%
D14*
%TO.C,J2*%
X20000000Y-70500500D03*
%TD*%
D15*
%TO.C,C1*%
X20000000Y-21632823D03*
D16*
X20000000Y-26632823D03*
%TD*%
D14*
%TO.C,J2*%
X6000000Y-36500500D03*
%TD*%
%TO.C,J2*%
X76000000Y-70500500D03*
%TD*%
%TO.C,J1*%
X6000000Y-45500500D03*
%TD*%
%TO.C,J1*%
X34000000Y-45500500D03*
%TD*%
%TO.C,J2*%
X76000000Y-36500500D03*
%TD*%
%TO.C,J2*%
X34000000Y-36500500D03*
%TD*%
%LPD*%
M02*
