%TF.GenerationSoftware,KiCad,Pcbnew,8.0.2*%
%TF.CreationDate,2024-06-26T22:57:20+07:00*%
%TF.ProjectId,Capacitor_Electrolyte_1000uF_25V_Panel,43617061-6369-4746-9f72-5f456c656374,rev?*%
%TF.SameCoordinates,Original*%
%TF.FileFunction,Copper,L1,Top*%
%TF.FilePolarity,Positive*%
%FSLAX46Y46*%
G04 Gerber Fmt 4.6, Leading zero omitted, Abs format (unit mm)*
G04 Created by KiCad (PCBNEW 8.0.2) date 2024-06-26 22:57:20*
%MOMM*%
%LPD*%
G01*
G04 APERTURE LIST*
%ADD10C,0.400000*%
%TA.AperFunction,NonConductor*%
%ADD11C,0.400000*%
%TD*%
%TA.AperFunction,ComponentPad*%
%ADD12C,4.000000*%
%TD*%
%TA.AperFunction,ComponentPad*%
%ADD13R,2.000000X2.000000*%
%TD*%
%TA.AperFunction,ComponentPad*%
%ADD14C,2.000000*%
%TD*%
G04 APERTURE END LIST*
D10*
D11*
X12904438Y6453634D02*
X14904438Y7120300D01*
X14904438Y7120300D02*
X12904438Y7786967D01*
X14142533Y8453634D02*
X14142533Y9977443D01*
X14713961Y12072681D02*
X14809200Y11977443D01*
X14809200Y11977443D02*
X14904438Y11691729D01*
X14904438Y11691729D02*
X14904438Y11501253D01*
X14904438Y11501253D02*
X14809200Y11215538D01*
X14809200Y11215538D02*
X14618723Y11025062D01*
X14618723Y11025062D02*
X14428247Y10929824D01*
X14428247Y10929824D02*
X14047295Y10834586D01*
X14047295Y10834586D02*
X13761580Y10834586D01*
X13761580Y10834586D02*
X13380628Y10929824D01*
X13380628Y10929824D02*
X13190152Y11025062D01*
X13190152Y11025062D02*
X12999676Y11215538D01*
X12999676Y11215538D02*
X12904438Y11501253D01*
X12904438Y11501253D02*
X12904438Y11691729D01*
X12904438Y11691729D02*
X12999676Y11977443D01*
X12999676Y11977443D02*
X13094914Y12072681D01*
X12904438Y12929824D02*
X14523485Y12929824D01*
X14523485Y12929824D02*
X14713961Y13025062D01*
X14713961Y13025062D02*
X14809200Y13120300D01*
X14809200Y13120300D02*
X14904438Y13310776D01*
X14904438Y13310776D02*
X14904438Y13691729D01*
X14904438Y13691729D02*
X14809200Y13882205D01*
X14809200Y13882205D02*
X14713961Y13977443D01*
X14713961Y13977443D02*
X14523485Y14072681D01*
X14523485Y14072681D02*
X12904438Y14072681D01*
X12904438Y14739348D02*
X12904438Y15882205D01*
X14904438Y15310776D02*
X12904438Y15310776D01*
D10*
D11*
X52904438Y6453634D02*
X54904438Y7120300D01*
X54904438Y7120300D02*
X52904438Y7786967D01*
X54142533Y8453634D02*
X54142533Y9977443D01*
X54713961Y12072681D02*
X54809200Y11977443D01*
X54809200Y11977443D02*
X54904438Y11691729D01*
X54904438Y11691729D02*
X54904438Y11501253D01*
X54904438Y11501253D02*
X54809200Y11215538D01*
X54809200Y11215538D02*
X54618723Y11025062D01*
X54618723Y11025062D02*
X54428247Y10929824D01*
X54428247Y10929824D02*
X54047295Y10834586D01*
X54047295Y10834586D02*
X53761580Y10834586D01*
X53761580Y10834586D02*
X53380628Y10929824D01*
X53380628Y10929824D02*
X53190152Y11025062D01*
X53190152Y11025062D02*
X52999676Y11215538D01*
X52999676Y11215538D02*
X52904438Y11501253D01*
X52904438Y11501253D02*
X52904438Y11691729D01*
X52904438Y11691729D02*
X52999676Y11977443D01*
X52999676Y11977443D02*
X53094914Y12072681D01*
X52904438Y12929824D02*
X54523485Y12929824D01*
X54523485Y12929824D02*
X54713961Y13025062D01*
X54713961Y13025062D02*
X54809200Y13120300D01*
X54809200Y13120300D02*
X54904438Y13310776D01*
X54904438Y13310776D02*
X54904438Y13691729D01*
X54904438Y13691729D02*
X54809200Y13882205D01*
X54809200Y13882205D02*
X54713961Y13977443D01*
X54713961Y13977443D02*
X54523485Y14072681D01*
X54523485Y14072681D02*
X52904438Y14072681D01*
X52904438Y14739348D02*
X52904438Y15882205D01*
X54904438Y15310776D02*
X52904438Y15310776D01*
D10*
D11*
X66904438Y6453634D02*
X68904438Y7120300D01*
X68904438Y7120300D02*
X66904438Y7786967D01*
X68142533Y8453634D02*
X68142533Y9977443D01*
X68713961Y12072681D02*
X68809200Y11977443D01*
X68809200Y11977443D02*
X68904438Y11691729D01*
X68904438Y11691729D02*
X68904438Y11501253D01*
X68904438Y11501253D02*
X68809200Y11215538D01*
X68809200Y11215538D02*
X68618723Y11025062D01*
X68618723Y11025062D02*
X68428247Y10929824D01*
X68428247Y10929824D02*
X68047295Y10834586D01*
X68047295Y10834586D02*
X67761580Y10834586D01*
X67761580Y10834586D02*
X67380628Y10929824D01*
X67380628Y10929824D02*
X67190152Y11025062D01*
X67190152Y11025062D02*
X66999676Y11215538D01*
X66999676Y11215538D02*
X66904438Y11501253D01*
X66904438Y11501253D02*
X66904438Y11691729D01*
X66904438Y11691729D02*
X66999676Y11977443D01*
X66999676Y11977443D02*
X67094914Y12072681D01*
X66904438Y12929824D02*
X68523485Y12929824D01*
X68523485Y12929824D02*
X68713961Y13025062D01*
X68713961Y13025062D02*
X68809200Y13120300D01*
X68809200Y13120300D02*
X68904438Y13310776D01*
X68904438Y13310776D02*
X68904438Y13691729D01*
X68904438Y13691729D02*
X68809200Y13882205D01*
X68809200Y13882205D02*
X68713961Y13977443D01*
X68713961Y13977443D02*
X68523485Y14072681D01*
X68523485Y14072681D02*
X66904438Y14072681D01*
X66904438Y14739348D02*
X66904438Y15882205D01*
X68904438Y15310776D02*
X66904438Y15310776D01*
D10*
D11*
X38904438Y6453634D02*
X40904438Y7120300D01*
X40904438Y7120300D02*
X38904438Y7786967D01*
X40142533Y8453634D02*
X40142533Y9977443D01*
X40713961Y12072681D02*
X40809200Y11977443D01*
X40809200Y11977443D02*
X40904438Y11691729D01*
X40904438Y11691729D02*
X40904438Y11501253D01*
X40904438Y11501253D02*
X40809200Y11215538D01*
X40809200Y11215538D02*
X40618723Y11025062D01*
X40618723Y11025062D02*
X40428247Y10929824D01*
X40428247Y10929824D02*
X40047295Y10834586D01*
X40047295Y10834586D02*
X39761580Y10834586D01*
X39761580Y10834586D02*
X39380628Y10929824D01*
X39380628Y10929824D02*
X39190152Y11025062D01*
X39190152Y11025062D02*
X38999676Y11215538D01*
X38999676Y11215538D02*
X38904438Y11501253D01*
X38904438Y11501253D02*
X38904438Y11691729D01*
X38904438Y11691729D02*
X38999676Y11977443D01*
X38999676Y11977443D02*
X39094914Y12072681D01*
X38904438Y12929824D02*
X40523485Y12929824D01*
X40523485Y12929824D02*
X40713961Y13025062D01*
X40713961Y13025062D02*
X40809200Y13120300D01*
X40809200Y13120300D02*
X40904438Y13310776D01*
X40904438Y13310776D02*
X40904438Y13691729D01*
X40904438Y13691729D02*
X40809200Y13882205D01*
X40809200Y13882205D02*
X40713961Y13977443D01*
X40713961Y13977443D02*
X40523485Y14072681D01*
X40523485Y14072681D02*
X38904438Y14072681D01*
X38904438Y14739348D02*
X38904438Y15882205D01*
X40904438Y15310776D02*
X38904438Y15310776D01*
D10*
D11*
X102453633Y-40904938D02*
X103120299Y-42904938D01*
X103120299Y-42904938D02*
X103786966Y-40904938D01*
X104453633Y-42143033D02*
X105977443Y-42143033D01*
X108072680Y-42714461D02*
X107977442Y-42809700D01*
X107977442Y-42809700D02*
X107691728Y-42904938D01*
X107691728Y-42904938D02*
X107501252Y-42904938D01*
X107501252Y-42904938D02*
X107215537Y-42809700D01*
X107215537Y-42809700D02*
X107025061Y-42619223D01*
X107025061Y-42619223D02*
X106929823Y-42428747D01*
X106929823Y-42428747D02*
X106834585Y-42047795D01*
X106834585Y-42047795D02*
X106834585Y-41762080D01*
X106834585Y-41762080D02*
X106929823Y-41381128D01*
X106929823Y-41381128D02*
X107025061Y-41190652D01*
X107025061Y-41190652D02*
X107215537Y-41000176D01*
X107215537Y-41000176D02*
X107501252Y-40904938D01*
X107501252Y-40904938D02*
X107691728Y-40904938D01*
X107691728Y-40904938D02*
X107977442Y-41000176D01*
X107977442Y-41000176D02*
X108072680Y-41095414D01*
X108929823Y-40904938D02*
X108929823Y-42523985D01*
X108929823Y-42523985D02*
X109025061Y-42714461D01*
X109025061Y-42714461D02*
X109120299Y-42809700D01*
X109120299Y-42809700D02*
X109310775Y-42904938D01*
X109310775Y-42904938D02*
X109691728Y-42904938D01*
X109691728Y-42904938D02*
X109882204Y-42809700D01*
X109882204Y-42809700D02*
X109977442Y-42714461D01*
X109977442Y-42714461D02*
X110072680Y-42523985D01*
X110072680Y-42523985D02*
X110072680Y-40904938D01*
X110739347Y-40904938D02*
X111882204Y-40904938D01*
X111310775Y-42904938D02*
X111310775Y-40904938D01*
D10*
D11*
X68904438Y6453634D02*
X70904438Y7120300D01*
X70904438Y7120300D02*
X68904438Y7786967D01*
X70142533Y8453634D02*
X70142533Y9977443D01*
X70713961Y12072681D02*
X70809200Y11977443D01*
X70809200Y11977443D02*
X70904438Y11691729D01*
X70904438Y11691729D02*
X70904438Y11501253D01*
X70904438Y11501253D02*
X70809200Y11215538D01*
X70809200Y11215538D02*
X70618723Y11025062D01*
X70618723Y11025062D02*
X70428247Y10929824D01*
X70428247Y10929824D02*
X70047295Y10834586D01*
X70047295Y10834586D02*
X69761580Y10834586D01*
X69761580Y10834586D02*
X69380628Y10929824D01*
X69380628Y10929824D02*
X69190152Y11025062D01*
X69190152Y11025062D02*
X68999676Y11215538D01*
X68999676Y11215538D02*
X68904438Y11501253D01*
X68904438Y11501253D02*
X68904438Y11691729D01*
X68904438Y11691729D02*
X68999676Y11977443D01*
X68999676Y11977443D02*
X69094914Y12072681D01*
X68904438Y12929824D02*
X70523485Y12929824D01*
X70523485Y12929824D02*
X70713961Y13025062D01*
X70713961Y13025062D02*
X70809200Y13120300D01*
X70809200Y13120300D02*
X70904438Y13310776D01*
X70904438Y13310776D02*
X70904438Y13691729D01*
X70904438Y13691729D02*
X70809200Y13882205D01*
X70809200Y13882205D02*
X70713961Y13977443D01*
X70713961Y13977443D02*
X70523485Y14072681D01*
X70523485Y14072681D02*
X68904438Y14072681D01*
X68904438Y14739348D02*
X68904438Y15882205D01*
X70904438Y15310776D02*
X68904438Y15310776D01*
D10*
D11*
X102453633Y-6904938D02*
X103120299Y-8904938D01*
X103120299Y-8904938D02*
X103786966Y-6904938D01*
X104453633Y-8143033D02*
X105977443Y-8143033D01*
X108072680Y-8714461D02*
X107977442Y-8809700D01*
X107977442Y-8809700D02*
X107691728Y-8904938D01*
X107691728Y-8904938D02*
X107501252Y-8904938D01*
X107501252Y-8904938D02*
X107215537Y-8809700D01*
X107215537Y-8809700D02*
X107025061Y-8619223D01*
X107025061Y-8619223D02*
X106929823Y-8428747D01*
X106929823Y-8428747D02*
X106834585Y-8047795D01*
X106834585Y-8047795D02*
X106834585Y-7762080D01*
X106834585Y-7762080D02*
X106929823Y-7381128D01*
X106929823Y-7381128D02*
X107025061Y-7190652D01*
X107025061Y-7190652D02*
X107215537Y-7000176D01*
X107215537Y-7000176D02*
X107501252Y-6904938D01*
X107501252Y-6904938D02*
X107691728Y-6904938D01*
X107691728Y-6904938D02*
X107977442Y-7000176D01*
X107977442Y-7000176D02*
X108072680Y-7095414D01*
X108929823Y-6904938D02*
X108929823Y-8523985D01*
X108929823Y-8523985D02*
X109025061Y-8714461D01*
X109025061Y-8714461D02*
X109120299Y-8809700D01*
X109120299Y-8809700D02*
X109310775Y-8904938D01*
X109310775Y-8904938D02*
X109691728Y-8904938D01*
X109691728Y-8904938D02*
X109882204Y-8809700D01*
X109882204Y-8809700D02*
X109977442Y-8714461D01*
X109977442Y-8714461D02*
X110072680Y-8523985D01*
X110072680Y-8523985D02*
X110072680Y-6904938D01*
X110739347Y-6904938D02*
X111882204Y-6904938D01*
X111310775Y-8904938D02*
X111310775Y-6904938D01*
D10*
D11*
X102453633Y-72904938D02*
X103120299Y-74904938D01*
X103120299Y-74904938D02*
X103786966Y-72904938D01*
X104453633Y-74143033D02*
X105977443Y-74143033D01*
X108072680Y-74714461D02*
X107977442Y-74809700D01*
X107977442Y-74809700D02*
X107691728Y-74904938D01*
X107691728Y-74904938D02*
X107501252Y-74904938D01*
X107501252Y-74904938D02*
X107215537Y-74809700D01*
X107215537Y-74809700D02*
X107025061Y-74619223D01*
X107025061Y-74619223D02*
X106929823Y-74428747D01*
X106929823Y-74428747D02*
X106834585Y-74047795D01*
X106834585Y-74047795D02*
X106834585Y-73762080D01*
X106834585Y-73762080D02*
X106929823Y-73381128D01*
X106929823Y-73381128D02*
X107025061Y-73190652D01*
X107025061Y-73190652D02*
X107215537Y-73000176D01*
X107215537Y-73000176D02*
X107501252Y-72904938D01*
X107501252Y-72904938D02*
X107691728Y-72904938D01*
X107691728Y-72904938D02*
X107977442Y-73000176D01*
X107977442Y-73000176D02*
X108072680Y-73095414D01*
X108929823Y-72904938D02*
X108929823Y-74523985D01*
X108929823Y-74523985D02*
X109025061Y-74714461D01*
X109025061Y-74714461D02*
X109120299Y-74809700D01*
X109120299Y-74809700D02*
X109310775Y-74904938D01*
X109310775Y-74904938D02*
X109691728Y-74904938D01*
X109691728Y-74904938D02*
X109882204Y-74809700D01*
X109882204Y-74809700D02*
X109977442Y-74714461D01*
X109977442Y-74714461D02*
X110072680Y-74523985D01*
X110072680Y-74523985D02*
X110072680Y-72904938D01*
X110739347Y-72904938D02*
X111882204Y-72904938D01*
X111310775Y-74904938D02*
X111310775Y-72904938D01*
D10*
D11*
X82904438Y6453634D02*
X84904438Y7120300D01*
X84904438Y7120300D02*
X82904438Y7786967D01*
X84142533Y8453634D02*
X84142533Y9977443D01*
X84713961Y12072681D02*
X84809200Y11977443D01*
X84809200Y11977443D02*
X84904438Y11691729D01*
X84904438Y11691729D02*
X84904438Y11501253D01*
X84904438Y11501253D02*
X84809200Y11215538D01*
X84809200Y11215538D02*
X84618723Y11025062D01*
X84618723Y11025062D02*
X84428247Y10929824D01*
X84428247Y10929824D02*
X84047295Y10834586D01*
X84047295Y10834586D02*
X83761580Y10834586D01*
X83761580Y10834586D02*
X83380628Y10929824D01*
X83380628Y10929824D02*
X83190152Y11025062D01*
X83190152Y11025062D02*
X82999676Y11215538D01*
X82999676Y11215538D02*
X82904438Y11501253D01*
X82904438Y11501253D02*
X82904438Y11691729D01*
X82904438Y11691729D02*
X82999676Y11977443D01*
X82999676Y11977443D02*
X83094914Y12072681D01*
X82904438Y12929824D02*
X84523485Y12929824D01*
X84523485Y12929824D02*
X84713961Y13025062D01*
X84713961Y13025062D02*
X84809200Y13120300D01*
X84809200Y13120300D02*
X84904438Y13310776D01*
X84904438Y13310776D02*
X84904438Y13691729D01*
X84904438Y13691729D02*
X84809200Y13882205D01*
X84809200Y13882205D02*
X84713961Y13977443D01*
X84713961Y13977443D02*
X84523485Y14072681D01*
X84523485Y14072681D02*
X82904438Y14072681D01*
X82904438Y14739348D02*
X82904438Y15882205D01*
X84904438Y15310776D02*
X82904438Y15310776D01*
D10*
D11*
X80904438Y6453634D02*
X82904438Y7120300D01*
X82904438Y7120300D02*
X80904438Y7786967D01*
X82142533Y8453634D02*
X82142533Y9977443D01*
X82713961Y12072681D02*
X82809200Y11977443D01*
X82809200Y11977443D02*
X82904438Y11691729D01*
X82904438Y11691729D02*
X82904438Y11501253D01*
X82904438Y11501253D02*
X82809200Y11215538D01*
X82809200Y11215538D02*
X82618723Y11025062D01*
X82618723Y11025062D02*
X82428247Y10929824D01*
X82428247Y10929824D02*
X82047295Y10834586D01*
X82047295Y10834586D02*
X81761580Y10834586D01*
X81761580Y10834586D02*
X81380628Y10929824D01*
X81380628Y10929824D02*
X81190152Y11025062D01*
X81190152Y11025062D02*
X80999676Y11215538D01*
X80999676Y11215538D02*
X80904438Y11501253D01*
X80904438Y11501253D02*
X80904438Y11691729D01*
X80904438Y11691729D02*
X80999676Y11977443D01*
X80999676Y11977443D02*
X81094914Y12072681D01*
X80904438Y12929824D02*
X82523485Y12929824D01*
X82523485Y12929824D02*
X82713961Y13025062D01*
X82713961Y13025062D02*
X82809200Y13120300D01*
X82809200Y13120300D02*
X82904438Y13310776D01*
X82904438Y13310776D02*
X82904438Y13691729D01*
X82904438Y13691729D02*
X82809200Y13882205D01*
X82809200Y13882205D02*
X82713961Y13977443D01*
X82713961Y13977443D02*
X82523485Y14072681D01*
X82523485Y14072681D02*
X80904438Y14072681D01*
X80904438Y14739348D02*
X80904438Y15882205D01*
X82904438Y15310776D02*
X80904438Y15310776D01*
D10*
D11*
X26904438Y6453634D02*
X28904438Y7120300D01*
X28904438Y7120300D02*
X26904438Y7786967D01*
X28142533Y8453634D02*
X28142533Y9977443D01*
X28713961Y12072681D02*
X28809200Y11977443D01*
X28809200Y11977443D02*
X28904438Y11691729D01*
X28904438Y11691729D02*
X28904438Y11501253D01*
X28904438Y11501253D02*
X28809200Y11215538D01*
X28809200Y11215538D02*
X28618723Y11025062D01*
X28618723Y11025062D02*
X28428247Y10929824D01*
X28428247Y10929824D02*
X28047295Y10834586D01*
X28047295Y10834586D02*
X27761580Y10834586D01*
X27761580Y10834586D02*
X27380628Y10929824D01*
X27380628Y10929824D02*
X27190152Y11025062D01*
X27190152Y11025062D02*
X26999676Y11215538D01*
X26999676Y11215538D02*
X26904438Y11501253D01*
X26904438Y11501253D02*
X26904438Y11691729D01*
X26904438Y11691729D02*
X26999676Y11977443D01*
X26999676Y11977443D02*
X27094914Y12072681D01*
X26904438Y12929824D02*
X28523485Y12929824D01*
X28523485Y12929824D02*
X28713961Y13025062D01*
X28713961Y13025062D02*
X28809200Y13120300D01*
X28809200Y13120300D02*
X28904438Y13310776D01*
X28904438Y13310776D02*
X28904438Y13691729D01*
X28904438Y13691729D02*
X28809200Y13882205D01*
X28809200Y13882205D02*
X28713961Y13977443D01*
X28713961Y13977443D02*
X28523485Y14072681D01*
X28523485Y14072681D02*
X26904438Y14072681D01*
X26904438Y14739348D02*
X26904438Y15882205D01*
X28904438Y15310776D02*
X26904438Y15310776D01*
D10*
D11*
X10904438Y6453634D02*
X12904438Y7120300D01*
X12904438Y7120300D02*
X10904438Y7786967D01*
X12142533Y8453634D02*
X12142533Y9977443D01*
X12713961Y12072681D02*
X12809200Y11977443D01*
X12809200Y11977443D02*
X12904438Y11691729D01*
X12904438Y11691729D02*
X12904438Y11501253D01*
X12904438Y11501253D02*
X12809200Y11215538D01*
X12809200Y11215538D02*
X12618723Y11025062D01*
X12618723Y11025062D02*
X12428247Y10929824D01*
X12428247Y10929824D02*
X12047295Y10834586D01*
X12047295Y10834586D02*
X11761580Y10834586D01*
X11761580Y10834586D02*
X11380628Y10929824D01*
X11380628Y10929824D02*
X11190152Y11025062D01*
X11190152Y11025062D02*
X10999676Y11215538D01*
X10999676Y11215538D02*
X10904438Y11501253D01*
X10904438Y11501253D02*
X10904438Y11691729D01*
X10904438Y11691729D02*
X10999676Y11977443D01*
X10999676Y11977443D02*
X11094914Y12072681D01*
X10904438Y12929824D02*
X12523485Y12929824D01*
X12523485Y12929824D02*
X12713961Y13025062D01*
X12713961Y13025062D02*
X12809200Y13120300D01*
X12809200Y13120300D02*
X12904438Y13310776D01*
X12904438Y13310776D02*
X12904438Y13691729D01*
X12904438Y13691729D02*
X12809200Y13882205D01*
X12809200Y13882205D02*
X12713961Y13977443D01*
X12713961Y13977443D02*
X12523485Y14072681D01*
X12523485Y14072681D02*
X10904438Y14072681D01*
X10904438Y14739348D02*
X10904438Y15882205D01*
X12904438Y15310776D02*
X10904438Y15310776D01*
D10*
D11*
X54904438Y6453634D02*
X56904438Y7120300D01*
X56904438Y7120300D02*
X54904438Y7786967D01*
X56142533Y8453634D02*
X56142533Y9977443D01*
X56713961Y12072681D02*
X56809200Y11977443D01*
X56809200Y11977443D02*
X56904438Y11691729D01*
X56904438Y11691729D02*
X56904438Y11501253D01*
X56904438Y11501253D02*
X56809200Y11215538D01*
X56809200Y11215538D02*
X56618723Y11025062D01*
X56618723Y11025062D02*
X56428247Y10929824D01*
X56428247Y10929824D02*
X56047295Y10834586D01*
X56047295Y10834586D02*
X55761580Y10834586D01*
X55761580Y10834586D02*
X55380628Y10929824D01*
X55380628Y10929824D02*
X55190152Y11025062D01*
X55190152Y11025062D02*
X54999676Y11215538D01*
X54999676Y11215538D02*
X54904438Y11501253D01*
X54904438Y11501253D02*
X54904438Y11691729D01*
X54904438Y11691729D02*
X54999676Y11977443D01*
X54999676Y11977443D02*
X55094914Y12072681D01*
X54904438Y12929824D02*
X56523485Y12929824D01*
X56523485Y12929824D02*
X56713961Y13025062D01*
X56713961Y13025062D02*
X56809200Y13120300D01*
X56809200Y13120300D02*
X56904438Y13310776D01*
X56904438Y13310776D02*
X56904438Y13691729D01*
X56904438Y13691729D02*
X56809200Y13882205D01*
X56809200Y13882205D02*
X56713961Y13977443D01*
X56713961Y13977443D02*
X56523485Y14072681D01*
X56523485Y14072681D02*
X54904438Y14072681D01*
X54904438Y14739348D02*
X54904438Y15882205D01*
X56904438Y15310776D02*
X54904438Y15310776D01*
D10*
D11*
X102453633Y-38904938D02*
X103120299Y-40904938D01*
X103120299Y-40904938D02*
X103786966Y-38904938D01*
X104453633Y-40143033D02*
X105977443Y-40143033D01*
X108072680Y-40714461D02*
X107977442Y-40809700D01*
X107977442Y-40809700D02*
X107691728Y-40904938D01*
X107691728Y-40904938D02*
X107501252Y-40904938D01*
X107501252Y-40904938D02*
X107215537Y-40809700D01*
X107215537Y-40809700D02*
X107025061Y-40619223D01*
X107025061Y-40619223D02*
X106929823Y-40428747D01*
X106929823Y-40428747D02*
X106834585Y-40047795D01*
X106834585Y-40047795D02*
X106834585Y-39762080D01*
X106834585Y-39762080D02*
X106929823Y-39381128D01*
X106929823Y-39381128D02*
X107025061Y-39190652D01*
X107025061Y-39190652D02*
X107215537Y-39000176D01*
X107215537Y-39000176D02*
X107501252Y-38904938D01*
X107501252Y-38904938D02*
X107691728Y-38904938D01*
X107691728Y-38904938D02*
X107977442Y-39000176D01*
X107977442Y-39000176D02*
X108072680Y-39095414D01*
X108929823Y-38904938D02*
X108929823Y-40523985D01*
X108929823Y-40523985D02*
X109025061Y-40714461D01*
X109025061Y-40714461D02*
X109120299Y-40809700D01*
X109120299Y-40809700D02*
X109310775Y-40904938D01*
X109310775Y-40904938D02*
X109691728Y-40904938D01*
X109691728Y-40904938D02*
X109882204Y-40809700D01*
X109882204Y-40809700D02*
X109977442Y-40714461D01*
X109977442Y-40714461D02*
X110072680Y-40523985D01*
X110072680Y-40523985D02*
X110072680Y-38904938D01*
X110739347Y-38904938D02*
X111882204Y-38904938D01*
X111310775Y-40904938D02*
X111310775Y-38904938D01*
D10*
D11*
X24904438Y6453634D02*
X26904438Y7120300D01*
X26904438Y7120300D02*
X24904438Y7786967D01*
X26142533Y8453634D02*
X26142533Y9977443D01*
X26713961Y12072681D02*
X26809200Y11977443D01*
X26809200Y11977443D02*
X26904438Y11691729D01*
X26904438Y11691729D02*
X26904438Y11501253D01*
X26904438Y11501253D02*
X26809200Y11215538D01*
X26809200Y11215538D02*
X26618723Y11025062D01*
X26618723Y11025062D02*
X26428247Y10929824D01*
X26428247Y10929824D02*
X26047295Y10834586D01*
X26047295Y10834586D02*
X25761580Y10834586D01*
X25761580Y10834586D02*
X25380628Y10929824D01*
X25380628Y10929824D02*
X25190152Y11025062D01*
X25190152Y11025062D02*
X24999676Y11215538D01*
X24999676Y11215538D02*
X24904438Y11501253D01*
X24904438Y11501253D02*
X24904438Y11691729D01*
X24904438Y11691729D02*
X24999676Y11977443D01*
X24999676Y11977443D02*
X25094914Y12072681D01*
X24904438Y12929824D02*
X26523485Y12929824D01*
X26523485Y12929824D02*
X26713961Y13025062D01*
X26713961Y13025062D02*
X26809200Y13120300D01*
X26809200Y13120300D02*
X26904438Y13310776D01*
X26904438Y13310776D02*
X26904438Y13691729D01*
X26904438Y13691729D02*
X26809200Y13882205D01*
X26809200Y13882205D02*
X26713961Y13977443D01*
X26713961Y13977443D02*
X26523485Y14072681D01*
X26523485Y14072681D02*
X24904438Y14072681D01*
X24904438Y14739348D02*
X24904438Y15882205D01*
X26904438Y15310776D02*
X24904438Y15310776D01*
D10*
D11*
X40904438Y6453634D02*
X42904438Y7120300D01*
X42904438Y7120300D02*
X40904438Y7786967D01*
X42142533Y8453634D02*
X42142533Y9977443D01*
X42713961Y12072681D02*
X42809200Y11977443D01*
X42809200Y11977443D02*
X42904438Y11691729D01*
X42904438Y11691729D02*
X42904438Y11501253D01*
X42904438Y11501253D02*
X42809200Y11215538D01*
X42809200Y11215538D02*
X42618723Y11025062D01*
X42618723Y11025062D02*
X42428247Y10929824D01*
X42428247Y10929824D02*
X42047295Y10834586D01*
X42047295Y10834586D02*
X41761580Y10834586D01*
X41761580Y10834586D02*
X41380628Y10929824D01*
X41380628Y10929824D02*
X41190152Y11025062D01*
X41190152Y11025062D02*
X40999676Y11215538D01*
X40999676Y11215538D02*
X40904438Y11501253D01*
X40904438Y11501253D02*
X40904438Y11691729D01*
X40904438Y11691729D02*
X40999676Y11977443D01*
X40999676Y11977443D02*
X41094914Y12072681D01*
X40904438Y12929824D02*
X42523485Y12929824D01*
X42523485Y12929824D02*
X42713961Y13025062D01*
X42713961Y13025062D02*
X42809200Y13120300D01*
X42809200Y13120300D02*
X42904438Y13310776D01*
X42904438Y13310776D02*
X42904438Y13691729D01*
X42904438Y13691729D02*
X42809200Y13882205D01*
X42809200Y13882205D02*
X42713961Y13977443D01*
X42713961Y13977443D02*
X42523485Y14072681D01*
X42523485Y14072681D02*
X40904438Y14072681D01*
X40904438Y14739348D02*
X40904438Y15882205D01*
X42904438Y15310776D02*
X40904438Y15310776D01*
X12000000Y3000000D02*
X12000000Y-85001500D01*
X42000000Y3000000D02*
X42000000Y-85001500D01*
X56000000Y3000000D02*
X56000000Y-85001500D01*
X82000000Y3000000D02*
X82000000Y-85001500D01*
X-3000000Y-40000500D02*
X99000000Y-40000500D01*
X28000000Y3000000D02*
X28000000Y-85001500D01*
X-3000000Y-42000500D02*
X99000000Y-42000500D01*
X84000000Y3000000D02*
X84000000Y-85001500D01*
X-3000000Y-74000500D02*
X99000000Y-74000500D01*
X-3000000Y-8000500D02*
X99000000Y-8000500D01*
X26000000Y3000000D02*
X26000000Y-85001500D01*
X68000000Y3000000D02*
X68000000Y-85001500D01*
X40000000Y3000000D02*
X40000000Y-85001500D01*
X70000000Y3000000D02*
X70000000Y-85001500D01*
X54000000Y3000000D02*
X54000000Y-85001500D01*
X14000000Y3000000D02*
X14000000Y-85001500D01*
D12*
%TO.P,J1,1,Pin_1*%
%TO.N,Board_1-Net-(J1-Pin_1)*%
X20000000Y-11500500D03*
%TD*%
%TO.P,J2,1,Pin_1*%
%TO.N,Board_9-Net-(J2-Pin_1)*%
X34000000Y-70500500D03*
%TD*%
%TO.P,J2,1,Pin_1*%
%TO.N,Board_1-Net-(J2-Pin_1)*%
X20000000Y-36500500D03*
%TD*%
D13*
%TO.P,C1,1*%
%TO.N,Board_8-Net-(J1-Pin_1)*%
X20000000Y-55632823D03*
D14*
%TO.P,C1,2*%
%TO.N,Board_8-Net-(J2-Pin_1)*%
X20000000Y-60632823D03*
%TD*%
D13*
%TO.P,C1,1*%
%TO.N,Board_7-Net-(J1-Pin_1)*%
X6000000Y-55632823D03*
D14*
%TO.P,C1,2*%
%TO.N,Board_7-Net-(J2-Pin_1)*%
X6000000Y-60632823D03*
%TD*%
D13*
%TO.P,C1,1*%
%TO.N,Board_12-Net-(J1-Pin_1)*%
X76000000Y-55632823D03*
D14*
%TO.P,C1,2*%
%TO.N,Board_12-Net-(J2-Pin_1)*%
X76000000Y-60632823D03*
%TD*%
D13*
%TO.P,C1,1*%
%TO.N,Board_2-Net-(J1-Pin_1)*%
X34000000Y-21632823D03*
D14*
%TO.P,C1,2*%
%TO.N,Board_2-Net-(J2-Pin_1)*%
X34000000Y-26632823D03*
%TD*%
D12*
%TO.P,J1,1,Pin_1*%
%TO.N,Board_12-Net-(J1-Pin_1)*%
X76000000Y-45500500D03*
%TD*%
%TO.P,J1,1,Pin_1*%
%TO.N,Board_8-Net-(J1-Pin_1)*%
X20000000Y-45500500D03*
%TD*%
%TO.P,J2,1,Pin_1*%
%TO.N,Board_3-Net-(J2-Pin_1)*%
X48000000Y-36500500D03*
%TD*%
%TO.P,J1,1,Pin_1*%
%TO.N,Board_0-Net-(J1-Pin_1)*%
X6000000Y-11500500D03*
%TD*%
D13*
%TO.P,C1,1*%
%TO.N,Board_13-Net-(J1-Pin_1)*%
X90000000Y-55632823D03*
D14*
%TO.P,C1,2*%
%TO.N,Board_13-Net-(J2-Pin_1)*%
X90000000Y-60632823D03*
%TD*%
D12*
%TO.P,J1,1,Pin_1*%
%TO.N,Board_3-Net-(J1-Pin_1)*%
X48000000Y-11500500D03*
%TD*%
%TO.P,J1,1,Pin_1*%
%TO.N,Board_5-Net-(J1-Pin_1)*%
X76000000Y-11500500D03*
%TD*%
D13*
%TO.P,C1,1*%
%TO.N,Board_4-Net-(J1-Pin_1)*%
X62000000Y-21632823D03*
D14*
%TO.P,C1,2*%
%TO.N,Board_4-Net-(J2-Pin_1)*%
X62000000Y-26632823D03*
%TD*%
D13*
%TO.P,C1,1*%
%TO.N,Board_9-Net-(J1-Pin_1)*%
X34000000Y-55632823D03*
D14*
%TO.P,C1,2*%
%TO.N,Board_9-Net-(J2-Pin_1)*%
X34000000Y-60632823D03*
%TD*%
D13*
%TO.P,C1,1*%
%TO.N,Board_3-Net-(J1-Pin_1)*%
X48000000Y-21632823D03*
D14*
%TO.P,C1,2*%
%TO.N,Board_3-Net-(J2-Pin_1)*%
X48000000Y-26632823D03*
%TD*%
D12*
%TO.P,J2,1,Pin_1*%
%TO.N,Board_7-Net-(J2-Pin_1)*%
X6000000Y-70500500D03*
%TD*%
D13*
%TO.P,C1,1*%
%TO.N,Board_10-Net-(J1-Pin_1)*%
X48000000Y-55632823D03*
D14*
%TO.P,C1,2*%
%TO.N,Board_10-Net-(J2-Pin_1)*%
X48000000Y-60632823D03*
%TD*%
D13*
%TO.P,C1,1*%
%TO.N,Board_6-Net-(J1-Pin_1)*%
X90000000Y-21632823D03*
D14*
%TO.P,C1,2*%
%TO.N,Board_6-Net-(J2-Pin_1)*%
X90000000Y-26632823D03*
%TD*%
D12*
%TO.P,J1,1,Pin_1*%
%TO.N,Board_4-Net-(J1-Pin_1)*%
X62000000Y-11500500D03*
%TD*%
%TO.P,J2,1,Pin_1*%
%TO.N,Board_4-Net-(J2-Pin_1)*%
X62000000Y-36500500D03*
%TD*%
%TO.P,J1,1,Pin_1*%
%TO.N,Board_6-Net-(J1-Pin_1)*%
X90000000Y-11500500D03*
%TD*%
%TO.P,J1,1,Pin_1*%
%TO.N,Board_10-Net-(J1-Pin_1)*%
X48000000Y-45500500D03*
%TD*%
%TO.P,J2,1,Pin_1*%
%TO.N,Board_13-Net-(J2-Pin_1)*%
X90000000Y-70500500D03*
%TD*%
%TO.P,J1,1,Pin_1*%
%TO.N,Board_2-Net-(J1-Pin_1)*%
X34000000Y-11500500D03*
%TD*%
%TO.P,J1,1,Pin_1*%
%TO.N,Board_11-Net-(J1-Pin_1)*%
X62000000Y-45500500D03*
%TD*%
%TO.P,J1,1,Pin_1*%
%TO.N,Board_13-Net-(J1-Pin_1)*%
X90000000Y-45500500D03*
%TD*%
%TO.P,J2,1,Pin_1*%
%TO.N,Board_11-Net-(J2-Pin_1)*%
X62000000Y-70500500D03*
%TD*%
%TO.P,J2,1,Pin_1*%
%TO.N,Board_6-Net-(J2-Pin_1)*%
X90000000Y-36500500D03*
%TD*%
D13*
%TO.P,C1,1*%
%TO.N,Board_11-Net-(J1-Pin_1)*%
X62000000Y-55632823D03*
D14*
%TO.P,C1,2*%
%TO.N,Board_11-Net-(J2-Pin_1)*%
X62000000Y-60632823D03*
%TD*%
D13*
%TO.P,C1,1*%
%TO.N,Board_5-Net-(J1-Pin_1)*%
X76000000Y-21632823D03*
D14*
%TO.P,C1,2*%
%TO.N,Board_5-Net-(J2-Pin_1)*%
X76000000Y-26632823D03*
%TD*%
D12*
%TO.P,J2,1,Pin_1*%
%TO.N,Board_10-Net-(J2-Pin_1)*%
X48000000Y-70500500D03*
%TD*%
D13*
%TO.P,C1,1*%
%TO.N,Board_0-Net-(J1-Pin_1)*%
X6000000Y-21632823D03*
D14*
%TO.P,C1,2*%
%TO.N,Board_0-Net-(J2-Pin_1)*%
X6000000Y-26632823D03*
%TD*%
D12*
%TO.P,J2,1,Pin_1*%
%TO.N,Board_8-Net-(J2-Pin_1)*%
X20000000Y-70500500D03*
%TD*%
D13*
%TO.P,C1,1*%
%TO.N,Board_1-Net-(J1-Pin_1)*%
X20000000Y-21632823D03*
D14*
%TO.P,C1,2*%
%TO.N,Board_1-Net-(J2-Pin_1)*%
X20000000Y-26632823D03*
%TD*%
D12*
%TO.P,J2,1,Pin_1*%
%TO.N,Board_0-Net-(J2-Pin_1)*%
X6000000Y-36500500D03*
%TD*%
%TO.P,J2,1,Pin_1*%
%TO.N,Board_12-Net-(J2-Pin_1)*%
X76000000Y-70500500D03*
%TD*%
%TO.P,J1,1,Pin_1*%
%TO.N,Board_7-Net-(J1-Pin_1)*%
X6000000Y-45500500D03*
%TD*%
%TO.P,J1,1,Pin_1*%
%TO.N,Board_9-Net-(J1-Pin_1)*%
X34000000Y-45500500D03*
%TD*%
%TO.P,J2,1,Pin_1*%
%TO.N,Board_5-Net-(J2-Pin_1)*%
X76000000Y-36500500D03*
%TD*%
%TO.P,J2,1,Pin_1*%
%TO.N,Board_2-Net-(J2-Pin_1)*%
X34000000Y-36500500D03*
%TD*%
M02*
