%TF.GenerationSoftware,KiCad,Pcbnew,8.0.2*%
%TF.CreationDate,2024-06-26T22:57:20+07:00*%
%TF.ProjectId,Capacitor_Electrolyte_1000uF_25V_Panel,43617061-6369-4746-9f72-5f456c656374,rev?*%
%TF.SameCoordinates,Original*%
%TF.FileFunction,Copper,L2,Bot*%
%TF.FilePolarity,Positive*%
%FSLAX46Y46*%
G04 Gerber Fmt 4.6, Leading zero omitted, Abs format (unit mm)*
G04 Created by KiCad (PCBNEW 8.0.2) date 2024-06-26 22:57:20*
%MOMM*%
%LPD*%
G01*
G04 APERTURE LIST*
%TA.AperFunction,ComponentPad*%
%ADD10C,4.000000*%
%TD*%
%TA.AperFunction,ComponentPad*%
%ADD11R,2.000000X2.000000*%
%TD*%
%TA.AperFunction,ComponentPad*%
%ADD12C,2.000000*%
%TD*%
%TA.AperFunction,Conductor*%
%ADD13C,1.000000*%
%TD*%
G04 APERTURE END LIST*
D10*
%TO.P,J1,1,Pin_1*%
%TO.N,Board_1-Net-(J1-Pin_1)*%
X20000000Y-11500500D03*
%TD*%
%TO.P,J2,1,Pin_1*%
%TO.N,Board_9-Net-(J2-Pin_1)*%
X34000000Y-70500500D03*
%TD*%
%TO.P,J2,1,Pin_1*%
%TO.N,Board_1-Net-(J2-Pin_1)*%
X20000000Y-36500500D03*
%TD*%
D11*
%TO.P,C1,1*%
%TO.N,Board_8-Net-(J1-Pin_1)*%
X20000000Y-55632823D03*
D12*
%TO.P,C1,2*%
%TO.N,Board_8-Net-(J2-Pin_1)*%
X20000000Y-60632823D03*
%TD*%
D11*
%TO.P,C1,1*%
%TO.N,Board_7-Net-(J1-Pin_1)*%
X6000000Y-55632823D03*
D12*
%TO.P,C1,2*%
%TO.N,Board_7-Net-(J2-Pin_1)*%
X6000000Y-60632823D03*
%TD*%
D11*
%TO.P,C1,1*%
%TO.N,Board_12-Net-(J1-Pin_1)*%
X76000000Y-55632823D03*
D12*
%TO.P,C1,2*%
%TO.N,Board_12-Net-(J2-Pin_1)*%
X76000000Y-60632823D03*
%TD*%
D11*
%TO.P,C1,1*%
%TO.N,Board_2-Net-(J1-Pin_1)*%
X34000000Y-21632823D03*
D12*
%TO.P,C1,2*%
%TO.N,Board_2-Net-(J2-Pin_1)*%
X34000000Y-26632823D03*
%TD*%
D10*
%TO.P,J1,1,Pin_1*%
%TO.N,Board_12-Net-(J1-Pin_1)*%
X76000000Y-45500500D03*
%TD*%
%TO.P,J1,1,Pin_1*%
%TO.N,Board_8-Net-(J1-Pin_1)*%
X20000000Y-45500500D03*
%TD*%
%TO.P,J2,1,Pin_1*%
%TO.N,Board_3-Net-(J2-Pin_1)*%
X48000000Y-36500500D03*
%TD*%
%TO.P,J1,1,Pin_1*%
%TO.N,Board_0-Net-(J1-Pin_1)*%
X6000000Y-11500500D03*
%TD*%
D11*
%TO.P,C1,1*%
%TO.N,Board_13-Net-(J1-Pin_1)*%
X90000000Y-55632823D03*
D12*
%TO.P,C1,2*%
%TO.N,Board_13-Net-(J2-Pin_1)*%
X90000000Y-60632823D03*
%TD*%
D10*
%TO.P,J1,1,Pin_1*%
%TO.N,Board_3-Net-(J1-Pin_1)*%
X48000000Y-11500500D03*
%TD*%
%TO.P,J1,1,Pin_1*%
%TO.N,Board_5-Net-(J1-Pin_1)*%
X76000000Y-11500500D03*
%TD*%
D11*
%TO.P,C1,1*%
%TO.N,Board_4-Net-(J1-Pin_1)*%
X62000000Y-21632823D03*
D12*
%TO.P,C1,2*%
%TO.N,Board_4-Net-(J2-Pin_1)*%
X62000000Y-26632823D03*
%TD*%
D11*
%TO.P,C1,1*%
%TO.N,Board_9-Net-(J1-Pin_1)*%
X34000000Y-55632823D03*
D12*
%TO.P,C1,2*%
%TO.N,Board_9-Net-(J2-Pin_1)*%
X34000000Y-60632823D03*
%TD*%
D11*
%TO.P,C1,1*%
%TO.N,Board_3-Net-(J1-Pin_1)*%
X48000000Y-21632823D03*
D12*
%TO.P,C1,2*%
%TO.N,Board_3-Net-(J2-Pin_1)*%
X48000000Y-26632823D03*
%TD*%
D10*
%TO.P,J2,1,Pin_1*%
%TO.N,Board_7-Net-(J2-Pin_1)*%
X6000000Y-70500500D03*
%TD*%
D11*
%TO.P,C1,1*%
%TO.N,Board_10-Net-(J1-Pin_1)*%
X48000000Y-55632823D03*
D12*
%TO.P,C1,2*%
%TO.N,Board_10-Net-(J2-Pin_1)*%
X48000000Y-60632823D03*
%TD*%
D11*
%TO.P,C1,1*%
%TO.N,Board_6-Net-(J1-Pin_1)*%
X90000000Y-21632823D03*
D12*
%TO.P,C1,2*%
%TO.N,Board_6-Net-(J2-Pin_1)*%
X90000000Y-26632823D03*
%TD*%
D10*
%TO.P,J1,1,Pin_1*%
%TO.N,Board_4-Net-(J1-Pin_1)*%
X62000000Y-11500500D03*
%TD*%
%TO.P,J2,1,Pin_1*%
%TO.N,Board_4-Net-(J2-Pin_1)*%
X62000000Y-36500500D03*
%TD*%
%TO.P,J1,1,Pin_1*%
%TO.N,Board_6-Net-(J1-Pin_1)*%
X90000000Y-11500500D03*
%TD*%
%TO.P,J1,1,Pin_1*%
%TO.N,Board_10-Net-(J1-Pin_1)*%
X48000000Y-45500500D03*
%TD*%
%TO.P,J2,1,Pin_1*%
%TO.N,Board_13-Net-(J2-Pin_1)*%
X90000000Y-70500500D03*
%TD*%
%TO.P,J1,1,Pin_1*%
%TO.N,Board_2-Net-(J1-Pin_1)*%
X34000000Y-11500500D03*
%TD*%
%TO.P,J1,1,Pin_1*%
%TO.N,Board_11-Net-(J1-Pin_1)*%
X62000000Y-45500500D03*
%TD*%
%TO.P,J1,1,Pin_1*%
%TO.N,Board_13-Net-(J1-Pin_1)*%
X90000000Y-45500500D03*
%TD*%
%TO.P,J2,1,Pin_1*%
%TO.N,Board_11-Net-(J2-Pin_1)*%
X62000000Y-70500500D03*
%TD*%
%TO.P,J2,1,Pin_1*%
%TO.N,Board_6-Net-(J2-Pin_1)*%
X90000000Y-36500500D03*
%TD*%
D11*
%TO.P,C1,1*%
%TO.N,Board_11-Net-(J1-Pin_1)*%
X62000000Y-55632823D03*
D12*
%TO.P,C1,2*%
%TO.N,Board_11-Net-(J2-Pin_1)*%
X62000000Y-60632823D03*
%TD*%
D11*
%TO.P,C1,1*%
%TO.N,Board_5-Net-(J1-Pin_1)*%
X76000000Y-21632823D03*
D12*
%TO.P,C1,2*%
%TO.N,Board_5-Net-(J2-Pin_1)*%
X76000000Y-26632823D03*
%TD*%
D10*
%TO.P,J2,1,Pin_1*%
%TO.N,Board_10-Net-(J2-Pin_1)*%
X48000000Y-70500500D03*
%TD*%
D11*
%TO.P,C1,1*%
%TO.N,Board_0-Net-(J1-Pin_1)*%
X6000000Y-21632823D03*
D12*
%TO.P,C1,2*%
%TO.N,Board_0-Net-(J2-Pin_1)*%
X6000000Y-26632823D03*
%TD*%
D10*
%TO.P,J2,1,Pin_1*%
%TO.N,Board_8-Net-(J2-Pin_1)*%
X20000000Y-70500500D03*
%TD*%
D11*
%TO.P,C1,1*%
%TO.N,Board_1-Net-(J1-Pin_1)*%
X20000000Y-21632823D03*
D12*
%TO.P,C1,2*%
%TO.N,Board_1-Net-(J2-Pin_1)*%
X20000000Y-26632823D03*
%TD*%
D10*
%TO.P,J2,1,Pin_1*%
%TO.N,Board_0-Net-(J2-Pin_1)*%
X6000000Y-36500500D03*
%TD*%
%TO.P,J2,1,Pin_1*%
%TO.N,Board_12-Net-(J2-Pin_1)*%
X76000000Y-70500500D03*
%TD*%
%TO.P,J1,1,Pin_1*%
%TO.N,Board_7-Net-(J1-Pin_1)*%
X6000000Y-45500500D03*
%TD*%
%TO.P,J1,1,Pin_1*%
%TO.N,Board_9-Net-(J1-Pin_1)*%
X34000000Y-45500500D03*
%TD*%
%TO.P,J2,1,Pin_1*%
%TO.N,Board_5-Net-(J2-Pin_1)*%
X76000000Y-36500500D03*
%TD*%
%TO.P,J2,1,Pin_1*%
%TO.N,Board_2-Net-(J2-Pin_1)*%
X34000000Y-36500500D03*
%TD*%
D13*
%TO.N,Board_13-Net-(J2-Pin_1)*%
X90000000Y-60632823D02*
X90000000Y-70500500D01*
%TO.N,Board_13-Net-(J1-Pin_1)*%
X90000000Y-45500500D02*
X90000000Y-55632823D01*
%TO.N,Board_12-Net-(J2-Pin_1)*%
X76000000Y-60632823D02*
X76000000Y-70500500D01*
%TO.N,Board_12-Net-(J1-Pin_1)*%
X76000000Y-45500500D02*
X76000000Y-55632823D01*
%TO.N,Board_11-Net-(J2-Pin_1)*%
X62000000Y-60632823D02*
X62000000Y-70500500D01*
%TO.N,Board_11-Net-(J1-Pin_1)*%
X62000000Y-45500500D02*
X62000000Y-55632823D01*
%TO.N,Board_10-Net-(J2-Pin_1)*%
X48000000Y-60632823D02*
X48000000Y-70500500D01*
%TO.N,Board_10-Net-(J1-Pin_1)*%
X48000000Y-45500500D02*
X48000000Y-55632823D01*
%TO.N,Board_9-Net-(J2-Pin_1)*%
X34000000Y-60632823D02*
X34000000Y-70500500D01*
%TO.N,Board_9-Net-(J1-Pin_1)*%
X34000000Y-45500500D02*
X34000000Y-55632823D01*
%TO.N,Board_8-Net-(J2-Pin_1)*%
X20000000Y-60632823D02*
X20000000Y-70500500D01*
%TO.N,Board_8-Net-(J1-Pin_1)*%
X20000000Y-45500500D02*
X20000000Y-55632823D01*
%TO.N,Board_7-Net-(J2-Pin_1)*%
X6000000Y-60632823D02*
X6000000Y-70500500D01*
%TO.N,Board_7-Net-(J1-Pin_1)*%
X6000000Y-45500500D02*
X6000000Y-55632823D01*
%TO.N,Board_6-Net-(J2-Pin_1)*%
X90000000Y-26632823D02*
X90000000Y-36500500D01*
%TO.N,Board_6-Net-(J1-Pin_1)*%
X90000000Y-11500500D02*
X90000000Y-21632823D01*
%TO.N,Board_5-Net-(J2-Pin_1)*%
X76000000Y-26632823D02*
X76000000Y-36500500D01*
%TO.N,Board_5-Net-(J1-Pin_1)*%
X76000000Y-11500500D02*
X76000000Y-21632823D01*
%TO.N,Board_4-Net-(J2-Pin_1)*%
X62000000Y-26632823D02*
X62000000Y-36500500D01*
%TO.N,Board_4-Net-(J1-Pin_1)*%
X62000000Y-11500500D02*
X62000000Y-21632823D01*
%TO.N,Board_3-Net-(J2-Pin_1)*%
X48000000Y-26632823D02*
X48000000Y-36500500D01*
%TO.N,Board_3-Net-(J1-Pin_1)*%
X48000000Y-11500500D02*
X48000000Y-21632823D01*
%TO.N,Board_2-Net-(J2-Pin_1)*%
X34000000Y-26632823D02*
X34000000Y-36500500D01*
%TO.N,Board_2-Net-(J1-Pin_1)*%
X34000000Y-11500500D02*
X34000000Y-21632823D01*
%TO.N,Board_1-Net-(J2-Pin_1)*%
X20000000Y-26632823D02*
X20000000Y-36500500D01*
%TO.N,Board_1-Net-(J1-Pin_1)*%
X20000000Y-11500500D02*
X20000000Y-21632823D01*
%TO.N,Board_0-Net-(J2-Pin_1)*%
X6000000Y-26632823D02*
X6000000Y-36500500D01*
%TO.N,Board_0-Net-(J1-Pin_1)*%
X6000000Y-11500500D02*
X6000000Y-21632823D01*
%TD*%
M02*
