M48
; DRILL file {KiCad 8.0.2} date 2024-06-26T22:57:20+0700
; FORMAT={-:-/ absolute / inch / decimal}
; #@! TF.CreationDate,2024-06-26T22:57:20+07:00
; #@! TF.GenerationSoftware,Kicad,Pcbnew,8.0.2
; #@! TF.FileFunction,Plated,1,2,PTH
FMAT,2
INCH
; #@! TA.AperFunction,Plated,PTH,ComponentDrill
T1C0.0394
; #@! TA.AperFunction,Plated,PTH,ComponentDrill
T2C0.0984
%
G90
G05
T1
X0.2362Y-0.8517
X0.2362Y-1.0485
X0.2362Y-2.1903
X0.2362Y-2.3871
X0.7874Y-0.8517
X0.7874Y-1.0485
X0.7874Y-2.1903
X0.7874Y-2.3871
X1.3386Y-0.8517
X1.3386Y-1.0485
X1.3386Y-2.1903
X1.3386Y-2.3871
X1.8898Y-0.8517
X1.8898Y-1.0485
X1.8898Y-2.1903
X1.8898Y-2.3871
X2.4409Y-0.8517
X2.4409Y-1.0485
X2.4409Y-2.1903
X2.4409Y-2.3871
X2.9921Y-0.8517
X2.9921Y-1.0485
X2.9921Y-2.1903
X2.9921Y-2.3871
X3.5433Y-0.8517
X3.5433Y-1.0485
X3.5433Y-2.1903
X3.5433Y-2.3871
T2
X0.2362Y-0.4528
X0.2362Y-1.437
X0.2362Y-1.7914
X0.2362Y-2.7756
X0.7874Y-0.4528
X0.7874Y-1.437
X0.7874Y-1.7914
X0.7874Y-2.7756
X1.3386Y-0.4528
X1.3386Y-1.437
X1.3386Y-1.7914
X1.3386Y-2.7756
X1.8898Y-0.4528
X1.8898Y-1.437
X1.8898Y-1.7914
X1.8898Y-2.7756
X2.4409Y-0.4528
X2.4409Y-1.437
X2.4409Y-1.7914
X2.4409Y-2.7756
X2.9921Y-0.4528
X2.9921Y-1.437
X2.9921Y-1.7914
X2.9921Y-2.7756
X3.5433Y-0.4528
X3.5433Y-1.437
X3.5433Y-1.7914
X3.5433Y-2.7756
M30
