%TF.GenerationSoftware,KiCad,Pcbnew,8.0.2*%
%TF.CreationDate,2024-06-26T22:57:20+07:00*%
%TF.ProjectId,Capacitor_Electrolyte_1000uF_25V_Panel,43617061-6369-4746-9f72-5f456c656374,rev?*%
%TF.SameCoordinates,Original*%
%TF.FileFunction,Soldermask,Bot*%
%TF.FilePolarity,Negative*%
%FSLAX46Y46*%
G04 Gerber Fmt 4.6, Leading zero omitted, Abs format (unit mm)*
G04 Created by KiCad (PCBNEW 8.0.2) date 2024-06-26 22:57:20*
%MOMM*%
%LPD*%
G01*
G04 APERTURE LIST*
%ADD10C,4.000000*%
%ADD11R,2.000000X2.000000*%
%ADD12C,2.000000*%
G04 APERTURE END LIST*
D10*
%TO.C,J1*%
X20000000Y-11500500D03*
%TD*%
%TO.C,J2*%
X34000000Y-70500500D03*
%TD*%
%TO.C,J2*%
X20000000Y-36500500D03*
%TD*%
D11*
%TO.C,C1*%
X20000000Y-55632823D03*
D12*
X20000000Y-60632823D03*
%TD*%
D11*
%TO.C,C1*%
X6000000Y-55632823D03*
D12*
X6000000Y-60632823D03*
%TD*%
D11*
%TO.C,C1*%
X76000000Y-55632823D03*
D12*
X76000000Y-60632823D03*
%TD*%
D11*
%TO.C,C1*%
X34000000Y-21632823D03*
D12*
X34000000Y-26632823D03*
%TD*%
D10*
%TO.C,J1*%
X76000000Y-45500500D03*
%TD*%
%TO.C,J1*%
X20000000Y-45500500D03*
%TD*%
%TO.C,J2*%
X48000000Y-36500500D03*
%TD*%
%TO.C,J1*%
X6000000Y-11500500D03*
%TD*%
D11*
%TO.C,C1*%
X90000000Y-55632823D03*
D12*
X90000000Y-60632823D03*
%TD*%
D10*
%TO.C,J1*%
X48000000Y-11500500D03*
%TD*%
%TO.C,J1*%
X76000000Y-11500500D03*
%TD*%
D11*
%TO.C,C1*%
X62000000Y-21632823D03*
D12*
X62000000Y-26632823D03*
%TD*%
D11*
%TO.C,C1*%
X34000000Y-55632823D03*
D12*
X34000000Y-60632823D03*
%TD*%
D11*
%TO.C,C1*%
X48000000Y-21632823D03*
D12*
X48000000Y-26632823D03*
%TD*%
D10*
%TO.C,J2*%
X6000000Y-70500500D03*
%TD*%
D11*
%TO.C,C1*%
X48000000Y-55632823D03*
D12*
X48000000Y-60632823D03*
%TD*%
D11*
%TO.C,C1*%
X90000000Y-21632823D03*
D12*
X90000000Y-26632823D03*
%TD*%
D10*
%TO.C,J1*%
X62000000Y-11500500D03*
%TD*%
%TO.C,J2*%
X62000000Y-36500500D03*
%TD*%
%TO.C,J1*%
X90000000Y-11500500D03*
%TD*%
%TO.C,J1*%
X48000000Y-45500500D03*
%TD*%
%TO.C,J2*%
X90000000Y-70500500D03*
%TD*%
%TO.C,J1*%
X34000000Y-11500500D03*
%TD*%
%TO.C,J1*%
X62000000Y-45500500D03*
%TD*%
%TO.C,J1*%
X90000000Y-45500500D03*
%TD*%
%TO.C,J2*%
X62000000Y-70500500D03*
%TD*%
%TO.C,J2*%
X90000000Y-36500500D03*
%TD*%
D11*
%TO.C,C1*%
X62000000Y-55632823D03*
D12*
X62000000Y-60632823D03*
%TD*%
D11*
%TO.C,C1*%
X76000000Y-21632823D03*
D12*
X76000000Y-26632823D03*
%TD*%
D10*
%TO.C,J2*%
X48000000Y-70500500D03*
%TD*%
D11*
%TO.C,C1*%
X6000000Y-21632823D03*
D12*
X6000000Y-26632823D03*
%TD*%
D10*
%TO.C,J2*%
X20000000Y-70500500D03*
%TD*%
D11*
%TO.C,C1*%
X20000000Y-21632823D03*
D12*
X20000000Y-26632823D03*
%TD*%
D10*
%TO.C,J2*%
X6000000Y-36500500D03*
%TD*%
%TO.C,J2*%
X76000000Y-70500500D03*
%TD*%
%TO.C,J1*%
X6000000Y-45500500D03*
%TD*%
%TO.C,J1*%
X34000000Y-45500500D03*
%TD*%
%TO.C,J2*%
X76000000Y-36500500D03*
%TD*%
%TO.C,J2*%
X34000000Y-36500500D03*
%TD*%
M02*
